<?xml version="1.0" encoding="utf-8"?>
<!-- Generator: Adobe Illustrator 24.0.1, SVG Export Plug-In . SVG Version: 6.00 Build 0)  -->
<svg version="1.1" id="Component_5_1" xmlns="http://www.w3.org/2000/svg" xmlns:xlink="http://www.w3.org/1999/xlink" x="0px"
	 y="0px" viewBox="0 0 181 90.5" style="enable-background:new 0 0 181 90.5;" xml:space="preserve">
<style type="text/css">
	.st0{fill:none;}
	.st1{fill:#FAB8B1;}
	.st2{fill:#323232;}
</style>
<path id="Path_7" class="st0" d="M45.2,31.6l-0.8-2.2l-2.9-1.9l0,0l2.9,1.9L45.2,31.6z"/>
<path id="Path_8" class="st0" d="M94.8,84.1l-7.1-8.1l0,0L94.8,84.1L94.8,84.1z"/>
<path id="Path_9" class="st0" d="M39.2,40l-0.7,3.7l0,0L39.2,40z"/>
<path id="Path_10" class="st0" d="M167.7,82.9l0.2-6L167.7,82.9L167.7,82.9z"/>
<path id="Path_11" class="st0" d="M46.9,35.5l-1.3-2.9L46.9,35.5L46.9,35.5z"/>
<path id="Path_12" class="st0" d="M120.6,86.3l5-3.4l2.8-1.5l-2.8,1.5L120.6,86.3z"/>
<path id="Path_13" class="st0" d="M25.1,12.3l2.1-0.9L25.1,12.3l-4.4,20.3l-3,4.9l3-4.9L25.1,12.3z"/>
<path id="Path_14" class="st0" d="M49.7,34.4l-1.3-0.9l-0.2,0.3l0.2-0.3L49.7,34.4z"/>
<path id="Path_15" class="st0" d="M155,82.2L155,82.2l9.2-4.3l0,0L155,82.2z"/>
<path id="Path_16" class="st0" d="M57.3,52.5l-1,3.1l0,0L57.3,52.5z"/>
<path id="Path_17" class="st0" d="M69.9,50.9l8.2,14l2.2,6.4l-2.2-6.4L69.9,50.9l-9-7.8l-1,2.2l1-2.2L69.9,50.9z"/>
<path id="Path_18" class="st0" d="M55.4,47.6l-0.5-4.7l-1.2-2.7l1.2,2.7L55.4,47.6z"/>
<path id="Path_19" class="st0" d="M11.6,47.7l1,1.7l0,0L11.6,47.7l-1.2-4.1l-0.9,1.3l0.9-1.3L11.6,47.7z"/>
<path id="Path_20" class="st0" d="M143.6,77.3l0.2-0.1l0.2,0.1l-0.2-0.1L143.6,77.3z"/>
<path id="Path_21" class="st0" d="M85.3,78.5l-2.5-2L81,73.1l1.8,3.4L85.3,78.5z"/>
<rect id="Rectangle_38" x="118.1" y="51.8" class="st0" width="54.1" height="5.3"/>
<path id="Path_22" class="st0" d="M98.4,71.7l-0.6-1.1l-1.1,1.1l1.1-1.1L98.4,71.7z"/>
<path id="Path_23" class="st0" d="M171,72.3l6.4,1.3l2.9-2.8l-2.9,2.8L171,72.3z"/>
<path id="Path_24" class="st0" d="M29.1,10.5L29.1,10.5l3.1,8.4L29.1,10.5z"/>
<path id="Path_25" class="st0" d="M109.1,88l-1.4,2.5h3.3l-0.6-3.2L109.1,88z"/>
<path id="Path_26" class="st0" d="M181,70.2l-0.6,0.6l-2.9,2.8l-6.4-1.3l-2.9-0.6l-0.2,5.2l-0.2,6l0,0l0,0l-3.6-5.1l-9.2,4.3l0,0
	l-0.9-1.3L144,77.3l-0.2-0.1l-0.2,0.1l-4.4,1.6l-9.9,1.9l-1,0.5l-2.8,1.5l-5,3.4l-6.1,4.2H181L181,70.2L181,70.2L181,70.2z"/>
<path id="Path_27" class="st0" d="M100.8,76.2l-2.4-4.5l-0.6-1.1l-1.1,1.1L96,72.3l-1.3,11.8l0,0l0,0l-7.1-8.1l-1.8,2.8l-0.5-0.4
	l-2.5-2L81,73.1l-0.2-0.3l-0.5-1.5l-2.2-6.4l-8.2-14l-9-7.8l-1,2.2l-1,2.3l-1.6,4.9l-1,3.1l0,0v0l-0.8-8.1l-0.5-4.7l-1.2-2.7
	l-2.1-4.5l-1.9-1.3l-1.3-0.9l-0.2,0.3l-1.2,1.7l0,0l0,0l-1.3-2.9l-0.3-0.6l-0.1-0.4l-0.8-2.2l-2.9-1.9L39.2,40l-0.7,3.7l0,0
	l-2.9-13.3l-1.7-3.9l-0.2-3.5l-1.5-4.2l-3.1-8.4l-2,0.9l-2.1,0.9l-4.4,20.3l-3,4.9L14,43.6l-1.3,5.8l0,0l0,0l-1-1.7l-1.2-4.1
	l-0.9,1.3l-4.9,7.5L0,52.6l0,0l0,0v37.9h29.5c1-0.6,1.7-0.7,2.4-1.2c0.8-0.6,1.8-1.1,1.8-1.1c1.5-0.2,3-0.3,4.6-0.3
	c2.5,0.1,2.9,0.4,4.5,0.4s3.9,0.8,4.4,1.7c0.1,0.2,0.2,0.3,0.2,0.5h58.3l0,0l-1.5-4.1L100.8,76.2z M31.5,73.4l2.6,0.1
	c0,0.5-0.4,0.9-0.9,0.9c-0.9,0.1-2.7,0.4-2.9,0S30,73.3,31.5,73.4L31.5,73.4z M27.1,74.6l2.8,0.3c0,0,0.6,0.9-0.4,1.1
	s-4.4-0.3-4.3-0.6C25.7,74.9,26.4,74.6,27.1,74.6L27.1,74.6z M24.2,78.1c-0.6-0.1-1.6-1.2-1.5-1.6h5.2c0,0,1.2,0.7,0.9,1
	s-0.8,0.6-1.8,0.6C26.1,78.2,25.1,78.2,24.2,78.1L24.2,78.1z M26.3,78.9c0,0,6.7-0.6,7.5-0.3c0.8,0.3,1.6,0.8,2.3,1.3
	c0.6,0.5,0.6,1-0.5,1s-6.8,0.1-7.1,0.1S26.3,79.5,26.3,78.9L26.3,78.9z M44.2,86.2c-0.4,0.9-8,0.5-9.3,0.3s-4.5-0.1-5.3-0.2
	s-0.2-2.3-0.2-2.7s1.5-1.1,1.5-1.1s9.7-0.2,10.3-0.2c0.8,0.1,1.6,0.4,2.2,0.9C44.4,83.8,44.6,85.3,44.2,86.2L44.2,86.2z"/>
<g id="Group_2" transform="translate(22.66 73.344)">
	<path id="Path_28" class="st1" d="M6.9,17.2L6.9,17.2z"/>
	<path id="Path_29" class="st1" d="M20,14.9c-1.5,0-2-0.3-4.5-0.4c-1.5-0.1-3.1,0-4.6,0.3c0,0-0.9,0.6-1.8,1.1
		c-0.7,0.5-1.4,0.6-2.4,1.2h17.8c0-0.2-0.1-0.4-0.2-0.5C23.9,15.8,21.6,14.9,20,14.9z"/>
	<path id="Path_30" class="st1" d="M20.9,9.9c-0.7-0.5-1.4-0.8-2.2-0.9C18,8.9,8.3,9.1,8.3,9.1s-1.5,0.7-1.5,1.1S6.2,12.9,7,13
		s4,0,5.3,0.2s8.9,0.7,9.2-0.3S21.8,10.4,20.9,9.9z"/>
	<path id="Path_31" class="st1" d="M13.5,6.6c-0.7-0.6-1.5-1-2.3-1.3C10.3,5,3.6,5.5,3.6,5.5c0,0.7,1.9,2.2,2.2,2.2S12,7.6,13,7.6
		S14.1,7.1,13.5,6.6z"/>
	<path id="Path_32" class="st1" d="M6.1,4.2c0.2-0.4-0.9-1-0.9-1H0c-0.1,0.4,0.9,1.5,1.5,1.6c0.9,0,1.9,0,2.8,0
		C5.3,4.8,5.9,4.6,6.1,4.2z"/>
	<path id="Path_33" class="st1" d="M6.9,2.6c0.9-0.2,0.4-1.1,0.4-1.1L4.5,1.2c-0.7,0-1.4,0.3-1.9,0.8C2.5,2.4,6,2.8,6.9,2.6z"/>
	<path id="Path_34" class="st1" d="M10.4,1c0.5,0,0.9-0.4,0.9-0.9L8.8,0C7.4-0.1,7.3,0.7,7.5,1S9.5,1.1,10.4,1z"/>
</g>
<g id="Group_3" transform="translate(0)">
	<path id="Path_35" class="st1" d="M151.5,18.2c0.1-0.4-0.2-0.8-0.6-0.8c-0.4-0.1-0.8,0.2-0.8,0.6c0,0.1,0,0.1,0,0.2v2.3h1.4V18.2z"
		/>
	<path id="Path_36" class="st1" d="M123.9,34.6h-1v5h1c0.4,0,0.7-0.3,0.7-0.8v-3.3C124.6,34.8,124.3,34.6,123.9,34.6z"/>
	<path id="Path_37" class="st1" d="M152.5,36.9l-0.9,6.3h1.6L152.5,36.9z"/>
	<path id="Path_38" class="st1" d="M132.8,46.7c0.5,0,0.7-0.3,0.7-0.8v-3.1c-1,0.4-1.5,0.9-1.5,1.9v1.1
		C132,46.4,132.3,46.7,132.8,46.7z"/>
	<path id="Path_39" class="st1" d="M123.3,16l-0.9,6.3h1.6L123.3,16z"/>
	<path id="Path_40" class="st1" d="M105.7,0H0v52.6l4.7-0.2l4.9-7.5l0.9-1.3l1.2,4.1l1,1.7l1.3-5.8l3.7-6.1l3-4.9l4.4-20.3l2.1-0.9
		l2-0.9l0,0l0,0l3.1,8.4l1.5,4.2l0.2,3.5l1.7,3.9l2.8,13.3l0.7-3.7l2.3-12.4l0,0l0,0l2.9,1.9l0.8,2.2l0.2,0.4l0.3,0.6l1.3,2.9
		l1.2-1.7l0.2-0.3l1.3,0.9l1.9,1.3l2.1,4.5l1.2,2.7l0.5,4.7l0.8,8.1l1-3.1l1.6-4.9l1-2.3l1-2.2l9,7.8l8.2,14l2.2,6.4l0.5,1.5
		l0.2,0.3l1.8,3.4l2.5,2l0.5,0.4l1.8-2.8l0,0l0,0l7.1,8.1L96,72.3l0.6-0.6l1.1-1.1l0.6,1.1l2.4,4.5l3.3,10.2l1.5,4.1l0,0h2l0,0l0,0
		l1.4-2.5l1.4-0.7l0.6,3.2l0,0l0,0h3.5l0,0l0,0l6.1-4.2l5-3.4l2.8-1.5l1-0.5l9.8-1.9l4.4-1.6l0.2-0.1l0.2,0.1l10.1,3.6l0.9,1.3
		l9.2-4.3l0,0l3.6,5.1l0.2-6l0.2-5.2l2.9,0.6l6.4,1.3l2.9-2.8l0.6-0.6V0H105.7z M164.5,18.9c-0.1-2.1,1.6-3.9,3.7-4s3.9,1.6,4,3.7
		c0,0.1,0,0.2,0,0.3v5.2c0.1,2.1-1.6,3.9-3.8,4c-2.1,0.1-3.9-1.6-4-3.8c0-0.1,0-0.1,0-0.2V18.9z M166.3,38c0.4-1.5,1.3-2.2,2.4-2.2
		c1.7,0,2.6,1.2,2.6,3.2v9.9h-3.3v-9.4c0.1-0.4-0.2-0.7-0.6-0.8c-0.4-0.1-0.7,0.2-0.8,0.6c0,0.1,0,0.1,0,0.2v9.4h-3.3v-9.6
		c0.1-0.4-0.2-0.7-0.6-0.8c-0.4-0.1-0.7,0.2-0.8,0.6c0,0.1,0,0.1,0,0.2v9.6h-3.3V36h2.9l0.4,1.9c0.1-1.1,1-2.1,2.2-2.1
		C165.2,35.8,166,36.6,166.3,38L166.3,38z M155.7,23.8h2.8v0.8c0,0.7,0.3,1,0.9,1c0.4,0.1,0.8-0.2,0.9-0.6c0-0.1,0-0.2,0-0.2
		c0-1.3-1.2-1.6-2.6-2.7c-1.2-0.8-1.9-2.1-1.9-3.5c-0.1-1.9,1.3-3.6,3.2-3.7c0.2,0,0.4,0,0.5,0c2,0,3.6,1.5,3.7,3.5
		c0,0.1,0,0.2,0,0.3v0.5h-2.8v-0.7c0-0.6-0.3-1-0.8-1c-0.4-0.1-0.8,0.2-0.8,0.6c0,0.1,0,0.1,0,0.2c0,0.7,0.6,1.2,1.4,1.9
		c1.3,0.9,3.1,1.9,3.1,4.3c0.1,1.9-1.3,3.6-3.2,3.7c-0.2,0-0.3,0-0.5,0c-1.9,0.2-3.7-1.2-3.9-3.1c0-0.2,0-0.4,0-0.6L155.7,23.8z
		 M157.8,48.8h-4l-0.3-2.6h-2.4l-0.4,2.6h-3.6l3-17.4h4.6L157.8,48.8z M146.8,18.7c-0.1-2.1,1.6-3.8,3.7-3.9c0.1,0,0.1,0,0.2,0
		c2.1-0.1,3.8,1.6,3.8,3.6c0,0.1,0,0.2,0,0.3v3.1H150v2.8c0,0.5,0.2,0.9,0.8,0.9c0.6,0,0.8-0.4,0.8-0.9v-1.6h3v1.1
		c0.1,2.1-1.5,3.8-3.6,3.9c-0.1,0-0.2,0-0.3,0c-2.1,0.1-3.8-1.6-3.9-3.7c0-0.1,0-0.2,0-0.2L146.8,18.7z M146.4,38.6v10.2h-3.3v-9.5
		c0.1-0.4-0.2-0.7-0.6-0.8c-0.4-0.1-0.7,0.2-0.8,0.6c0,0.1,0,0.1,0,0.2v9.5h-3.3V36h2.9l0.2,1.7c0.3-1.1,1.4-1.9,2.5-1.9
		C145.6,35.8,146.4,36.9,146.4,38.6L146.4,38.6z M138.1,18.9c-0.1-2.1,1.4-3.9,3.5-4c0.1,0,0.3,0,0.4,0c2.2,0,3.6,1.5,3.6,4V20h-2.7
		v-1.6c0-0.6-0.3-1-0.8-1s-0.8,0.4-0.8,1v6.2c0,0.6,0.3,1,0.8,1s0.8-0.4,0.8-1V23h2.7v1.1c0,2.5-1.4,4-3.6,4
		c-2.1,0.1-3.8-1.5-3.9-3.6c0-0.1,0-0.3,0-0.4V18.9z M129.4,18.9c-0.1-2.1,1.4-3.9,3.5-4c0.1,0,0.3,0,0.4,0c2.2,0,3.6,1.5,3.6,4V20
		h-2.7v-1.6c0-0.6-0.3-1-0.8-1s-0.8,0.4-0.8,1v6.2c0,0.6,0.3,1,0.8,1s0.8-0.4,0.8-1V23h2.7v1.1c0,2.5-1.4,4-3.6,4
		c-2.1,0.1-3.8-1.5-3.9-3.6c0-0.1,0-0.3,0-0.4V18.9z M128.9,45.3c0-2.3,1.5-3.4,4.6-4.4V39c0-0.3-0.2-0.7-0.5-0.7s-0.7,0.2-0.7,0.5
		c0,0.1,0,0.1,0,0.2v1.2h-2.9v-0.9c0-2.1,1.1-3.6,3.7-3.6c1.9-0.1,3.5,1.3,3.7,3.2c0,0.2,0,0.4,0,0.6v6.6c0,0.4,0.2,0.6,0.5,0.7V49
		h-0.6c-1.1,0.1-2.1-0.6-2.5-1.6c-0.4,1-1.5,1.7-2.6,1.6c-1.5,0-2.7-1.2-2.7-3.3L128.9,45.3z M121,10.5h4.6l3,17.4h-4l-0.3-2.6H122
		l-0.4,2.6H118L121,10.5z M128.3,35.3v3.4c0.1,2-1.3,3.7-3.3,3.8c-0.2,0-0.3,0-0.5,0h-1.7v6.3h-4V31.4h5.7c2-0.1,3.7,1.4,3.8,3.3
		C128.4,34.9,128.4,35.1,128.3,35.3L128.3,35.3z M172.2,57.1h-54.1v-5.3h54.1L172.2,57.1z"/>
	<path id="Path_41" class="st1" d="M168.4,25.6c0.4,0,0.7-0.4,0.7-0.8v-6.5c0-0.4-0.3-0.8-0.7-0.8c-0.4,0-0.7,0.4-0.7,0.8
		c0,0,0,0,0,0v6.5C167.6,25.2,167.9,25.5,168.4,25.6C168.4,25.6,168.4,25.6,168.4,25.6z"/>
</g>
<path id="Path_42" class="st2" d="M110.5,87.3l-1.4,0.7l-1.4,2.5l0,0l1.4-2.5L110.5,87.3l0.6,3.2l0,0L110.5,87.3z"/>
<path id="Path_43" class="st2" d="M181,70.2L181,70.2l-0.6,0.6L181,70.2z"/>
<path id="Path_44" class="st2" d="M114.5,90.5L114.5,90.5l6.1-4.2L114.5,90.5z"/>
<path id="Path_45" class="st2" d="M164.1,77.9l3.6,5.1l0,0L164.1,77.9L164.1,77.9z"/>
<path id="Path_46" class="st2" d="M129.3,80.9l-1,0.5L129.3,80.9l9.9-1.9l4.4-1.6l-4.4,1.6L129.3,80.9z"/>
<path id="Path_47" class="st2" d="M144,77.3l10.1,3.6l0.9,1.3l0,0l-0.9-1.3L144,77.3z"/>
<path id="Path_48" class="st2" d="M167.9,76.9l0.2-5.2l2.9,0.6l-2.9-0.6L167.9,76.9z"/>
<path id="Path_49" class="st2" d="M29.1,10.5l-2,0.9L29.1,10.5L29.1,10.5z"/>
<path id="Path_50" class="st2" d="M81,73.1l-0.2-0.3l-0.5-1.5l0.5,1.5L81,73.1z"/>
<path id="Path_51" class="st2" d="M33.9,26.6l1.7,3.9l2.9,13.3l0,0l-2.8-13.3L33.9,26.6l-0.2-3.5l-1.5-4.2l1.5,4.2L33.9,26.6z"/>
<path id="Path_52" class="st2" d="M45.6,32.6l-0.3-0.6l-0.2-0.4l0.1,0.4L45.6,32.6z"/>
<path id="Path_53" class="st2" d="M14,43.6l3.7-6.1L14,43.6l-1.3,5.8l0,0L14,43.6z"/>
<path id="Path_54" class="st2" d="M41.5,27.6L39.2,40L41.5,27.6L41.5,27.6z"/>
<path id="Path_55" class="st2" d="M100.8,76.2l-2.4-4.5L100.8,76.2l3.3,10.2l1.5,4.1l-1.5-4.1L100.8,76.2z"/>
<path id="Path_56" class="st2" d="M48.1,33.8l-1.2,1.7l0,0L48.1,33.8z"/>
<path id="Path_57" class="st2" d="M96,72.3l0.6-0.6L96,72.3l-1.3,11.8l0,0L96,72.3z"/>
<path id="Path_58" class="st2" d="M87.6,76.1L87.6,76.1l-1.8,2.8l-0.5-0.4l0.5,0.4L87.6,76.1z"/>
<path id="Path_59" class="st2" d="M56.3,55.7l-0.8-8.1L56.3,55.7L56.3,55.7z"/>
<path id="Path_60" class="st2" d="M59.9,45.4l-1,2.3l-1.6,4.9l1.6-4.9L59.9,45.4z"/>
<path id="Path_61" class="st2" d="M53.7,40.2l-2.1-4.5l-1.9-1.3l1.9,1.3L53.7,40.2z"/>
</svg>
