<svg id="Component_5_1" data-name="Component 5 – 1" xmlns="http://www.w3.org/2000/svg" width="181" height="90.5" viewBox="0 0 181 90.5">
  <path id="Path_7" data-name="Path 7" d="M706.846,464.452l-.781-2.183-2.9-1.887v0l2.9,1.887Z" transform="translate(-661.669 -432.803)" fill="none"/>
  <path id="Path_8" data-name="Path 8" d="M914.679,683.253l-7.136-8.06h0l7.136,8.063Z" transform="translate(-819.911 -599.122)" fill="none"/>
  <path id="Path_9" data-name="Path 9" d="M690.486,515.524l-.7,3.726v0Z" transform="translate(-651.315 -475.497)" fill="none"/>
  <path id="Path_10" data-name="Path 10" d="M1262.395,684.907l.2-6-.206,5.992Z" transform="translate(-1094.655 -602.001)" fill="none"/>
  <path id="Path_11" data-name="Path 11" d="M722.6,485.621l-1.34-2.921,1.338,2.924Z" transform="translate(-675.681 -450.083)" fill="none"/>
  <path id="Path_12" data-name="Path 12" d="M1053.557,703.75l4.988-3.429,2.75-1.5-2.75,1.5Z" transform="translate(-932.964 -617.413)" fill="none"/>
  <path id="Path_13" data-name="Path 13" d="M605.1,389.47l2.06-.936-2.062.934L600.7,409.807l-3.015,4.922,3.016-4.921Z" transform="translate(-580.005 -377.175)" fill="none"/>
  <path id="Path_14" data-name="Path 14" d="M733.963,487.492l-1.327-.88-.234.339.234-.338Z" transform="translate(-684.307 -453.112)" fill="none"/>
  <path id="Path_15" data-name="Path 15" d="M1205.864,687.383h0l9.161-4.3h0Z" transform="translate(-1050.888 -605.228)" fill="none"/>
  <path id="Path_16" data-name="Path 16" d="M769.6,570.989l-1.015,3.117v0Z" transform="translate(-712.324 -518.441)" fill="none"/>
  <path id="Path_17" data-name="Path 17" d="M794.749,537.192l8.15,13.97,2.209,6.362-2.207-6.361-8.152-13.972-9.048-7.775-1,2.21,1-2.208Z" transform="translate(-724.801 -486.253)" fill="none"/>
  <path id="Path_18" data-name="Path 18" d="M758.854,523.682l-.495-4.718-1.248-2.7,1.247,2.7Z" transform="translate(-703.438 -476.072)" fill="none"/>
  <path id="Path_19" data-name="Path 19" d="M563.979,535.488l1.008,1.7h0l-1.007-1.7-1.177-4.073-.852,1.3.852-1.3Z" transform="translate(-552.334 -487.799)" fill="none"/>
  <path id="Path_20" data-name="Path 20" d="M1155.387,680.286l.206-.077.244.087-.245-.087Z" transform="translate(-1011.806 -603.006)" fill="none"/>
  <path id="Path_21" data-name="Path 21" d="M882.478,667.3l-2.511-2.041-1.841-3.356,1.839,3.356Z" transform="translate(-797.135 -588.831)" fill="none"/>
  <rect id="Rectangle_38" data-name="Rectangle 38" width="54.121" height="5.347" transform="translate(118.129 51.783)" fill="none"/>
  <path id="Path_22" data-name="Path 22" d="M949.2,651.92l-.6-1.11-1.142,1.124,1.142-1.122Z" transform="translate(-850.816 -580.243)" fill="none"/>
  <path id="Path_23" data-name="Path 23" d="M1277.034,653.545l6.38,1.289,2.937-2.773-2.938,2.771Z" transform="translate(-1105.992 -581.211)" fill="none"/>
  <path id="Path_24" data-name="Path 24" d="M648.326,384.586h0l3.08,8.434Z" transform="translate(-619.21 -374.118)" fill="none"/>
  <path id="Path_25" data-name="Path 25" d="M997.85,725.63l-1.4,2.482h3.317l-.563-3.2Z" transform="translate(-888.747 -637.615)" fill="none"/>
  <path id="Path_26" data-name="Path 26" d="M1093.213,649.382l-.64.6-2.937,2.773-6.38-1.289-2.922-.589-.177,5.166-.2,6,0,0v0l-3.6-5.053-9.161,4.3h0l-.879-1.279-10.065-3.586-.245-.087-.206.077-4.4,1.642L1041.543,660l-1,.544-2.75,1.5-4.988,3.429-6.05,4.161h66.456V649.38h0Z" transform="translate(-912.213 -579.137)" fill="none"/>
  <path id="Path_27" data-name="Path 27" d="M620.173,450.344l-2.441-4.546-.6-1.108-1.143,1.121-.61.6-1.262,11.843,0,0v0l-7.136-8.063-1.792,2.8-.5-.4-2.513-2.041-1.839-3.356-.165-.3-.52-1.5-2.209-6.362-8.15-13.97-9.047-7.775-1,2.208-1.031,2.286-1.592,4.889-1.015,3.122v0l0,.005-.846-8.06-.5-4.717-1.247-2.7-2.1-4.547-1.912-1.267-1.328-.878-.233.338-1.175,1.7v0l0,0-1.339-2.924-.254-.553-.148-.415-.784-2.18-2.9-1.887-2.323,12.445-.7,3.728v0l-2.851-13.313-1.685-3.876-.22-3.482-1.525-4.179-3.08-8.434-1.965.89-2.06.936-4.39,20.338-3.016,4.921-3.712,6.059-1.318,5.775v0h0L531,421.81l-1.177-4.075-.852,1.3-4.9,7.492-4.715.186v0h0v37.906h29.535c.989-.575,1.727-.732,2.385-1.184.819-.564,1.757-1.126,1.757-1.126a24,24,0,0,1,4.565-.282c2.46.095,2.929.377,4.452.377s3.865.844,4.446,1.689a1.191,1.191,0,0,1,.191.527h58.323l-.012-.03-1.548-4.052Zm-69.37-2.872,2.573.095a.966.966,0,0,1-.933.939c-.939.094-2.695.376-2.929,0S549.4,447.379,550.8,447.472Zm-4.333,1.222,2.81.28s.586.94-.351,1.128-4.449-.282-4.333-.562A2.589,2.589,0,0,1,546.47,448.694Zm-2.928,3.567c-.585-.093-1.639-1.219-1.522-1.6h5.151s1.171.657.938,1.033-.82.562-1.758.562A27.718,27.718,0,0,1,543.542,452.261Zm2.107.751s6.676-.561,7.495-.281a8.673,8.673,0,0,1,2.342,1.315c.586.469.586,1.033-.467,1.033s-6.792.094-7.143.094S545.65,453.67,545.65,453.012Zm17.916,7.325c-.352.937-7.964.469-9.251.28s-4.45-.093-5.269-.189-.234-2.252-.234-2.721,1.522-1.128,1.522-1.128,9.719-.187,10.3-.187a5.03,5.03,0,0,1,2.226.939C563.8,457.895,563.918,459.4,563.566,460.337Z" transform="translate(-519.352 -374.121)" fill="none"/>
  <g id="Group_2" data-name="Group 2" transform="translate(22.66 73.344)">
    <path id="Path_28" data-name="Path 28" d="M650.184,739.1h0Z" transform="translate(-643.309 -721.945)" fill="#2c345c"/>
    <path id="Path_29" data-name="Path 29" d="M663.343,727.94c-1.523,0-1.992-.282-4.452-.377a24,24,0,0,0-4.565.282s-.937.563-1.757,1.127c-.658.453-1.4.609-2.385,1.184h17.8a1.192,1.192,0,0,0-.191-.527C667.208,728.784,664.864,727.94,663.343,727.94Z" transform="translate(-643.31 -713.002)" fill="#2c345c"/>
    <path id="Path_30" data-name="Path 30" d="M663.212,703.6a5.031,5.031,0,0,0-2.226-.939c-.586,0-10.3.187-10.3.187s-1.522.659-1.522,1.128-.586,2.629.234,2.721,3.982,0,5.269.189,8.9.657,9.25-.28S664.149,704.161,663.212,703.6Z" transform="translate(-642.359 -693.73)" fill="#2c345c"/>
    <path id="Path_31" data-name="Path 31" d="M645.683,687.486a8.678,8.678,0,0,0-2.342-1.315c-.819-.281-7.495.281-7.495.281,0,.658,1.874,2.16,2.226,2.16s6.088-.094,7.143-.094S646.268,687.955,645.683,687.486Z" transform="translate(-632.208 -680.904)" fill="#2c345c"/>
    <path id="Path_32" data-name="Path 32" d="M625.828,678.324c.233-.376-.938-1.033-.938-1.033h-5.151c-.117.376.936,1.5,1.522,1.6a27.736,27.736,0,0,0,2.81,0Q625.477,678.886,625.828,678.324Z" transform="translate(-619.73 -674.09)" fill="#2c345c"/>
    <path id="Path_33" data-name="Path 33" d="M635.5,669.965c.937-.188.351-1.128.351-1.128l-2.81-.28a2.589,2.589,0,0,0-1.873.846C631.054,669.683,634.566,670.152,635.5,669.965Z" transform="translate(-628.586 -667.328)" fill="#2c345c"/>
    <path id="Path_34" data-name="Path 34" d="M655.567,664.152a.966.966,0,0,0,.933-.939l-2.573-.095c-1.4-.093-1.523.658-1.289,1.033S654.628,664.246,655.567,664.152Z" transform="translate(-645.136 -663.111)" fill="#2c345c"/>
  </g>
  <g id="Group_3" data-name="Group 3" transform="translate(0)">
    <path id="Path_35" data-name="Path 35" d="M1185.416,416.086a.726.726,0,1,0-1.435,0v2.323h1.435Z" transform="translate(-1033.945 -397.86)" fill="#2c345c"/>
    <path id="Path_36" data-name="Path 36" d="M1064.721,491.495h-.992v5.012h.992c.444,0,.7-.261.7-.835V492.33C1065.426,491.73,1065.165,491.495,1064.721,491.495Z" transform="translate(-940.839 -456.893)" fill="#2c345c"/>
    <path id="Path_37" data-name="Path 37" d="M1191.918,501.787l-.887,6.317h1.566Z" transform="translate(-1039.404 -464.861)" fill="#2c345c"/>
    <path id="Path_38" data-name="Path 38" d="M1105.066,531.992c.47,0,.7-.313.7-.784v-3.054c-1.018.417-1.462.94-1.462,1.854v1.1C1104.309,531.679,1104.6,531.992,1105.066,531.992Z" transform="translate(-972.259 -485.277)" fill="#2c345c"/>
    <path id="Path_39" data-name="Path 39" d="M1062.534,409.12l-.887,6.317h1.566Z" transform="translate(-939.227 -393.114)" fill="#2c345c"/>
    <path id="Path_40" data-name="Path 40" d="M625.007,338.215H519.353v52.591l4.716-.186,4.9-7.49.852-1.3L531,385.9l1.007,1.7,1.317-5.773,3.714-6.059,3.016-4.922,4.389-20.339,2.061-.934,1.964-.893v0h0l3.078,8.435,1.526,4.18.221,3.479,1.684,3.877,2.85,13.314.7-3.726,2.321-12.446h0v0l2.9,1.887.781,2.183.15.417.252.551,1.34,2.921,1.175-1.7.234-.339,1.327.88,1.914,1.265,2.1,4.549,1.248,2.7.5,4.718.847,8.055,1.015-3.117,1.589-4.888,1.034-2.286,1-2.21,9.048,7.775,8.152,13.972,2.207,6.361.521,1.5.164.3,1.841,3.355,2.511,2.041.5.4,1.79-2.8,0,0h0l7.136,8.06,1.261-11.839.613-.6,1.142-1.124.6,1.11,2.443,4.545,3.273,10.19L625,428.682l.012.033h2.045v0h0l1.4-2.484,1.357-.722.562,3.206h0v0h3.521l0,0h0l6.053-4.161,4.989-3.431,2.75-1.5,1-.546,9.85-1.939,4.4-1.639.206-.077.245.087,10.067,3.585.878,1.28,9.161-4.3h0l3.6,5.051.206-5.992.175-5.168,2.924.591,6.38,1.287,2.938-2.771.64-.6V338.215Zm58.842,18.878a3.879,3.879,0,1,1,7.753,0v5.247a3.878,3.878,0,1,1-7.753,0Zm1.853,19.118c.392-1.54,1.279-2.219,2.428-2.219,1.671,0,2.584,1.227,2.584,3.185v9.868h-3.263V377.62a.7.7,0,1,0-1.384,0v9.424h-3.315V377.49a.7.7,0,1,0-1.384,0v9.555H678.08V374.227h2.871l.366,1.879a2.294,2.294,0,0,1,2.168-2.114C684.579,373.992,685.389,374.853,685.7,376.211Zm-10.623-14.236h2.793v.835c0,.731.313,1.044.888,1.044a.777.777,0,0,0,.888-.888c0-1.253-1.227-1.593-2.559-2.663a4.177,4.177,0,0,1-1.906-3.524,3.458,3.458,0,0,1,3.733-3.707,3.571,3.571,0,0,1,3.655,3.733v.47H679.8v-.7c0-.574-.261-.966-.784-.966a.727.727,0,0,0-.809.836c0,.731.6,1.2,1.41,1.88,1.279.887,3.054,1.854,3.054,4.307a3.476,3.476,0,0,1-3.733,3.707,3.519,3.519,0,0,1-3.864-3.733Zm2.114,25.07h-4.02l-.26-2.61h-2.376l-.365,2.61h-3.629l3.028-17.386h4.647ZM666.2,356.963a3.787,3.787,0,0,1,3.89-3.89,3.729,3.729,0,0,1,3.837,3.89V360.1h-4.542v2.846c0,.5.209.862.757.862.574,0,.783-.366.783-.862v-1.567h3v1.071a3.73,3.73,0,0,1-3.837,3.89,3.773,3.773,0,0,1-3.89-3.89Zm-.418,19.9v10.181H662.5v-9.528a.7.7,0,1,0-1.384,0v9.528h-3.289V374.227h2.924l.156,1.671a2.688,2.688,0,0,1,2.506-1.88C664.951,374.018,665.786,375.14,665.786,376.864Zm-8.3-19.77a3.763,3.763,0,0,1,3.89-4.02c2.193,0,3.6,1.54,3.6,4.02v1.1h-2.689V356.6c0-.575-.287-.966-.81-.966s-.835.391-.835.966v6.239c0,.574.314.966.835.966s.81-.392.81-.966v-1.619h2.689v1.123c0,2.506-1.41,3.994-3.6,3.994a3.727,3.727,0,0,1-3.89-3.994Zm-8.718,0a3.763,3.763,0,0,1,3.89-4.02c2.193,0,3.6,1.54,3.6,4.02v1.1h-2.689V356.6c0-.575-.287-.966-.81-.966s-.835.391-.835.966v6.239c0,.574.314.966.835.966s.81-.392.81-.966v-1.619h2.689v1.123c0,2.506-1.41,3.994-3.6,3.994a3.727,3.727,0,0,1-3.89-3.994Zm-.5,26.453c0-2.271,1.488-3.368,4.595-4.36v-1.931a.619.619,0,1,0-1.227,0v1.227h-2.9v-.887c0-2.115,1.149-3.6,3.707-3.6a3.449,3.449,0,0,1,3.655,3.785v6.579c0,.418.157.626.522.653v2.245h-.6a2.433,2.433,0,0,1-2.454-1.645,2.666,2.666,0,0,1-2.611,1.645c-1.488,0-2.689-1.175-2.689-3.264Zm-7.908-34.807h4.647l2.977,17.386h-4.021l-.261-2.61h-2.376l-.365,2.61h-3.629Zm7.336,24.73v3.42a3.588,3.588,0,0,1-3.786,3.837h-1.671v6.317h-4.02V369.658h5.691A3.567,3.567,0,0,1,647.7,373.47Zm43.9,21.874H637.482V390H691.6Z" transform="translate(-519.353 -338.215)" fill="#2c345c"/>
    <path id="Path_41" data-name="Path 41" d="M1262.852,423.537a.771.771,0,0,0,.679-.835v-6.5a.771.771,0,0,0-.679-.835.755.755,0,0,0-.7.835v6.5A.755.755,0,0,0,1262.852,423.537Z" transform="translate(-1094.466 -397.95)" fill="#2c345c"/>
  </g>
  <path id="Path_42" data-name="Path 42" d="M999.191,724.9l-1.357.722-1.4,2.484h0l1.4-2.482,1.352-.721.563,3.2h0Z" transform="translate(-888.733 -637.606)" fill="#323232"/>
  <path id="Path_43" data-name="Path 43" d="M1318.948,649.384h0l-.64.6Z" transform="translate(-1137.948 -579.139)" fill="#323232"/>
  <path id="Path_44" data-name="Path 44" d="M1026.746,724.828h0l6.05-4.161Z" transform="translate(-912.205 -634.33)" fill="#323232"/>
  <path id="Path_45" data-name="Path 45" d="M1246.447,683.08l3.6,5.053v0l-3.6-5.051Z" transform="translate(-1082.309 -605.229)" fill="#323232"/>
  <path id="Path_46" data-name="Path 46" d="M1088.839,684.127l-1,.546,1-.544,9.854-1.938,4.4-1.642-4.4,1.639Z" transform="translate(-959.507 -603.27)" fill="#323232"/>
  <path id="Path_47" data-name="Path 47" d="M1157.381,680.6l10.065,3.586.879,1.279h0l-.878-1.28Z" transform="translate(-1013.35 -603.305)" fill="#323232"/>
  <path id="Path_48" data-name="Path 48" d="M1263.3,661.187l.177-5.166,2.922.589-2.924-.591Z" transform="translate(-1095.361 -584.277)" fill="#323232"/>
  <path id="Path_49" data-name="Path 49" d="M641.585,384.579l-1.964.893,1.965-.89Z" transform="translate(-612.471 -374.112)" fill="#323232"/>
  <path id="Path_50" data-name="Path 50" d="M875.777,655.729l-.164-.3-.521-1.5.52,1.5Z" transform="translate(-794.786 -582.659)" fill="#323232"/>
  <path id="Path_51" data-name="Path 51" d="M663.713,429.613l1.685,3.876,2.851,13.313v0l-2.85-13.314-1.684-3.877-.221-3.479-1.526-4.18,1.525,4.179Z" transform="translate(-629.773 -403.048)" fill="#323232"/>
  <path id="Path_52" data-name="Path 52" d="M719.881,479.379l-.252-.551-.15-.417.148.415Z" transform="translate(-674.301 -446.763)" fill="#323232"/>
  <path id="Path_53" data-name="Path 53" d="M576.722,510.631l3.712-6.059-3.714,6.059L575.4,516.4v0Z" transform="translate(-562.75 -467.019)" fill="#323232"/>
  <path id="Path_54" data-name="Path 54" d="M695.192,460.391l-2.321,12.446,2.323-12.445Z" transform="translate(-653.7 -432.811)" fill="#323232"/>
  <path id="Path_55" data-name="Path 55" d="M957.6,660.274l-2.443-4.545,2.441,4.546,3.273,10.192,1.548,4.052-1.546-4.055Z" transform="translate(-856.778 -584.052)" fill="#323232"/>
  <path id="Path_56" data-name="Path 56" d="M728.371,488.115l-1.175,1.7v0Z" transform="translate(-680.277 -454.276)" fill="#323232"/>
  <path id="Path_57" data-name="Path 57" d="M940.421,656.387l.61-.6-.613.6-1.261,11.839,0,0Z" transform="translate(-844.388 -584.097)" fill="#323232"/>
  <path id="Path_58" data-name="Path 58" d="M899.693,675.187l0,0-1.79,2.8-.5-.4.5.4Z" transform="translate(-812.061 -599.115)" fill="#323232"/>
  <path id="Path_59" data-name="Path 59" d="M765.68,557.172l-.847-8.055.846,8.06Z" transform="translate(-709.417 -501.507)" fill="#323232"/>
  <path id="Path_60" data-name="Path 60" d="M775.706,539.206l-1.034,2.286-1.589,4.888,1.592-4.889Z" transform="translate(-715.805 -493.834)" fill="#323232"/>
  <path id="Path_61" data-name="Path 61" d="M743.335,496.323l-2.1-4.549-1.914-1.266,1.912,1.267Z" transform="translate(-689.663 -456.129)" fill="#323232"/>
</svg>
