<svg id="_1" data-name="1" xmlns="http://www.w3.org/2000/svg" viewBox="0 0 415.53 44.9"><title>curva</title><path d="M408.88,24c-6.87.06-12.05-2.84-17-6.65-11.15-8.55-19.08-8.42-30.45,0-12.65,9.39-22.19,9.34-34.73-.19-10.81-8.22-18.94-8.09-29.8-.14a38.92,38.92,0,0,1-11.72,6.1c-9.26,2.69-17.11-.8-24.41-6.61-9.37-7.46-18.45-7.57-27.69,0-6.15,5.06-12.65,7.84-20.1,7.58,0,0-1.36-.1-2-.14a32.13,32.13,0,0,1-4.57-.82c-4.53-1.37-8.38-4.18-12.24-7.07a26.6,26.6,0,0,0-8.59-4.31c-7.06-2-13.29.18-18.92,4.68-5.35,4.28-11,7.69-18.33,7.75-7.79.06-13.65-3.77-19.3-8.37S117,9.66,110.34,12c-4.09,1.4-7.79,4.21-11.38,6.8-6.43,4.63-13.53,6.81-21.06,4.43C73,21.65,68.39,18.8,64.15,15.82,55.41,9.69,46.24,9.14,38,16S21.14,26.09,10.43,23.18L8,30.46c10.68,3,20.6,2.22,29-4.4,12.14-9.61,16-9,27.26-.09,7,5.55,15.36,7,24.23,5.66,7.43-1.12,13.25-5.15,19-9.62,5.36-4.2,10.43-4.2,16-.32,2.56,1.77,5,3.79,7.62,5.41,10.31,6.33,20.95,6.74,31.65,1.14a91.53,91.53,0,0,0,9.81-6.5c5.72-4,11.16-4,16.83.22,2.51,1.85,4.93,3.83,7.56,5.49a25.67,25.67,0,0,0,10.84,3.95l.38.07c10.57,1.91,19.74-1,28-7.66,8.51-6.83,12.26-6.72,20.89-.11.86.66,1.72,1.31,2.6,1.95,11.56,8.42,27.12,8.94,38.28.16,12.1-9.5,16.09-8.87,27.29,0,6.81,5.38,14.74,6.93,23.37,5.87,7.67-.94,13.59-5.05,19.42-9.53s11.45-4.56,17.44-.11c2.39,1.78,4.72,3.66,7.22,5.27a25.18,25.18,0,0,0,16.52,4.08C409.1,28.86,409,26.53,408.88,24Z" fill="#25a49e"/></svg>