<svg id="_1" data-name="1" xmlns="http://www.w3.org/2000/svg" xmlns:xlink="http://www.w3.org/1999/xlink" viewBox="0 0 320 320"><defs><style>.cls-1{fill:none;}.cls-2{clip-path:url(#clip-path);}.cls-3{fill:#99dcc6;}</style><clipPath id="clip-path"><path class="cls-1" d="M195.15,148c6.24-12.23,11.95-27.77,15.78-47.32C224.58,170.35,262.32,189,262.32,189a103.82,103.82,0,0,1-199.13,0s37.54-18.63,51.19-88.32c3.83,19.55,9.55,35.08,15.81,47.31h0c12.75-22.68,24.75-52.7,32.43-91.93,7.68,39.25,19.72,69.27,32.53,91.95Z"/></clipPath></defs><title>mdeagua</title><g class="cls-2"><path class="cls-3" d="M54.77,39.16l2.42-7.28c10.71,2.91,19.39-.51,27.55-7.24s17.43-6.25,26.17-.12c4.24,3,8.87,5.83,13.75,7.37,7.54,2.38,14.63.2,21.06-4.44,3.59-2.58,7.29-5.39,11.38-6.79,6.69-2.3,13.11-.61,18.65,3.91s11.51,8.43,19.31,8.37c7.28-.06,13-3.48,18.32-7.75,5.63-4.5,11.86-6.66,18.92-4.68a26.6,26.6,0,0,1,8.59,4.31C246.49,29,252,33,259.71,32.75v7.39a24.59,24.59,0,0,1-16-4c-2.63-1.66-5.05-3.64-7.56-5.49-5.67-4.18-11.11-4.22-16.83-.22a92.41,92.41,0,0,1-9.8,6.5c-10.7,5.6-21.35,5.18-31.66-1.14-2.65-1.63-5.06-3.64-7.62-5.41-5.62-3.88-10.69-3.88-16,.31-5.71,4.48-11.53,8.51-19,9.63-8.88,1.33-17.23-.11-24.24-5.66-11.22-8.89-15.11-9.52-27.26.08C75.36,41.38,65.44,42.21,54.77,39.16Z"/><path class="cls-3" d="M54.89,66l2.27-7c10.33,2.64,18.8-.13,26.7-6.62,9.24-7.6,18.31-7.49,27.69,0,7.29,5.82,15.14,9.31,24.4,6.62a39,39,0,0,0,11.72-6.11c10.86-8,19-8.07,29.8.15,12.55,9.53,22.08,9.58,34.73.18,11.38-8.45,19.3-8.57,30.45,0,5,3.81,10.16,6.71,17,6.65.12,2.52.22,4.84.34,7.37a25.08,25.08,0,0,1-16.52-4.08c-2.5-1.61-4.83-3.49-7.22-5.27-6-4.45-11.53-4.41-17.44.12s-11.75,8.59-19.41,9.53c-8.64,1-16.57-.49-23.37-5.88-11.21-8.86-15.2-9.5-27.29,0-11.17,8.77-26.73,8.25-38.29-.16-.87-.64-1.74-1.29-2.6-1.95-8.63-6.62-12.38-6.73-20.89.1-8.29,6.65-17.47,9.57-28,7.66a24,24,0,0,1-2.38-.51A13.76,13.76,0,0,1,54.89,66Z"/><path class="cls-3" d="M54.79,94.8l2.3-7.1c2,.3,3.67.69,5.39.8a27.3,27.3,0,0,0,19.59-6.3c11.38-9.22,19.43-9.18,31-.27,11.23,8.66,22.4,8.7,33.84.14,1.3-1,2.55-2,3.88-3a20.42,20.42,0,0,1,23.61,0c2.53,1.81,4.86,3.93,7.5,5.57,7.86,4.91,16.05,5.41,24.28,1a69.91,69.91,0,0,0,8.06-5.45c8.56-6.31,17.77-6.46,26.25-.13,5.68,4.24,11.16,8.77,19.16,8.28v7.45a24.33,24.33,0,0,1-15.89-4c-2.86-1.8-5.47-4-8.22-6-5.08-3.67-10.65-3.71-15.83-.11-2.34,1.63-4.56,3.42-7,4.94-12.81,8.06-25.64,7.56-37.84-1.42-1.42-1-2.8-2.15-4.22-3.19-5.56-4.09-10.94-4.19-16.37.11-6,4.76-12.25,8.89-20.17,9.76-10.5,1.15-19.34-2.3-27.36-8.92-6.49-5.37-11.58-5.18-18.3-.07-1.62,1.23-3.18,2.53-4.87,3.67C74.85,96.59,65.37,97.63,54.79,94.8Z"/><path class="cls-3" d="M54.77,121.69l2.42-7.28c10.71,2.91,19.39-.51,27.55-7.24s17.43-6.25,26.17-.12c4.24,3,8.87,5.83,13.75,7.37,7.54,2.38,14.63.2,21.06-4.44,3.59-2.58,7.29-5.39,11.38-6.8,6.69-2.29,13.11-.6,18.65,3.92s11.51,8.43,19.31,8.37c7.28-.06,13-3.48,18.32-7.75,5.63-4.5,11.86-6.66,18.92-4.68a26.6,26.6,0,0,1,8.59,4.31c5.6,4.19,11.15,8.21,18.82,7.93v7.39a24.65,24.65,0,0,1-16-4c-2.63-1.66-5.05-3.65-7.56-5.49C230.46,109,225,109,219.3,113a92.41,92.41,0,0,1-9.8,6.5c-10.7,5.6-21.35,5.18-31.66-1.14-2.65-1.63-5.06-3.64-7.62-5.41-5.62-3.88-10.69-3.88-16,.31-5.71,4.48-11.53,8.51-19,9.63-8.88,1.33-17.23-.11-24.24-5.66-11.22-8.89-15.11-9.52-27.26.08C75.36,123.91,65.44,124.74,54.77,121.69Z"/><path class="cls-3" d="M54.89,148.55l2.27-7c10.33,2.65,18.8-.12,26.7-6.61,9.24-7.6,18.31-7.49,27.69,0,7.29,5.82,15.14,9.31,24.4,6.62a39,39,0,0,0,11.72-6.11c10.86-8,19-8.07,29.8.14,12.55,9.54,22.08,9.59,34.73.19,11.38-8.45,19.3-8.57,30.45,0,5,3.82,10.16,6.72,17,6.65.12,2.53.22,4.85.34,7.38a25.14,25.14,0,0,1-16.52-4.08c-2.5-1.61-4.83-3.49-7.22-5.27-6-4.45-11.53-4.42-17.44.12s-11.75,8.59-19.41,9.53c-8.64,1.05-16.57-.49-23.37-5.88-11.21-8.86-15.2-9.5-27.29,0-11.17,8.77-26.73,8.25-38.29-.17-.87-.63-1.74-1.28-2.6-1.94-8.63-6.62-12.38-6.73-20.89.1-8.29,6.65-17.47,9.57-28,7.66a21.47,21.47,0,0,1-2.38-.52A12.15,12.15,0,0,1,54.89,148.55Z"/><path class="cls-3" d="M54.79,177.33l2.3-7.1c2,.3,3.67.69,5.39.8a27.3,27.3,0,0,0,19.59-6.3c11.38-9.22,19.43-9.18,31-.27,11.23,8.66,22.4,8.7,33.84.14,1.3-1,2.55-2,3.88-3a20.42,20.42,0,0,1,23.61.05c2.53,1.81,4.86,3.92,7.5,5.57,7.86,4.91,16.05,5.41,24.28,1a69.91,69.91,0,0,0,8.06-5.45c8.56-6.31,17.77-6.46,26.25-.13,5.68,4.24,11.16,8.77,19.16,8.28v7.45a24.33,24.33,0,0,1-15.89-4c-2.86-1.8-5.47-4-8.22-6-5.08-3.67-10.65-3.72-15.83-.11-2.34,1.63-4.56,3.42-7,4.94-12.81,8.06-25.64,7.56-37.84-1.42-1.42-1.05-2.8-2.15-4.22-3.19-5.56-4.09-10.94-4.19-16.37.11-6,4.76-12.25,8.89-20.17,9.75-10.5,1.16-19.34-2.29-27.36-8.91-6.49-5.37-11.58-5.18-18.3-.07-1.62,1.23-3.18,2.53-4.87,3.67C74.85,179.12,65.37,180.16,54.79,177.33Z"/><path class="cls-3" d="M54.77,204.22l2.42-7.28c10.71,2.91,19.39-.51,27.55-7.24s17.43-6.26,26.17-.12c4.24,3,8.87,5.83,13.75,7.37,7.54,2.38,14.63.2,21.06-4.44,3.59-2.58,7.29-5.39,11.38-6.8,6.69-2.29,13.11-.6,18.65,3.91s11.51,8.44,19.31,8.38c7.28-.06,13-3.48,18.32-7.75,5.63-4.5,11.86-6.66,18.92-4.68a26.6,26.6,0,0,1,8.59,4.31c5.6,4.19,11.15,8.21,18.82,7.92v7.39a24.58,24.58,0,0,1-16-4c-2.63-1.66-5.05-3.65-7.56-5.49-5.67-4.18-11.11-4.22-16.83-.22a92.41,92.41,0,0,1-9.8,6.5c-10.7,5.59-21.35,5.18-31.66-1.14-2.65-1.63-5.06-3.64-7.62-5.41-5.62-3.88-10.69-3.88-16,.31-5.71,4.47-11.53,8.51-19,9.63-8.88,1.33-17.23-.11-24.24-5.67-11.22-8.88-15.11-9.51-27.26.09C75.36,206.44,65.44,207.27,54.77,204.22Z"/><path class="cls-3" d="M54.89,231.08l2.27-7c10.33,2.65,18.8-.13,26.7-6.62,9.24-7.59,18.31-7.48,27.69,0,7.29,5.81,15.14,9.31,24.4,6.62a39,39,0,0,0,11.72-6.11c10.86-7.95,19-8.07,29.8.14,12.55,9.54,22.08,9.59,34.73.19,11.38-8.45,19.3-8.57,30.45,0,5,3.82,10.16,6.72,17,6.65.12,2.53.22,4.85.34,7.38a25.14,25.14,0,0,1-16.52-4.08c-2.5-1.61-4.83-3.49-7.22-5.27-6-4.45-11.53-4.42-17.44.12s-11.75,8.59-19.41,9.52c-8.64,1.06-16.57-.48-23.37-5.87-11.21-8.86-15.2-9.5-27.29,0-11.17,8.77-26.73,8.25-38.29-.17-.87-.63-1.74-1.28-2.6-1.94-8.63-6.62-12.38-6.73-20.89.1-8.29,6.65-17.47,9.57-28,7.66a24,24,0,0,1-2.38-.52A13.49,13.49,0,0,1,54.89,231.08Z"/><path class="cls-3" d="M54.79,259.86l2.3-7.1c2,.3,3.67.69,5.39.8a27.27,27.27,0,0,0,19.59-6.31c11.38-9.21,19.43-9.18,31-.26,11.23,8.66,22.4,8.7,33.84.13,1.3-1,2.55-2,3.88-3a20.42,20.42,0,0,1,23.61.05c2.53,1.81,4.86,3.92,7.5,5.57,7.86,4.91,16.05,5.41,24.28,1a69.91,69.91,0,0,0,8.06-5.45c8.56-6.31,17.77-6.46,26.25-.13,5.68,4.24,11.16,8.76,19.16,8.28v7.45a24.33,24.33,0,0,1-15.89-4c-2.86-1.81-5.47-4-8.22-6-5.08-3.68-10.65-3.72-15.83-.11-2.34,1.62-4.56,3.42-7,4.93-12.81,8.07-25.64,7.57-37.84-1.42-1.42-1-2.8-2.14-4.22-3.18-5.56-4.09-10.94-4.19-16.37.11-6,4.76-12.25,8.89-20.17,9.75-10.5,1.16-19.34-2.29-27.36-8.91-6.49-5.37-11.58-5.18-18.3-.07-1.62,1.23-3.18,2.53-4.87,3.67C74.85,261.65,65.37,262.69,54.79,259.86Z"/></g><path class="cls-3" d="M193.58,149.91c6.81-12.17,13.2-28.25,17.31-49.22,4.1,20.94,10.5,37,17.33,49.17h0a15,15,0,0,1-9.94-2.36c-1.3-.8-2.47-1.78-3.73-2.64-2.74-1.9-5.22-1.9-7.83.15-2.79,2.18-5.63,4.16-9.26,4.7a18.92,18.92,0,0,1-3.88.2Z"/><path class="cls-3" d="M97.08,149.83c6.81-12.17,13.2-28.25,17.31-49.22,4.1,20.94,10.5,37,17.33,49.16h0a15,15,0,0,1-9.94-2.36c-1.3-.8-2.47-1.78-3.73-2.65-2.74-1.89-5.22-1.89-7.83.16-2.79,2.18-5.63,4.15-9.26,4.7a18.92,18.92,0,0,1-3.88.2Z"/><path class="cls-3" d="M130.43,147.48C143.09,124.86,155,95,162.61,56c7.62,38.91,19.51,68.75,32.2,91.36h0c-6.24.8-12.43-.66-18.48-4.38-2.4-1.47-4.59-3.3-6.91-4.91-5.1-3.52-9.71-3.52-14.57.29-5.18,4.06-10.46,7.72-17.2,8.73a34.68,34.68,0,0,1-7.22.37Z"/><path class="cls-3" d="M33,146.75a3.81,3.81,0,0,1,0,.94,2.78,2.78,0,0,1-.14,1c-.15.27-.45.44-.68.71s-.46.44-.8.57-.43.21-.85.37a8.3,8.3,0,0,1-1,.19c-.42.17-.43.25-.85.41s-.43.2-.86.37-.46.12-.89.28a7.41,7.41,0,0,0-.86.41c-.42.16-.49,0-.92.19s-.44.29-.86.45l-.85.33-.9.36c-.43.16-.45,0-.88.2a2.48,2.48,0,0,0-.74.46c-.27.22-.29.42.06.58a4.64,4.64,0,0,0,.85.12c.41,0,.4.09.85.13s.5,0,.94,0,.43.25.92.29.45,0,.85,0,.46,0,.94.05.45.08.89.13.45,0,.86,0,.47.17.92.21.46-.07.94,0,.44.17.89.21.42-.12.91-.07l.89.09c.49.05.47.21.92.25s.46-.12.86-.08l.94.09c.44,0,.44.13.88.17s.48.13.89.17.46-.08.9,0a7.38,7.38,0,0,1,.89.12c.23.15.46.38.65.52a2.49,2.49,0,0,1,.55.63,2.11,2.11,0,0,1,.41.82,4.91,4.91,0,0,1,0,.86,6.22,6.22,0,0,1-.28.79,2.29,2.29,0,0,1-.52.64c-.18.19-.33.5-.55.6a1.8,1.8,0,0,1-.84.25,2.17,2.17,0,0,1-.84.16c-.44,0-.43-.16-.88-.21s-.48-.08-.93-.13-.45,0-.93,0l-.9-.09c-.45,0-.44-.08-.93-.13s-.45,0-.9-.05-.4-.08-.88-.12-.46.07-.91,0-.47-.21-.92-.25-.45,0-.89-.05-.49-.09-.93-.13-.47.11-.95.07-.44-.17-.88-.21-.46.08-.95,0-.43-.17-.88-.21-.49,0-.94-.05-.44-.09-.93-.14-.45,0-.89,0-.45-.09-.93-.13-.45,0-.9-.05l-.93-.09c-.45-.05-.46.08-.95,0s-.39-.21-.84-.25-.45,0-.89,0-.5,0-.94,0l-.94-.09c-.44,0-.45,0-.9,0s-.48-.09-.92-.14S11.48,159,11,159s-.48-.08-.93-.13-.44-.08-.93-.13-.45,0-.9-.05-.49.08-.94,0c-.28,0-.55-.22-.83-.28a3,3,0,0,1-.68-.6,2.22,2.22,0,0,1-.55-.67,7.26,7.26,0,0,1-.34-.77,3.76,3.76,0,0,1,.1-.94,3.14,3.14,0,0,1,.24-.83,4.84,4.84,0,0,1,.64-.64,1.9,1.9,0,0,1,.73-.38c.43-.16.4-.32.83-.49s.45,0,.88-.16.47-.2.89-.36.36-.29.78-.46.5,0,.92-.15.43-.25.86-.41l.85-.33.81-.33.85-.32c.43-.17.47-.12.89-.28l.85-.33c.43-.16.43-.12.85-.29s.39-.2.82-.37l.85-.32c.42-.17.47-.16.93-.32s.42-.08.84-.25.43-.12.85-.28a7,7,0,0,1,.86-.37,2,2,0,0,0,.84-.65.79.79,0,0,0,.13-.93,1.72,1.72,0,0,0-.83-.66,8.21,8.21,0,0,0-.78-.48c-.38-.25-.38-.25-.76-.53s-.3-.28-.69-.52l-.81-.49c-.39-.24-.38-.28-.77-.52s-.44-.17-.82-.41l-.77-.49c-.39-.24-.39-.28-.77-.52s-.34-.28-.73-.53-.38-.28-.77-.52l-.77-.49a8.09,8.09,0,0,1-.77-.48l-.77-.49c-.39-.24-.47-.21-.86-.45s-.3-.32-.68-.56l-.81-.53c-.39-.24-.39-.2-.78-.45s-.43-.2-.81-.45a8.3,8.3,0,0,1-.69-.55,4,4,0,0,1-.36-.86c-.06-.25-.23-.55-.29-.85a2.68,2.68,0,0,1,.25-.83,2,2,0,0,1,.48-.78c.19-.22.3-.54.6-.63a2.18,2.18,0,0,1,.82-.41,3,3,0,0,1,.9,0c.45.05.44.12.93.17s.44.09.89.13.49,0,.94,0,.44.09.93.13.45,0,.9,0,.45,0,.94,0,.43.21.88.25l.93.09c.45,0,.45,0,.94,0s.45,0,.9.06.45,0,.94,0,.44.13.84.16l.93.09c.45,0,.44.12.89.17s.48.09.93.13.45,0,.9,0,.48.08.93.13l.93.09c.45,0,.45.08.89.13s.46-.08.95,0,.44.08.89.14.48.12.92.17.46,0,.94,0,.45.08.89.13.46,0,1,0l.89.09c.49,0,.48.12.92.17s.45,0,.86,0,.49,0,.94.06.44.09.89.13.49,0,.93,0,.45.09.93.13.45,0,.9,0a3.06,3.06,0,0,1,.88.17,3.5,3.5,0,0,1,.64.59,2.25,2.25,0,0,1,.56.55,3.62,3.62,0,0,1,.25.84,2.44,2.44,0,0,1,.12.84,2,2,0,0,1-.24.79c-.14.23-.37.42-.51.65a4.45,4.45,0,0,1-.59.56,1.72,1.72,0,0,1-.8.2,1.72,1.72,0,0,1-.83.09c-.44-.05-.44-.09-.89-.13s-.5.15-.95.11l-.93-.09c-.45,0-.44-.09-.89-.13s-.44-.12-.93-.17l-.89-.09c-.41,0-.4-.08-.89-.13s-.46.12-.91.08-.47-.17-.92-.21-.46,0-.9,0S30,139,29.59,139s-.46.08-.94,0-.43-.24-.87-.29-.51.16-1,.1-.43-.2-.88-.25l-.93-.09-.93-.09-.9-.09a2.55,2.55,0,0,0-.82,0c-.38.09-.57.4-.27.68a2.71,2.71,0,0,0,.65.51c.38.24.38.28.72.52a5.89,5.89,0,0,1,.78.45c.39.24.39.2.77.44s.48.13.87.37.25.4.63.64l.74.48a8.57,8.57,0,0,0,.77.45c.39.24.34.28.73.52a6.39,6.39,0,0,0,.78.4,6.66,6.66,0,0,1,.82.37c.39.24.35.28.73.52s.29.4.68.64a2.12,2.12,0,0,1,.8.53A3.1,3.1,0,0,1,33,146.75Z"/><path class="cls-3" d="M32.82,103.42c-.28-.17-.54-.28-.81-.48s-.54-.36-.8-.56l-.66-.57-.62-.8-.66-.57a7.19,7.19,0,0,1-.71-.65c-.2-.21-.4-.52-.57-.71l-.48-.8a4.06,4.06,0,0,1-.56-.75c-.16-.28-.37-.5-.57-.8s-.14-.56-.25-.86a3.61,3.61,0,0,1-.48-.8,5,5,0,0,1-.4-.85,9,9,0,0,1-.29-.88l-.27-.91c-.05-.32,0-.6,0-1s-.3-.55-.32-.85.14-.63.11-1v-.89a4.63,4.63,0,0,0,.09-.89c.06-.35,0-.68,0-.94s.17-.6.26-.93a6.44,6.44,0,0,1,.28-.88,6,6,0,0,1,.34-.83c.17-.29.24-.57.4-.86s.42-.46.56-.71.28-.55.46-.77.48-.43.72-.67a4.65,4.65,0,0,1,.64-.62,3.15,3.15,0,0,1,.75-.55,2.62,2.62,0,0,1,.75-.56l.8-.47a7.7,7.7,0,0,1,.81-.43c.27-.13.63-.1.93-.21s.58-.18.86-.26.53-.35.88-.38a7.37,7.37,0,0,1,.95,0c.28-.07.57-.09.89-.14a3.43,3.43,0,0,0,.94-.16l.92,0a3.9,3.9,0,0,1,.92.11,8.9,8.9,0,0,1,.9,0,6.83,6.83,0,0,1,.92.2c.34.06.66,0,.91.06a8.83,8.83,0,0,1,.91.3,5.35,5.35,0,0,1,1,.08,3.43,3.43,0,0,1,.89.33c.3.13.55.27.85.4a6.16,6.16,0,0,1,.91.15c.24.15.54.37.82.53a6.2,6.2,0,0,1,.84.35c.32.09.51.34.79.51l.81.47c.23.18.55.27.77.45s.45.45.71.65.59.3.85.5.31.51.57.71.45.45.64.61.6.35.78.6a3.41,3.41,0,0,1,.56.75l.54.69c.2.31.51.49.66.72a8.9,8.9,0,0,1,.48.8,8.32,8.32,0,0,1,.5.76,2.78,2.78,0,0,1,.46.84c.16.28.08.66.27.91s.33.48.48.8a8.76,8.76,0,0,0,.21.93c.08.28.07.61.15.89s.31.6.38.88l.08.9c0,.33,0,.64,0,.93s.09.67.07.94a5.5,5.5,0,0,1-.21.92A4.93,4.93,0,0,1,58,98l-.17.94c-.11.27-.21.53-.31.86s-.11.59-.24.89-.45.45-.6.7-.27.55-.43.83-.35.51-.53.73a3.75,3.75,0,0,1-.6.79,4.24,4.24,0,0,1-.64.61,5.87,5.87,0,0,1-.76.5c-.29.16-.45.45-.7.63a9.08,9.08,0,0,0-.88.29,5.25,5.25,0,0,1-.83.46c-.27.13-.58.18-.9.33a5.27,5.27,0,0,1-.86.25c-.28.08-.59.13-.89.23s-.63.11-.93.13-.6.22-.87.29l-.93,0c-.3,0-.62-.08-.92-.06a8.64,8.64,0,0,1-.93,0,5.12,5.12,0,0,1-.94-.08c-.31,0-.63.11-.94.07s-.57-.24-.91-.3-.62-.07-.91-.15a2.75,2.75,0,0,1-.88-.27,4.74,4.74,0,0,1-.94-.17c-.3-.13-.52-.31-.83-.44s-.63-.13-.89-.24a3.78,3.78,0,0,1-.86-.41c-.26-.11-.48-.37-.77-.45s-.52-.4-.77-.54-.61-.17-.89-.34S33.05,103.59,32.82,103.42ZM44,84.32c-.33-.1-.56-.42-.79-.51l-.86-.31c-.33-.1-.69-.12-1-.23l-.89-.09a3.86,3.86,0,0,0-.93-.27c-.31,0-.66,0-.91,0s-.63-.14-.93-.12-.59.13-.9.09-.66,0-1,0a5.75,5.75,0,0,0-.86.35c-.28.08-.58.09-.88.2s-.59.13-.87.29a2.22,2.22,0,0,0-.7.63,3.88,3.88,0,0,0-.84.46,6.85,6.85,0,0,0-.5.7,4,4,0,0,0-.63.67,8.26,8.26,0,0,0-.4.85,3.15,3.15,0,0,0-.15.91,6.44,6.44,0,0,0-.28.88c0,.29.13.59.13.92s-.08.62-.05,1a4.57,4.57,0,0,0,.2.88c.07.28.35.53.46.83a8.15,8.15,0,0,0,.25.86c.17.28.22.6.38.88s.41.43.6.68a5.87,5.87,0,0,0,.51.82c.15.23.38.41.6.68s.43.39.62.64.3.61.56.81a7.68,7.68,0,0,0,.76.49,6.94,6.94,0,0,0,.73.61c.22.18.44.45.67.63s.61.17.89.33a7.16,7.16,0,0,0,.83.44,7.57,7.57,0,0,0,.76.49c.3.13.61.17.91.29s.53.31.8.42a7.09,7.09,0,0,0,.93.26,6.38,6.38,0,0,0,.89.19l.91.2A8.73,8.73,0,0,0,44,102a2.91,2.91,0,0,0,.93.26c.29,0,.66-.08,1-.1a3.51,3.51,0,0,0,.87-.11,4.87,4.87,0,0,0,.89-.32c.28-.08.56-.15.86-.26a9,9,0,0,0,.9-.23,3.07,3.07,0,0,0,.71-.58c.3-.2.62-.25.87-.43a7.57,7.57,0,0,0,.52-.74,3.48,3.48,0,0,0,.61-.73,6,6,0,0,0,.42-.79,5.57,5.57,0,0,0,.28-.88c0-.31.11-.6.14-1s-.13-.59-.15-.89a3.09,3.09,0,0,0,0-.91l-.12-.93a6.3,6.3,0,0,0-.33-.9,4.48,4.48,0,0,0-.31-.84c-.11-.3-.43-.48-.59-.77s-.2-.54-.37-.83a5.76,5.76,0,0,0-.61-.73,8.89,8.89,0,0,0-.5-.77,7.69,7.69,0,0,1-.67-.62c-.26-.2-.37-.5-.61-.74s-.55-.27-.77-.45a4.21,4.21,0,0,0-.73-.62c-.23-.18-.45-.44-.67-.62s-.55-.37-.79-.51-.55-.27-.84-.44S44.24,84.43,44,84.32Z"/><path class="cls-3" d="M83.69,48.7c-.3-.39-.26-.42-.53-.77l-.56-.76c-.25-.32-.31-.28-.58-.63s-.24-.39-.53-.78-.14-.46-.38-.79-.3-.33-.57-.69-.26-.42-.53-.78-.28-.3-.54-.66-.4-.32-.66-.68-.17-.43-.42-.76-.26-.42-.53-.78-.43-.24-.72-.63-.21-.35-.48-.71-.14-.46-.41-.82-.32-.37-.57-.69-.36-.29-.63-.65l-.56-.75c-.25-.33-.12-.43-.38-.79a5.41,5.41,0,0,1-.54-.72,3.25,3.25,0,0,1-.15-.8l.12-.8a4.28,4.28,0,0,1,.48-.72,2.75,2.75,0,0,1,.59-.59c.19-.14.4-.4.67-.45a3.1,3.1,0,0,1,.83-.26,4.3,4.3,0,0,1,.85.18,2.41,2.41,0,0,1,.71.48,1.66,1.66,0,0,1,.65.54c.27.36.21.41.48.76l.56.76c.27.36.2.41.47.77s.46.27.72.63.21.4.5.8.21.35.48.71.2.41.5.8.33.32.6.67.33.31.63.71.23.38.5.74.32.37.59.73.3.33.6.72.1.49.37.85.4.26.69.65.24.38.51.75.19.46.46.82.4.26.69.66l.54.71c.27.37.2.41.5.81s.2.41.47.76.45.28.72.64.15.4.42.76.39.32.65.68.17.43.44.79.23.44.5.8.4.26.69.65l.54.72.56.76c.27.36.23.38.5.74l.57.75c.26.36.33.31.62.71s.17.43.44.79l.56.75a3.25,3.25,0,0,1,.45.74,2.45,2.45,0,0,1,0,.81,1.76,1.76,0,0,1-.13.86,1.68,1.68,0,0,1-.26.81,2.32,2.32,0,0,1-.57.47,3.07,3.07,0,0,1-.76.47,2.88,2.88,0,0,1-1,0,2.59,2.59,0,0,1-.84-.24c-.41-.21-.49,0-.87-.22l-.91-.33c-.42-.15-.35-.26-.75-.46l-.92-.34c-.38-.17-.42-.09-.86-.27s-.37-.29-.78-.49-.44-.13-.89-.31-.4-.2-.81-.41a4.79,4.79,0,0,1-.9-.24c-.44-.19-.44-.19-.84-.39a4.77,4.77,0,0,1-.79-.44c-.44-.18-.51-.07-.93-.22s-.33-.31-.8-.46-.47,0-.88-.22-.39-.32-.83-.5-.43,0-.87-.22a6.76,6.76,0,0,1-.83-.5,7.59,7.59,0,0,1-.84-.23c-.41-.21-.43-.3-.83-.5s-.47,0-.91-.19-.4-.27-.78-.44L74.63,53l-.86-.33a6,6,0,0,1-.88-.3c-.44-.18-.37-.29-.78-.49a2.1,2.1,0,0,0-.86-.13c-.4,0-.49.17-.33.51a1.46,1.46,0,0,0,.29.8c.27.36.34.31.58.64l.56.75.56.75c.25.33.21.35.48.72s.24.38.51.74.32.37.57.69.17.44.43.8.39.32.66.67.28.31.55.67.16.49.43.85.37.29.61.61.26.42.53.78l.54.72.53.72c.27.36.2.41.47.77s.36.34.6.67.34.31.61.67L81,66l.51.69.56.75c.15.2.13.51.27.77a1.44,1.44,0,0,1,.14.81,1.48,1.48,0,0,1,0,.88c-.06.25-.33.45-.53.65a1.8,1.8,0,0,1-.58.59,3,3,0,0,1-.65.48,7.23,7.23,0,0,1-.81.15,4.16,4.16,0,0,1-.84-.09,3.09,3.09,0,0,1-.81-.41,2.9,2.9,0,0,1-.49-.66l-.56-.75c-.27-.36-.24-.38-.51-.74s-.39-.32-.65-.68-.31-.34-.6-.73L75,67c-.26-.36-.23-.38-.52-.78s-.21-.41-.48-.77l-.56-.75c-.26-.36-.36-.29-.66-.68s-.23-.38-.5-.74-.17-.43-.46-.83-.37-.28-.64-.64-.31-.28-.6-.67-.14-.46-.41-.82-.36-.35-.62-.71-.17-.43-.44-.79-.43-.29-.69-.65-.14-.46-.43-.85l-.54-.72-.56-.76c-.27-.36-.37-.28-.64-.64l-.56-.75c-.27-.36-.2-.41-.5-.8s-.33-.31-.6-.68L64,52.25c-.27-.36-.2-.41-.47-.76s-.36-.35-.63-.71-.17-.43-.46-.83-.28-.3-.55-.66l-.56-.75c-.26-.36-.36-.29-.63-.64s-.17-.44-.47-.83-.33-.32-.6-.68a6.25,6.25,0,0,1-.44-.79,3.07,3.07,0,0,1-.08-.86,2.9,2.9,0,0,1,.19-.84,2.07,2.07,0,0,1,.4-.76,5.52,5.52,0,0,1,.55-.62,3,3,0,0,1,.81-.35,5.43,5.43,0,0,1,.87-.14,4.54,4.54,0,0,1,.82.36l.86.33.81.4c.42.15.49.05.93.23l.82.41c.39.11.41.2.8.32a9.61,9.61,0,0,0,.87.42,5.05,5.05,0,0,0,.88.36c.41.2.44,0,.88.21s.37.23.81.41.45.13.86.33l.85.33c.41.21.43.24.82.41s.4.26.84.45a9.51,9.51,0,0,1,.93.22l.79.37a9.52,9.52,0,0,1,.84.45c.41.15.45.06.93.22s.33.31.74.52a5.47,5.47,0,0,1,.85.32c.45.13.49.1.88.22a7.74,7.74,0,0,0,.81.41,4.16,4.16,0,0,1,.86.33,4.43,4.43,0,0,1,.89.3c.44.18.41.21.85.39s.36.29.83.5a6.11,6.11,0,0,0,.81.21c.41,0,.51-.28.41-.62a2.3,2.3,0,0,0-.41-.76c-.27-.36-.34-.31-.6-.67S83.93,49,83.69,48.7Z"/><path class="cls-3" d="M112.77,13.53c.44-.11.45-.07.92-.2s.42-.15.86-.26.4-.24.83-.35l.83-.22c.48-.13.51,0,.94-.13s.41-.19.85-.3.46,0,.86-.11.38-.31.85-.44.49.09.92,0,.38-.31.78-.42.48.09,1,0,.39-.27.82-.38l.87-.23c.4-.11.41-.07.84-.18s.49-.05.93-.17l.86-.23.83-.21c.44-.12.45-.08.92-.21l.87-.23c.43-.11.39-.27.82-.39s.43,0,.86-.09a4.54,4.54,0,0,1,.82-.1,3.22,3.22,0,0,1,.88.11,5.92,5.92,0,0,1,.73.4,2.61,2.61,0,0,1,.6.64c.18.2.17.5.26.82a6.66,6.66,0,0,1,.17.8,1.93,1.93,0,0,1-.19.89,8.09,8.09,0,0,1-.44.71,6.59,6.59,0,0,1-.61.58,6,6,0,0,1-.85.31c-.43.12-.41.19-.84.31l-.87.23c-.44.11-.47,0-.94.12s-.44.24-.88.36l-.9.24c-.32.09-.7.06-1,.25a2.41,2.41,0,0,0-.58.83,2.14,2.14,0,0,0-.34.94,2,2,0,0,0,0,1l.24.9.23.87.25.95c.12.43.24.4.36.87s0,.46.15.89,0,.51.12.94.2.41.31.84,0,.5.17.93.15.43.27.9.08.44.2.88l.25.95.24.9c.11.44.23.41.35.84l.24.91c.11.43,0,.46.11.89s.2.46.32.89,0,.46.16.93.19.41.31.85.09.52.21.95.07.45.2.92.16.42.27.86l.24.9c.12.44.2.42.31.85s0,.49.16.93.16.42.28.89.08.45.19.88.22.5.33.93a5.37,5.37,0,0,1,0,.83,6.46,6.46,0,0,1-.15.84,2,2,0,0,1-.51.64,2.51,2.51,0,0,1-.51.61,3,3,0,0,1-.77.28,2.59,2.59,0,0,1-.84.18,3,3,0,0,1-.81-.2,1.51,1.51,0,0,1-.66-.55,1.7,1.7,0,0,1-.57-.56,5.38,5.38,0,0,1-.39-.7c-.12-.43-.24-.4-.37-.92l-.23-.86c-.13-.48,0-.5-.17-.93s-.19-.42-.31-.89l-.23-.86c-.12-.44,0-.47-.13-.94s-.07-.45-.19-.88l-.24-.91c-.13-.51-.21-.49-.33-.92s-.19-.42-.31-.85,0-.51-.12-.94-.15-.42-.28-.9,0-.46-.11-.9l-.24-.9c-.12-.44-.2-.41-.31-.85s-.09-.48-.2-.92-.22-.49-.33-.92-.08-.45-.19-.88-.25-.44-.36-.88l-.24-.9c-.12-.44,0-.47-.11-.9l-.24-.91c-.12-.43-.24-.4-.35-.83s0-.52-.09-1-.21-.5-.32-.93,0-.46-.12-.9l-.24-.91a2.54,2.54,0,0,0-.46-.93,2.17,2.17,0,0,0-.82-.54,3.8,3.8,0,0,0-.88-.48,2.64,2.64,0,0,0-1,.26c-.47.12-.49.05-1,.17l-.86.23c-.52.14-.5.21-.93.33s-.47,0-1,.13-.4.23-.83.35a1.92,1.92,0,0,1-.86-.07,2,2,0,0,1-.78-.21,1.92,1.92,0,0,1-.73-.36,2.3,2.3,0,0,1-.54-.62A3.66,3.66,0,0,1,110,17a2.37,2.37,0,0,1,0-.85,4.47,4.47,0,0,1,.12-.84,2.93,2.93,0,0,1,.34-.76c.15-.25.47-.29.72-.49a2.62,2.62,0,0,1,.72-.44,2.94,2.94,0,0,1,.86-.1Z"/><path class="cls-3" d="M160.88,39.57a3,3,0,0,1-.24-.84,2.72,2.72,0,0,1,0-.86,4.85,4.85,0,0,1,.32-.79c.2-.39.25-.39.44-.78a8.2,8.2,0,0,1,.5-.85c.15-.4,0-.45.28-.88l.37-.82c.2-.48.28-.39.48-.82a6.18,6.18,0,0,0,.33-.87l.4-.82c.21-.48.29-.39.53-.81s.09-.49.29-.88.24-.39.44-.82.25-.43.41-.86.36-.34.56-.77l.37-.82c.21-.48.05-.53.25-.92s.16-.44.4-.83.33-.38.48-.77l.42-.9c.24-.39.12-.44.32-.84s.28-.38.49-.81.31-.34.52-.81a6.27,6.27,0,0,0,.41-.82c.24-.39.12-.44.32-.87a5.92,5.92,0,0,1,.49-.82c.21-.43.05-.49.29-.87s.24-.39.41-.87.32-.38.48-.77a9.06,9.06,0,0,0,.29-.88,9.52,9.52,0,0,0,.45-.86l.48-.77a7.64,7.64,0,0,0,.32-.87c.25-.39.4-.33.6-.72s0-.53.22-1,.24-.39.44-.78.28-.38.49-.81.08-.48.33-.91a7.26,7.26,0,0,1,.5-.57,1.66,1.66,0,0,1,.74-.42,1.91,1.91,0,0,1,.68-.31c.25-.06.51-.24.76-.21l.08,0a1.78,1.78,0,0,1,.76.24,2.09,2.09,0,0,1,.65.47,1.72,1.72,0,0,1,.47.66,3.73,3.73,0,0,1,.47.7c.08.42,0,.41.16.91s0,.46.16.88.21.43.34.85.11.46.28.89,0,.49.16.91.16.43.29.89a7.1,7.1,0,0,0,.16.88c.12.46.16.46.28.92a4.08,4.08,0,0,0,.25.85c.12.46.08.46.21.88s.2.43.29.84.24.44.32.93l.24.89a5.16,5.16,0,0,1,.21.84l.25.88.2.92c.12.46.16.42.28.89s0,.45.17.87.2.43.33.85a8.49,8.49,0,0,1,.24.93,7,7,0,0,0,.16.87,8.16,8.16,0,0,0,.33.9,7.56,7.56,0,0,0,.16.91,6.1,6.1,0,0,1,.29.85,3.7,3.7,0,0,0,.2.88,7.12,7.12,0,0,0,.16,1c.12.42.25.39.33.8l.25.89c.08.45.16.42.24.88a8.08,8.08,0,0,1,.21.92l.2.88.17,0s-.17,0-.17.06a9.18,9.18,0,0,1,.32,1,9.33,9.33,0,0,1,.32.93,8,8,0,0,1,.27,1l.32,1a2.82,2.82,0,0,1,0,.82,3.21,3.21,0,0,1-.16.85,3.85,3.85,0,0,1-.48.69,4.39,4.39,0,0,1-.55.65A2,2,0,0,1,187,43a2.25,2.25,0,0,1-1,0,2.74,2.74,0,0,1-.72-.19,2.18,2.18,0,0,1-.74-.32,2.21,2.21,0,0,1-.56-.66,4.43,4.43,0,0,1-.34-.73c-.16-.51,0-.53-.11-1a10.45,10.45,0,0,0-.4-1c-.12-.46,0-.49-.15-1s-.29-.44-.45-1a1.22,1.22,0,0,0-.29-.8c-.19-.18-.47-.29-.7-.48a2,2,0,0,0-.73-.48,6,6,0,0,0-.73-.55l-.84-.21a4.61,4.61,0,0,0-.83-.24,8.33,8.33,0,0,1-.85-.2,2.84,2.84,0,0,1-.85-.08,8.58,8.58,0,0,1-.84-.21c-.33,0-.62.07-.87,0a7.32,7.32,0,0,1-.93-.09c-.28,0-.54,0-.86,0a6.07,6.07,0,0,0-.86,0c-.3.05-.62.06-.88.12s-.62.06-.87.12a8.85,8.85,0,0,0-.82.42l-.83.21-.77.33a2.23,2.23,0,0,0-.68.64c-.24.43-.16.47-.41.9a4.12,4.12,0,0,1-.49.9c-.17.43-.29.42-.5.89s-.12.48-.33,1a1.86,1.86,0,0,1-.52.69,3.13,3.13,0,0,1-.7.5c-.22.15-.54.08-.79.14a5.83,5.83,0,0,1-.83.08,2,2,0,0,1-.84-.2c-.24-.1-.42-.37-.61-.55A4.77,4.77,0,0,1,160.88,39.57Zm15.61-21.4a2,2,0,0,0-.67.63c-.21.47,0,.53-.3,1s-.36.33-.52.77-.13.52-.29.91a5.4,5.4,0,0,0-.45.9c-.25.39-.4.29-.57.77a9.38,9.38,0,0,1-.41.86l-.36.87a6.71,6.71,0,0,0-.41.86c-.24.39-.13.44-.37.91a1.67,1.67,0,0,0-.31.67,1.1,1.1,0,0,0,.16.83c.11.22.43.25.71.36a4.21,4.21,0,0,0,.76.19,8.07,8.07,0,0,1,1,0c.29,0,.65.06.94,0a3.73,3.73,0,0,1,1,.09c.36,0,.7-.1,1.07-.06a10,10,0,0,1,1,.17A1,1,0,0,0,180,28a1.73,1.73,0,0,0-.07-1c-.12-.46-.21-.43-.33-.89s-.08-.42-.24-.89a4.25,4.25,0,0,0-.16-.91c-.08-.46-.21-.43-.33-.85l-.21-.88c-.16-.47-.12-.46-.27-1s0-.45-.09-.87a7.93,7.93,0,0,1-.32-.89c-.09-.42-.21-.43-.29-.85s-.14-.75-.33-.93S176.76,18,176.49,18.17Z"/><path class="cls-3" d="M233.92,43.75c.23-.43.26-.41.47-.81l.44-.83c.19-.36.12-.4.33-.79s.25-.38.47-.81.36-.32.55-.68.17-.42.38-.83.27-.41.48-.81.15-.38.36-.77.12-.49.33-.89.32-.34.51-.69.27-.41.48-.81,0-.49.26-.92.22-.34.43-.74.36-.32.57-.72.19-.45.38-.81.1-.45.31-.85l.44-.83c.19-.36.34-.28.54-.68s.24-.52.42-.79a3.1,3.1,0,0,1,.67-.48l.78-.24a4.22,4.22,0,0,1,.85.13,2.59,2.59,0,0,1,.78.28c.21.11.54.19.7.41a3.32,3.32,0,0,1,.59.64,3.94,3.94,0,0,1,.19.84,2.44,2.44,0,0,1-.12.86,1.69,1.69,0,0,1-.21.81c-.21.4-.28.36-.49.76l-.44.82c-.21.4-.28.36-.49.76s0,.53-.26.92-.28.36-.51.79-.22.35-.43.73-.29.36-.52.79-.13.44-.34.85-.14.43-.37.85-.25.38-.45.78-.2.45-.41.85-.17.42-.4.85-.39.3-.6.7-.07.47-.3.91-.24.37-.45.77-.34.38-.55.77-.06.47-.29.91l-.42.79c-.21.4-.28.36-.51.79s-.29.36-.5.75,0,.53-.25.93-.3.3-.51.69-.12.49-.33.89-.32.34-.53.74-.3.4-.51.79-.07.48-.3.91l-.42.79-.44.83c-.21.4-.24.38-.45.77l-.44.83c-.21.4-.14.44-.37.87s-.32.34-.53.74l-.43.82a2.92,2.92,0,0,1-.48.72,2.35,2.35,0,0,1-.73.35A1.84,1.84,0,0,1,230,60c-.26,0-.57.2-.84.1a2.48,2.48,0,0,1-.67-.3,3.45,3.45,0,0,1-.76-.5,2.72,2.72,0,0,1-.41-.86,2.26,2.26,0,0,1-.15-.86c0-.46-.17-.46-.18-.88l-.09-1c0-.44.09-.42.1-.88l-.09-1c0-.42-.1-.43-.12-.9s.1-.45.11-.91-.08-.46-.11-.93,0-.46,0-.92a5.41,5.41,0,0,1-.16-.91c0-.48,0-.48,0-.93a4.47,4.47,0,0,1,.05-.89c0-.48-.15-.5-.19-.94s.14-.44.07-.93-.19-.42-.18-.88.12-.49.1-1-.16-.41-.18-.88a7.6,7.6,0,0,1,.09-1c-.06-.4-.1-.42-.14-.86s.09-.51.1-1-.2-.43-.22-.9.06-.48.06-.89l-.07-.92-.07-.91a5.92,5.92,0,0,1-.11-.94c0-.47.1-.45.11-.91a2.14,2.14,0,0,0-.25-.82c-.18-.37-.36-.38-.6-.09a1.41,1.41,0,0,0-.6.61c-.21.39-.14.43-.33.79l-.44.83-.44.83c-.19.36-.22.34-.43.73s-.25.38-.46.78-.19.45-.38.81-.32.34-.53.74-.12.48-.33.89-.16.38-.37.77-.37.36-.58.76-.1.45-.29.81-.27.41-.48.81l-.42.79-.42.79c-.21.4-.28.36-.49.76s-.15.47-.35.83-.13.44-.34.83l-.44.83-.4.76-.44.83c-.12.21-.41.33-.58.57a1.55,1.55,0,0,1-.67.47,1.51,1.51,0,0,1-.77.42,1.68,1.68,0,0,1-.82-.2,1.7,1.7,0,0,1-.78-.27,3.09,3.09,0,0,1-.72-.38,6.72,6.72,0,0,1-.48-.67,4.11,4.11,0,0,1-.27-.79,3.09,3.09,0,0,1,0-.91,2.61,2.61,0,0,1,.38-.72L212,47c.21-.4.25-.38.46-.78s.12-.49.33-.88.17-.42.4-.85l.42-.79c.21-.4.25-.38.48-.81s.28-.36.49-.76l.44-.83c.21-.39.1-.45.33-.88s.24-.38.45-.78.32-.34.55-.77.1-.46.31-.85.12-.4.35-.83.35-.32.56-.72.16-.47.37-.86.32-.34.53-.75.08-.51.29-.9.36-.32.58-.75l.43-.79.43-.83c.21-.4.11-.45.32-.85l.43-.84c.21-.4.29-.36.51-.79s.14-.43.35-.82l.44-.84c.21-.4.28-.36.49-.76s.16-.47.37-.85.32-.34.55-.77.15-.38.36-.78l.44-.84c.21-.4.1-.46.31-.85s.32-.34.55-.76.14-.44.35-.83a5.4,5.4,0,0,1,.53-.74,2.84,2.84,0,0,1,.73-.44,3.21,3.21,0,0,1,.85-.2,2.3,2.3,0,0,1,.86,0,6.59,6.59,0,0,1,.79.24,2.48,2.48,0,0,1,.66.58,4.89,4.89,0,0,1,.5.72,5.38,5.38,0,0,1,0,.9l.07.91,0,.91c.05.44.17.46.2.94l0,.91c.06.4,0,.46,0,.86a7.83,7.83,0,0,0,0,1,4.37,4.37,0,0,0,.05.94c0,.46.15.41.18.88s-.05.44,0,.92.08.46.07.91l.07.91c0,.46,0,.5,0,.92s-.07.47-.05.94a8.17,8.17,0,0,1,.2.94v.88a7.24,7.24,0,0,1,0,.94c0,.44.13.44.2.94s-.14.43-.15.89a5.49,5.49,0,0,1,.07.91c.08.46.11.48.18.88a7.2,7.2,0,0,0,0,.91,5,5,0,0,1,.07.92,4.4,4.4,0,0,1,.1.93c0,.47,0,.46,0,.93s-.1.45-.1,1a6.47,6.47,0,0,0,.17.83c.17.37.46.34.72.11a2.34,2.34,0,0,0,.51-.7c.21-.4.14-.44.35-.83S233.73,44.11,233.92,43.75Zm5-26-1.51-1-.89-.24-.91-.2-1.62-1-.61-1.8.14-.8.41-.76.57-.57,1.58-.55.83-.07.84.08.77.18.82.38.68.36.78.46.61.51,1.25,1.12L243.82,15l1.3.92.86.22.87.28,1.49.92.56,1.73-.07.84-.4.76-.65.53-1.55.57-.84.1-.8-.14-.82-.2-1.51-.8-.75-.59L240.18,19Z"/><path class="cls-3" d="M250.59,75.11a3.08,3.08,0,0,1,.43-.77,2.74,2.74,0,0,1,.62-.6,3.41,3.41,0,0,1,.79-.33c.42-.13.44-.09.86-.22a7.36,7.36,0,0,1,1-.25c.4-.17.35-.29.83-.41l.85-.32c.48-.18.47-.06.92-.22a8.13,8.13,0,0,0,.85-.38l.87-.28a5.51,5.51,0,0,1,.95-.19c.45-.16.41-.28.82-.41s.45-.1.9-.26.48-.12.91-.31.49,0,.94-.13l.84-.32c.49-.18.41-.34.83-.47s.43-.18.88-.28.49,0,.89-.2l.93-.34c.45-.1.4-.22.82-.35a6.51,6.51,0,0,0,.92-.22c.45-.15.47,0,.95-.19a4.93,4.93,0,0,0,.87-.29c.45-.1.4-.22.85-.37a5.26,5.26,0,0,1,.93-.23c.45-.15.38-.3.82-.4a7.63,7.63,0,0,0,.9-.32c.42-.13.5,0,.89-.19a7.12,7.12,0,0,0,.83-.41c.42-.13.45-.1.93-.28l.89-.2a7.26,7.26,0,0,0,.85-.37c.45-.1.52.05.94-.08s.41-.33.84-.52.44-.1.86-.23.47-.07.92-.22.41-.28.89-.4a6.63,6.63,0,0,1,.75,0,1.56,1.56,0,0,1,.82.23,1.93,1.93,0,0,1,.7.27c.22.14.53.2.68.39l.09,0a1.83,1.83,0,0,1,.36.71,2.5,2.5,0,0,1,0,1.59,3.88,3.88,0,0,1-.18.82c-.23.36-.26.32-.54.76s-.3.34-.51.73-.16.45-.38.83-.24.41-.43.82-.33.38-.54.76-.19.42-.44.83a5.57,5.57,0,0,0-.51.73c-.24.41-.22.44-.46.85a3.34,3.34,0,0,0-.43.77c-.25.4-.27.37-.49.76s-.16.44-.4.79-.14.49-.44.89l-.46.79a7,7,0,0,1-.45.74l-.46.79-.52.79c-.25.41-.19.41-.43.82s-.3.35-.52.73-.16.45-.37.83a8.08,8.08,0,0,1-.49.82,7.34,7.34,0,0,0-.51.73,7.57,7.57,0,0,0-.41.86,8.69,8.69,0,0,0-.55.76,6,6,0,0,1-.4.8,3.07,3.07,0,0,0-.48.76c-.28.43-.36.34-.58.78s-.1.45-.34.8l-.46.8c-.28.38-.19.41-.46.79s-.31.4-.52.79l-.49.76.14.1s-.14-.1-.17-.07a6.47,6.47,0,0,1-.47.9,8.18,8.18,0,0,1-.44.89,10.11,10.11,0,0,1-.53.9l-.47.91a2.66,2.66,0,0,1-.58.58,2.62,2.62,0,0,1-.72.47,4,4,0,0,1-.83.15,4.79,4.79,0,0,1-.84,0,2,2,0,0,1-.76-.27,2.19,2.19,0,0,1-.73-.72,2.08,2.08,0,0,1-.37-.65,2,2,0,0,1-.3-.76,2.09,2.09,0,0,1,.09-.86,3.81,3.81,0,0,1,.28-.75c.25-.47.39-.37.63-.78a10.56,10.56,0,0,0,.42-1c.25-.41.33-.37.61-.81s.11-.51.36-1a1.28,1.28,0,0,0,.37-.78c0-.26-.12-.53-.14-.82a2,2,0,0,0-.18-.86,6.46,6.46,0,0,0-.1-.91l-.45-.75a4.42,4.42,0,0,0-.41-.76c-.12-.22-.3-.44-.45-.75a3.29,3.29,0,0,1-.54-.66,8,8,0,0,1-.44-.74c-.21-.26-.48-.4-.64-.59s-.35-.51-.59-.73a7.27,7.27,0,0,0-.63-.59,6,6,0,0,0-.61-.62c-.24-.16-.48-.39-.69-.53s-.49-.4-.7-.54a6.81,6.81,0,0,0-.87-.29l-.74-.46-.78-.31a2.29,2.29,0,0,0-.92,0c-.48.13-.46.22-.94.34a3.65,3.65,0,0,1-1,.27c-.43.19-.5.1-1,.28s-.43.24-.91.43a1.81,1.81,0,0,1-.86.11,2.93,2.93,0,0,1-.85-.15c-.26-.05-.43-.33-.65-.47a6.67,6.67,0,0,1-.64-.53,2,2,0,0,1-.44-.74,2.79,2.79,0,0,1,0-.82A4.71,4.71,0,0,1,250.59,75.11Zm26.22-3.83a2.13,2.13,0,0,0-.92,0c-.48.18-.41.33-.89.45s-.49,0-.92.17-.46.27-.85.43a7.76,7.76,0,0,0-1,.31c-.44.1-.48-.08-.94.13s-.42.19-.9.31l-.88.35a6.82,6.82,0,0,0-.9.31c-.44.1-.4.22-.91.37a1.75,1.75,0,0,0-.69.25,1.06,1.06,0,0,0-.48.7c-.08.23.12.48.24.75a3.76,3.76,0,0,0,.39.68,6.58,6.58,0,0,1,.68.71c.22.2.41.51.63.7a4.23,4.23,0,0,1,.61.76c.24.29.57.44.8.72a10.49,10.49,0,0,1,.6.88,1.14,1.14,0,0,0,.72.68,1.1,1.1,0,0,0,.95-.25,1.67,1.67,0,0,0,.66-.74c.24-.41.16-.45.41-.86s.24-.35.46-.79.35-.34.54-.76.16-.44.38-.83l.48-.76c.22-.44.25-.41.5-.87s.35-.29.56-.67a7.57,7.57,0,0,1,.41-.86c.24-.35.16-.44.4-.8s.44-.62.44-.88S277.16,71.32,276.81,71.28Z"/><path class="cls-3" d="M300.51,125.31l-.09.87c0,.31-.09.58-.12.93a3,3,0,0,0,0,.89,6.59,6.59,0,0,0-.3.89,5.87,5.87,0,0,1-.1.83,5.1,5.1,0,0,1-.35.87c-.09.28-.23.53-.35.82s-.24.53-.37.79a9.35,9.35,0,0,1-.39.87c-.14.25-.48.39-.67.62a4.22,4.22,0,0,1-.63.64,7.22,7.22,0,0,1-.68.58,6.45,6.45,0,0,0-.81.44l-.82.37a3.79,3.79,0,0,1-.78.39,8.39,8.39,0,0,1-.86.41c-.28.08-.6.13-.87.21s-.65,0-1,0a3.53,3.53,0,0,1-.92,0l-.95,0-.88-.13a5.41,5.41,0,0,1-.92-.25,7.92,7.92,0,0,1-.91-.21,5.9,5.9,0,0,0-.86-.35c-.25-.14-.53-.35-.78-.5s-.53-.35-.75-.54a7.69,7.69,0,0,1-.67-.57,6,6,0,0,1-.64-.76,4.74,4.74,0,0,1-.65-.62c-.19-.24-.31-.5-.52-.78s-.34-.46-.47-.76-.36-.53-.48-.79-.17-.59-.28-.86-.29-.55-.38-.87,0-.62-.13-.89a9.15,9.15,0,0,0-.34-.92c0-.3,0-.57,0-.9a7.2,7.2,0,0,1,0-.93,7.81,7.81,0,0,1,0-1,5.59,5.59,0,0,0,.16-.94l.13-.88c.07-.32.06-.66.15-.94s.26-.58.35-.86.07-.66.21-.91a4.3,4.3,0,0,1,.45-.8,3.49,3.49,0,0,1,.46-.9c.14-.25.32-.52.5-.78l.62-.64a5.55,5.55,0,0,1,.71-.63,3.58,3.58,0,0,1,.69-.71,2.69,2.69,0,0,1,.74-.55,7.67,7.67,0,0,1,.84-.32,5.08,5.08,0,0,1,.89-.43,3.94,3.94,0,0,1,.85,0,4.57,4.57,0,0,1,.85.14,4.12,4.12,0,0,1,.69.49,4.8,4.8,0,0,1,.58.55c.12.26.38.44.46.72a2.62,2.62,0,0,1,.07.83,2.81,2.81,0,0,1-.18.85,2.86,2.86,0,0,1-.42.76,1.66,1.66,0,0,1-.68.45,2.42,2.42,0,0,1-.73.42,3.34,3.34,0,0,0-.75.47,2.57,2.57,0,0,0-.71.63,3,3,0,0,0-.55.75l-.4.83a5.59,5.59,0,0,0-.29.93,4.73,4.73,0,0,0-.15.94c0,.26-.13.59-.17.9s-.08.61-.08.91a4,4,0,0,0,.11,1,6.63,6.63,0,0,0,.21.88,7.76,7.76,0,0,0,.3.89,8.79,8.79,0,0,0,.52.78,7.14,7.14,0,0,0,.51.75,4,4,0,0,0,.65.66c.23.19.48.33.74.51s.54.27.84.4a6.38,6.38,0,0,0,.9.2,2.85,2.85,0,0,0,.91-.09,2.4,2.4,0,0,0,.88-.2,7.76,7.76,0,0,0,.89-.3,3.66,3.66,0,0,0,.84-.32c.28-.21.54-.46.75-.64a4.06,4.06,0,0,0,.42-.89,6.29,6.29,0,0,0,.12-.92,2.7,2.7,0,0,0,.23-.83,3.92,3.92,0,0,0,0-1,4.85,4.85,0,0,0,.19-.95c0-.26-.09-.61,0-.92s-.05-.62-.06-1l0-.87a3.2,3.2,0,0,0,0-.92,3.91,3.91,0,0,0,.17-.89c0-.25,0-.55,0-.88s.22-.57.3-.89a4.57,4.57,0,0,1,.18-.86,4.8,4.8,0,0,1,.05-.86,6.31,6.31,0,0,1,.38-.88c.1-.24.18-.56.28-.8s.37-.49.51-.74.17-.6.36-.82a7.38,7.38,0,0,1,.6-.72c.2-.19.56-.29.8-.49s.44-.38.72-.59.51-.14.81-.27a6,6,0,0,1,.83-.36,3.13,3.13,0,0,1,.83-.37c.28-.08.62-.05.9-.13s.6-.12.92-.18a6.53,6.53,0,0,1,.95-.1,3.37,3.37,0,0,1,1,.2,3.77,3.77,0,0,1,.89,0c.32.08.58.26.86.35a4.24,4.24,0,0,0,.88.25,5.37,5.37,0,0,1,.81.45c.29.13.63.16.89.3l.75.55c.27.22.42.43.64.62a4.52,4.52,0,0,1,.66.66,23.48,23.48,0,0,0,1.27,1.34c.2.24.32.54.52.78l.4.82a7.12,7.12,0,0,1,.18.92,3.31,3.31,0,0,1,.41.82c.09.31.16.59.23,1a3.38,3.38,0,0,1,.13.9,4.31,4.31,0,0,1,.06,1c0,.28-.05.56,0,.9a5.51,5.51,0,0,0-.12.92c-.09.28.05.62,0,.93s-.27.55-.35.87-.16.6-.29.89-.32.51-.44.84a3.77,3.77,0,0,0-.35.87l-.51.73c-.22.28-.52.41-.74.68a2.11,2.11,0,0,1-.66.49,2.45,2.45,0,0,1-.73.42,6.27,6.27,0,0,1-.82.11,3,3,0,0,1-.76-.42,2.84,2.84,0,0,1-.77-.33,3,3,0,0,1-.59-.6,5.77,5.77,0,0,1-.2-.83,4.09,4.09,0,0,1,0-.84,3.55,3.55,0,0,1,.13-.89,1.9,1.9,0,0,1,.58-.63c.19-.22.32-.52.5-.78s.4-.54.53-.83a5.47,5.47,0,0,0,.13-1,4,4,0,0,0,.21-.91,20.29,20.29,0,0,0-.33-1.9,3.16,3.16,0,0,0-.21-.87,2.46,2.46,0,0,0-.43-.77,5.41,5.41,0,0,0-.63-.71c-.23-.23-.32-.55-.6-.77a3,3,0,0,0-.76-.45,4.68,4.68,0,0,0-.8-.41,7.87,7.87,0,0,0-.93-.16c-.3,0-.62-.08-1-.07a3.32,3.32,0,0,0-.86.25,7.16,7.16,0,0,0-.89.3,2.86,2.86,0,0,0-.68.57,1.74,1.74,0,0,0-.62.69,6,6,0,0,0-.25.88,7.36,7.36,0,0,0-.29.93l0,.9a5.86,5.86,0,0,0,0,.92l-.07.91c0,.26.12.6.09,1l-.09.83A7.5,7.5,0,0,0,300.51,125.31Z"/><path class="cls-3" d="M305.69,163.76l.8-.37,1.67.08.75.44.55.59.37.76-.07,1.67-.45.75-.59.55-.79.37-1.67-.08-.76-.44-.54-.59-.38-.8.08-1.67.44-.71Z"/><path class="cls-3" d="M27.74,205.83l-.6.64-1.58.54-.87-.14-.72-.35-.63-.57-.54-1.58.14-.87.36-.72.6-.64,1.58-.54.87.14.72.36.64.6.54,1.58-.15.83Z"/><path class="cls-3" d="M302,224.9a2.6,2.6,0,0,1-.88,0,2.85,2.85,0,0,1-.83-.22,3.74,3.74,0,0,1-.68-.52c-.33-.29-.31-.33-.64-.63a9,9,0,0,1-.69-.69c-.34-.26-.42-.16-.77-.51l-.7-.57c-.41-.32-.3-.37-.66-.68a7.55,7.55,0,0,0-.76-.54l-.69-.61c-.4-.33-.29-.37-.64-.72s-.44-.21-.77-.51-.31-.33-.67-.64-.35-.35-.73-.62-.23-.44-.59-.75l-.7-.56c-.4-.33-.5-.19-.82-.49s-.38-.27-.69-.6-.28-.41-.62-.67l-.76-.64c-.31-.33-.4-.23-.72-.53a8.55,8.55,0,0,0-.66-.68c-.36-.31-.24-.39-.64-.72a5.88,5.88,0,0,0-.69-.61c-.31-.33-.39-.23-.76-.54a6,6,0,0,1-.66-.68c-.36-.31-.45-.18-.76-.51s-.31-.33-.73-.62-.28-.41-.62-.67a6.33,6.33,0,0,0-.77-.5A7.85,7.85,0,0,0,280,207l-.62-.67c-.36-.31-.38-.27-.75-.55s-.22-.47-.54-.76-.5-.19-.88-.46-.31-.34-.63-.63-.3-.37-.66-.69-.45-.2-.79-.55a7,7,0,0,1-.42-.64,1.71,1.71,0,0,1-.22-.82,2.08,2.08,0,0,1-.11-.74,3,3,0,0,1,0-.79v-.09a1.87,1.87,0,0,1,.43-.67,2,2,0,0,1,.62-.5,1.86,1.86,0,0,1,.76-.28,4.43,4.43,0,0,1,.8-.27c.42,0,.41.07.92.09s.45.08.89.07.47-.09.91-.1.48,0,.93,0,.49.09.93.08.45,0,.93,0a6.3,6.3,0,0,0,.89.07c.47,0,.49,0,1,0a3.26,3.26,0,0,0,.88,0c.48,0,.47.05.9,0s.47-.09.9-.06.48-.12,1-.07h.92a6.1,6.1,0,0,1,.86,0h.92l.94.05c.48,0,.45-.05.93,0s.45.08.89.07.47-.09.9-.1.52,0,1,0a6.42,6.42,0,0,0,.89.07,6.17,6.17,0,0,0,.94-.08,7,7,0,0,0,.93.09,6.77,6.77,0,0,1,.89-.06,3.83,3.83,0,0,0,.9,0c.52,0,.48.13,1,.1s.44-.14.87-.11h.91c.47,0,.46,0,.92,0a7.31,7.31,0,0,1,.94,0l.9,0,0-.17s0,.17,0,.18a6.84,6.84,0,0,1,1,0,8.38,8.38,0,0,1,1-.07,9,9,0,0,1,1,0l1-.06a2.56,2.56,0,0,1,.79.21,2.48,2.48,0,0,1,.78.39,3.28,3.28,0,0,1,.54.64,3.77,3.77,0,0,1,.48.7,2,2,0,0,1,.14.78,2.27,2.27,0,0,1-.24,1,2.69,2.69,0,0,1-.38.65c-.17.24-.27.51-.5.64a2.27,2.27,0,0,1-.79.36,4,4,0,0,1-.79.14c-.53,0-.51-.15-1-.16s-.55.1-1.05.13-.48-.09-1-.11-.5.16-1,.18a1.27,1.27,0,0,0-.85.07c-.22.14-.4.38-.64.55a1.93,1.93,0,0,0-.65.58,7.34,7.34,0,0,0-.73.55l-.42.76a4.64,4.64,0,0,0-.45.75c-.13.21-.23.48-.42.76a2.56,2.56,0,0,1-.3.79,7.2,7.2,0,0,1-.41.76c-.12.31-.1.62-.19.85a6.63,6.63,0,0,1-.33.88,8.3,8.3,0,0,0-.19.85,5.38,5.38,0,0,0-.22.83c0,.29-.1.61-.11.87s-.1.62-.11.87a6.13,6.13,0,0,0,.19.9l0,.87.12.83a2.32,2.32,0,0,0,.44.81c.35.35.41.29.76.64s.39.36.74.71.33.38.73.71.43.25.83.57a1.75,1.75,0,0,1,.53.68,2.79,2.79,0,0,1,.31.81c.08.25-.07.54-.08.8a7.39,7.39,0,0,1-.14.82,2,2,0,0,1-.41.76,2.9,2.9,0,0,1-.69.44A4.36,4.36,0,0,1,302,224.9ZM285.4,204.23a2,2,0,0,0,.43.82c.4.32.5.19.85.54s.22.43.6.7.47.26.81.52a7.07,7.07,0,0,0,.75.68c.31.33.18.45.59.74s.38.27.73.62l.74.58a8.17,8.17,0,0,0,.72.62c.31.34.39.24.78.6a1.8,1.8,0,0,0,.56.47,1.16,1.16,0,0,0,.85.06c.24,0,.35-.35.53-.59a4.1,4.1,0,0,0,.39-.68A8,8,0,0,1,295,209c.06-.28.23-.61.29-.89a4,4,0,0,1,.35-.91c.13-.35.09-.71.22-1a7.1,7.1,0,0,1,.45-1,1.13,1.13,0,0,0,.22-1,1.11,1.11,0,0,0-.69-.7,1.91,1.91,0,0,0-1-.19c-.47,0-.46.09-.94.08s-.43,0-.92,0a3.47,3.47,0,0,0-.92-.09c-.47,0-.47.09-.91.1l-.9,0c-.49,0-.48,0-1,0s-.42-.16-.86-.15a7.77,7.77,0,0,1-.95.08c-.42,0-.46.09-.89.06s-.76-.07-1,.07S285.25,203.92,285.4,204.23Z"/><path class="cls-3" d="M263.41,236.11a1.92,1.92,0,0,1,.9.12,2.28,2.28,0,0,1,.78.18,1.84,1.84,0,0,1,.68.47c.39.37.36.4.68.71s.36.27.71.61.33.37.66.67.38.31.71.62.41.33.74.64l.68.64.68.65.68.64c.39.37.33.42.66.73s.4.22.73.53.33.42.66.73.27.43.59.74.5.18.86.52l.65.62c.38.36.33.42.65.73s.3.33.66.67c.2.2.38.48.65.73l.65.62c.24.23.5.36.74.59a3.2,3.2,0,0,1,.6.67c.23.22.41.45.68.7s.47.39.68.65a6.72,6.72,0,0,1,.51.76,6,6,0,0,1,.68.65l.6.79c.18.22.25.57.43.79s.39.48.57.76.13.69.26.92a6.14,6.14,0,0,0,.48.79l.26.92.37.85.08.93a5,5,0,0,1,.17.94l0,.93c0,.28-.19.61-.24.95l-.2.87c-.08.33-.19.62-.24.91a6.18,6.18,0,0,1-.38.87c-.11.24-.39.48-.55.77s-.39.41-.56.71-.3.55-.5.76a7.28,7.28,0,0,1-.67.71c-.19.21-.36.5-.55.71a7.46,7.46,0,0,1-.8.54c-.22.18-.42.5-.64.68s-.57.25-.86.37a3.68,3.68,0,0,1-.79.54c-.26.15-.63.08-.86.2a3.76,3.76,0,0,1-.92.26,3.44,3.44,0,0,1-.88.22c-.32,0-.67,0-1,0s-.57.13-.92.09a8.3,8.3,0,0,1-.89-.12,6.16,6.16,0,0,1-.93-.21,3.49,3.49,0,0,1-.91-.35,4,4,0,0,1-.87-.26,6.86,6.86,0,0,0-.79-.47,9.6,9.6,0,0,0-.91-.35l-.73-.53a8.42,8.42,0,0,1-.8-.52c-.26-.2-.58-.27-.84-.47a3.25,3.25,0,0,1-.71-.56,6,6,0,0,1-.71-.61c-.27-.25-.59-.33-.83-.55s-.47-.4-.67-.59-.36-.51-.6-.74-.56-.35-.74-.52l-.71-.67c-.35-.34-.27-.43-.6-.74s-.46-.22-.82-.55-.21-.43-.54-.74l-.71-.67c-.33-.31-.38-.25-.74-.58s-.38-.31-.74-.65l-.65-.61c-.39-.37-.36-.4-.68-.7s-.36-.28-.71-.62-.24-.4-.6-.73-.47-.22-.79-.53-.27-.37-.66-.73-.27-.37-.63-.7-.41-.22-.76-.56l-.68-.64c-.33-.31-.36-.28-.74-.65a2.11,2.11,0,0,1-.51-.7,1.79,1.79,0,0,1-.25-.8,2.79,2.79,0,0,1,0-.87,4,4,0,0,1,.21-.81,2.68,2.68,0,0,1,.5-.65,2,2,0,0,1,.74-.48,2.2,2.2,0,0,1,.74-.31,2.07,2.07,0,0,1,.84.12,2.24,2.24,0,0,1,.78.12,1.86,1.86,0,0,1,.7.44c.39.37.31.46.63.77s.44.18.8.52.38.31.7.61.31.4.63.71.41.33.74.64.3.34.65.68.41.27.74.58.3.4.63.7.41.34.74.65l.65.61c.38.37.33.43.65.73l.68.65.72.67c.32.31.41.22.73.53s.3.45.63.76.38.25.74.58l.71.68c.21.19.47.39.68.58s.41.45.65.68a8.49,8.49,0,0,0,.77.5c.26.25.39.59.59.79l.8.52a6.65,6.65,0,0,0,.76.5c.27.19.53.33.82.5s.51.41.74.58.59.33.82.44.72,0,1,.12a6,6,0,0,0,.87.32,2.65,2.65,0,0,0,1,0,4.42,4.42,0,0,0,.89-.28l.82-.46a3.67,3.67,0,0,0,.7-.62,7.87,7.87,0,0,0,.68-.6,8.63,8.63,0,0,0,.67-.71,2.4,2.4,0,0,0,.47-.79,2.26,2.26,0,0,0,.44-.82,5.14,5.14,0,0,0,.15-.93,3.19,3.19,0,0,0,0-.93,7.23,7.23,0,0,0-.26-.91,5.24,5.24,0,0,0-.4-.83,5,5,0,0,0-.42-.79c-.19-.29-.25-.57-.46-.88s-.47-.39-.68-.65-.33-.54-.51-.76-.42-.45-.66-.68a7.44,7.44,0,0,0-.62-.76,6.34,6.34,0,0,1-.63-.64l-.68-.65-.65-.61c-.24-.23-.42-.45-.69-.71l-.68-.64c-.35-.33-.27-.42-.62-.76s-.42-.22-.74-.53-.44-.3-.77-.61-.27-.37-.62-.71l-.71-.67-.66-.61-.71-.68c-.32-.3-.27-.36-.62-.7s-.41-.22-.77-.55-.33-.37-.65-.68-.36-.28-.74-.64-.24-.4-.6-.74-.3-.33-.65-.67l-.68-.64c-.33-.31-.36-.28-.74-.65a2.42,2.42,0,0,1-.48-.62,6.37,6.37,0,0,1-.37-.79,3.14,3.14,0,0,1,0-.81,2.07,2.07,0,0,1,.26-.76,2.29,2.29,0,0,1,.45-.7,10.2,10.2,0,0,1,1.41-.91Z"/><path class="cls-3" d="M237.4,291.33c-.1.27,0,.6-.17.89a6.52,6.52,0,0,1-.44.79,3,3,0,0,1-.57.71c-.16.26-.25.53-.41.78s-.29.54-.48.8-.46.36-.67.59a8.42,8.42,0,0,0-.57.71c-.24.16-.43.43-.67.59s-.56.25-.8.41-.44.52-.68.67-.58.1-.88.23a6.19,6.19,0,0,1-.87.36,3.79,3.79,0,0,1-.9.29,8.21,8.21,0,0,1-.87.26c-.29,0-.6.15-.9.2s-.6.05-.93,0a5.48,5.48,0,0,1-.91,0,6.84,6.84,0,0,1-.91.06,5.77,5.77,0,0,1-1-.23,4.44,4.44,0,0,1-.87-.22,6.17,6.17,0,0,1-1-.14c-.27-.1-.54-.38-.81-.48s-.6-.13-.88-.26-.54-.38-.83-.52-.58-.18-.88-.35l-.77-.5c-.25-.16-.45-.47-.7-.62a6,6,0,0,1-.82-.52,6.36,6.36,0,0,1-.72-.57c-.24-.24-.4-.49-.65-.73s-.45-.38-.66-.64-.44-.47-.62-.66a7.49,7.49,0,0,1-.48-.85c-.18-.28-.45-.47-.62-.75s-.26-.55-.45-.78-.37-.5-.55-.78-.36-.5-.48-.76l-.42-.89c-.13-.3-.14-.61-.28-.9a8.34,8.34,0,0,1-.32-.89,6.63,6.63,0,0,1-.36-.87c-.14-.29-.06-.6-.16-.92a6.11,6.11,0,0,0-.26-.86l-.18-1a7.94,7.94,0,0,1-.19-.9c0-.34-.13-.66-.17-.95s-.1-.59-.07-.92a7.63,7.63,0,0,1,0-1c0-.28.13-.6.15-.93a7.5,7.5,0,0,0,.06-.93l.11-.95a4.27,4.27,0,0,0,.22-.87c.1-.27.11-.63.19-.94l.34-.83A4.54,4.54,0,0,1,210,273a5.44,5.44,0,0,1,.39-.9,4.82,4.82,0,0,0,.37-.85l.5-.76a7.55,7.55,0,0,1,.44-.8l.64-.74a8,8,0,0,0,.73-.57,7.32,7.32,0,0,1,.67-.58,4.15,4.15,0,0,1,.75-.53c.28-.17.48-.4.76-.58s.53-.33.82-.47l.93-.43c.37-.27.45-.08.93-.3s.4-.32.88-.54.46-.17.94-.39l.06,0a1.6,1.6,0,0,1,.73-.16,1.42,1.42,0,0,1,.82,0,1.57,1.57,0,0,1,.76.28,3.15,3.15,0,0,1,.74.42,5.66,5.66,0,0,1,.34.74,1.83,1.83,0,0,1,.23.79,2.53,2.53,0,0,1,.12.85,2.06,2.06,0,0,1-.36.75,2.37,2.37,0,0,1-.39.72,3,3,0,0,1-.74.44c-.48.22-.47.26-.91.47s-.51.05-1,.28-.39.31-.87.54l-.92.43a7,7,0,0,0-.77.49,6.72,6.72,0,0,1-.76.48,5.12,5.12,0,0,0-.6.74c-.23.28-.49.4-.66.71a6,6,0,0,0-.5.77,2.86,2.86,0,0,0-.26.88,4.15,4.15,0,0,0-.4.9,8.55,8.55,0,0,0-.17.9c0,.29-.16.61-.21.9s0,.62,0,1a6.59,6.59,0,0,1,0,.93l.05.88.1,1a5.16,5.16,0,0,0,.1.89,3.46,3.46,0,0,0,.24.92c.09.28.08.64.16.92s.33.61.45.87a7.34,7.34,0,0,0,.39.85c.13.26.24.61.38.91a3.84,3.84,0,0,0,.56.73,3.88,3.88,0,0,0,.4.85l.52.83a5.61,5.61,0,0,1,.62.66,4.23,4.23,0,0,0,.77.59,3.18,3.18,0,0,0,.6.71,5.9,5.9,0,0,0,.73.61c.25.15.44.47.73.6s.58.18.85.37.48.46.77.59.58.18.86.32l.95.19a7.7,7.7,0,0,0,.89.17,4.79,4.79,0,0,0,.91,0c.35,0,.66,0,.95,0a8.35,8.35,0,0,0,.88-.32,7,7,0,0,0,.87-.36c.26-.12.52-.15.74-.25l.63-.48a7,7,0,0,1,.57-.53,3,3,0,0,0,.44-.79,2.68,2.68,0,0,0,.21-.82c0-.32-.06-.6,0-.87s0-.64-.05-1a4.51,4.51,0,0,0-.17-.86c-.19-.41-.3-.36-.53-.84s-.15-.43-.34-.83-.15-.52-.33-.93-.36-.37-.56-.81-.23-.4-.45-.88-.08-.46-.29-.9-.13-.48-.32-.88l-.41-.9c-.21-.44-.28-.41-.47-.81s-.13-.48-.34-.92-.32-.39-.52-.84a5.33,5.33,0,0,1-.2-.81,2.29,2.29,0,0,1-.08-.86,7.75,7.75,0,0,1,.31-.77,5.65,5.65,0,0,1,.52-.74,4.84,4.84,0,0,1,.74-.43c.22-.11.53,0,.8-.11a4.25,4.25,0,0,1,.88-.14c.26.07.45.38.68.5a3.4,3.4,0,0,1,.67.45c.17.28.48.37.6.63.21.44,0,.53.21.93s.32.3.51.71.06.51.25.92l.36.78.37.81c.19.41.3.36.49.76s.28.42.45.79l.38.81c.19.41.12.44.31.85l.37.81.37.78c.2.44.13.47.32.88s.24.34.43.75.1.49.29.9.32.3.5.71.1.49.29.9a2.12,2.12,0,0,1,.35,1A1.9,1.9,0,0,1,237.4,291.33Z"/><path class="cls-3" d="M154.62,312.68a2.91,2.91,0,0,1-.37-.8,2.74,2.74,0,0,1-.11-.85,3.61,3.61,0,0,1,.21-.83c.14-.42.18-.42.33-.83a7.07,7.07,0,0,1,.37-.92c.1-.41,0-.44.16-.9l.25-.87c.14-.5.23-.42.37-.88a5.86,5.86,0,0,0,.21-.9l.29-.87c.14-.5.23-.42.41-.88s0-.49.17-.9.18-.42.33-.88.18-.45.29-.91.31-.38.45-.83l.25-.87c.14-.5,0-.53.12-.95s.11-.45.29-.87.27-.42.37-.83l.29-.95c.19-.42.06-.45.21-.87a9.06,9.06,0,0,0,.37-.87c.14-.46.27-.38.41-.88a4.44,4.44,0,0,0,.29-.87c.19-.41.06-.45.21-.91a5.17,5.17,0,0,1,.37-.87c.14-.45,0-.49.16-.9a9.21,9.21,0,0,0,.29-.92,7.64,7.64,0,0,0,.38-.83,7.08,7.08,0,0,0,.16-.9,8.72,8.72,0,0,0,.33-.92l.37-.83a6,6,0,0,0,.21-.91c.18-.41.35-.38.5-.79s0-.53.07-1,.19-.41.34-.83.22-.42.37-.87,0-.49.2-.95a6.3,6.3,0,0,1,.43-.63,1.55,1.55,0,0,1,.67-.52,2.18,2.18,0,0,1,.63-.4c.25-.09.48-.3.73-.31l.08-.05a1.81,1.81,0,0,1,.78.13,2,2,0,0,1,.71.38,2,2,0,0,1,.56.59,4.14,4.14,0,0,1,.55.63c.14.4.1.4.29.89s.1.44.28.84.26.4.44.8.18.44.4.84.1.49.29.89.22.4.4.84a6.89,6.89,0,0,0,.28.84c.18.45.22.44.41.89a3.53,3.53,0,0,0,.36.8c.18.44.14.44.32.84s.26.4.4.8.3.4.45.88l.36.84a6.19,6.19,0,0,1,.32.81l.36.84.33.88c.18.45.22.4.4.84s.1.45.28.85.26.4.44.8a8.24,8.24,0,0,1,.37.88,7,7,0,0,0,.28.85,6.77,6.77,0,0,0,.45.83,7.06,7.06,0,0,0,.28.89,7.46,7.46,0,0,1,.4.8,3.45,3.45,0,0,0,.32.84c.18.49.06.49.29.93s.3.36.44.76l.36.84c.14.45.22.4.36.85a7.2,7.2,0,0,1,.33.88l.32.84.16,0s-.16,0-.16.08a7.86,7.86,0,0,1,.45.92,9.17,9.17,0,0,1,.44.89,7.91,7.91,0,0,1,.41,1l.45.92a2.84,2.84,0,0,1,.12.81,3,3,0,0,1-.05.86,4.36,4.36,0,0,1-.37.75,5.88,5.88,0,0,1-.46.72,2.13,2.13,0,0,1-.68.43,2.24,2.24,0,0,1-1,.17,2.35,2.35,0,0,1-.74-.09,2.29,2.29,0,0,1-.79-.21,2.4,2.4,0,0,1-.64-.59,4.25,4.25,0,0,1-.43-.67c-.23-.48-.07-.53-.25-1a10.33,10.33,0,0,0-.53-.92c-.18-.44-.1-.49-.29-1s-.34-.39-.56-.87c-.1-.29-.11-.53-.4-.76s-.5-.23-.75-.38a2,2,0,0,0-.8-.37,5.69,5.69,0,0,0-.79-.46l-.86-.09a4.25,4.25,0,0,0-.87-.12,8.15,8.15,0,0,1-.86-.09,2.65,2.65,0,0,1-.85,0,5.52,5.52,0,0,1-.87-.08c-.32,0-.6.15-.85.16a5.87,5.87,0,0,1-.94,0,8.28,8.28,0,0,0-.85.16,5.44,5.44,0,0,0-.85.12c-.28.09-.61.15-.85.24s-.6.15-.84.24a5.55,5.55,0,0,0-.76.52l-.8.32-.72.44a2.14,2.14,0,0,0-.58.72c-.18.46-.1.5-.29,1a4,4,0,0,1-.36,1c-.11.45-.23.46-.37.95s-.06.5-.2,1a1.84,1.84,0,0,1-.42.76,3,3,0,0,1-.63.59c-.2.18-.52.15-.77.24a5.85,5.85,0,0,1-.8.2,1.88,1.88,0,0,1-.86-.09,2.33,2.33,0,0,1-.68-.46A3.65,3.65,0,0,1,154.62,312.68Zm12.56-23.33a2,2,0,0,0-.58.72c-.14.49,0,.53-.16,1s-.31.38-.42.83-.06.53-.16.95a5.31,5.31,0,0,0-.33,1c-.18.42-.35.34-.45.83s-.1.46-.29.92l-.25.91c-.18.45-.14.45-.29.91s-.06.45-.24.94a2,2,0,0,0-.22.71,1.12,1.12,0,0,0,.29.81c.12.2.45.18.74.25a4.19,4.19,0,0,0,.78.09,7.1,7.1,0,0,1,1-.12c.28-.06.65,0,.93-.08a3.93,3.93,0,0,1,1,0c.37,0,.69-.19,1-.21s.7,0,1.07,0a1.17,1.17,0,0,0,1-.16,1.11,1.11,0,0,0,.37-.92,1.76,1.76,0,0,0-.21-1c-.18-.44-.26-.4-.44-.84s-.14-.4-.36-.84a3.43,3.43,0,0,0-.29-.89c-.14-.44-.26-.4-.44-.8l-.32-.84c-.22-.44-.18-.44-.41-.92s0-.45-.2-.85a8.46,8.46,0,0,1-.44-.84c-.14-.4-.26-.4-.4-.8s-.24-.72-.45-.88S167.42,289.09,167.18,289.35Z"/><path class="cls-3" d="M125.14,294.37l.18.85-.45,1.61-.6.64-.71.39-.81.2-1.62-.46-.63-.6-.4-.7-.18-.86.45-1.61.61-.64.7-.39.86-.18,1.61.45.6.59Z"/><path class="cls-3" d="M81.66,291.94l-.82-.52c-.38-.24-.34-.31-.72-.55l-.76-.48c-.38-.24-.31-.34-.76-.63s-.47-.1-.85-.34-.31-.34-.72-.6l-.8-.51c-.38-.23-.35-.27-.77-.53s-.4-.2-.78-.45-.44-.13-.89-.41-.4-.21-.78-.45-.27-.41-.65-.65-.4-.21-.85-.49c-.21-.13-.39-.3-.65-.5a7,7,0,0,1-.42-.71,3.37,3.37,0,0,1-.18-.79,2.12,2.12,0,0,1,.07-.87,1.93,1.93,0,0,1,.26-.8c.24-.38.41-.27.65-.65s.13-.5.37-.88.2-.4.44-.78.3-.39.54-.77.34-.31.6-.73.1-.46.34-.84.3-.4.54-.77l.48-.76.5-.8c.24-.38.38-.29.64-.7s.14-.45.37-.83.18-.42.44-.84.27-.35.51-.73.23-.44.47-.82.38-.29.64-.7l.45-.73.48-.75c.27-.42.13-.51.37-.88s.31-.34.57-.75l.48-.76c.26-.42.33-.37.57-.76s.27-.35.51-.73.23-.44.47-.81.13-.45.39-.86l.48-.76c.26-.42.3-.39.54-.77l.48-.76.5-.79.5-.8c.24-.38.17-.42.41-.8s.27-.36.54-.77l.45-.73c.24-.38.35-.31.61-.72.15-.24.26-.57.49-.71a2,2,0,0,1,.76-.29A1.63,1.63,0,0,1,89,255a2.23,2.23,0,0,1,.81,0,7.07,7.07,0,0,1,.72.31c.45.28.49.21.87.46l.76.47c.38.24.35.28.8.56s.47.1.85.34.33.31.71.55.43.32.81.56l.76.48c.41.26.43.23.85.49l.76.48c.41.26.45.19.83.42s.31.44.69.68.52.09.9.33.31.34.73.61.39.29.77.53l.76.48a6.06,6.06,0,0,1,.72.46c.14.23.18.55.34.84a1.53,1.53,0,0,1,.16.73,4.38,4.38,0,0,1,0,.84,2.21,2.21,0,0,1-.29.83c-.15.24-.42.36-.64.56a1.56,1.56,0,0,1-.67.45,1.65,1.65,0,0,1-.81.21,2.3,2.3,0,0,1-.83-.14,2.43,2.43,0,0,1-.75-.33c-.35-.22-.43-.08-.82-.32L98,266.4c-.38-.24-.29-.38-.71-.64l-.72-.45-.72-.46c-.38-.24-.43-.17-.81-.41s-.39-.15-.76-.39-.3-.38-.64-.6-.46-.19-.84-.43-.28-.32-.66-.56a4.15,4.15,0,0,0-1-.34c-.33,0-.64,0-1,.05a4.23,4.23,0,0,0-1,.36,4.83,4.83,0,0,0-.58.84c-.26.42-.4.33-.61.67s-.07.49-.29.83-.41.27-.63.62-.16.48-.38.83-.27.35-.49.7-.31.34-.52.68a1.91,1.91,0,0,0-.25,1,2.75,2.75,0,0,0-.12,1,5.28,5.28,0,0,0,.42.94,4.09,4.09,0,0,0,.86.55c.38.24.31.34.66.56s.42.17.77.39.37.33.75.57.41.11.78.35.34.31.69.53.4.21.78.45.25.35.63.59l.76.48c.24.15.59.22.73.46a1.54,1.54,0,0,1,.29.76,7.76,7.76,0,0,1,.23.77,6.43,6.43,0,0,1-.11.8,2.94,2.94,0,0,1-.33.81,1.63,1.63,0,0,1-.56.51c-.24.24-.36.5-.64.56a2.21,2.21,0,0,1-.87.23c-.24,0-.48-.16-.78-.21s-.57,0-.81-.17l-.76-.48c-.38-.24-.36-.28-.7-.49l-.76-.48c-.35-.22-.26-.36-.64-.6l-.72-.46c-.38-.24-.43-.17-.84-.43l-.72-.46c-.35-.21-.42-.11-.79-.35a1.71,1.71,0,0,0-.88-.36,2.08,2.08,0,0,0-1.85.47c-.26.18-.65.27-.85.58s-.15.48-.44.92-.36.35-.64.8-.09.52-.38,1-.43.31-.71.76a2.78,2.78,0,0,0-.29,1,3.79,3.79,0,0,0,0,1,4.7,4.7,0,0,0,.44.9,2.61,2.61,0,0,0,.76.63l.72.45c.38.24.32.35.66.57s.39.29.77.53.46.05.84.29.29.37.63.59.36.28.71.49.46.11.84.34.26.36.67.62.47.1.82.32.33.31.68.53a5.21,5.21,0,0,1,.62.54,1.92,1.92,0,0,1,.4.74,2.84,2.84,0,0,1,.14.85c0,.26.2.52.06.81s-.3.49-.45.73a2.66,2.66,0,0,1-.52.59,2.89,2.89,0,0,1-.69.48,4.06,4.06,0,0,1-.82.16c-.28,0-.54,0-.84-.05a5.68,5.68,0,0,1-.74-.37l-.79-.5A3.51,3.51,0,0,1,81.66,291.94Z"/><path class="cls-3" d="M32.48,243.46a5.49,5.49,0,0,1,.24-.78,2.64,2.64,0,0,1,.33-.79,4.86,4.86,0,0,1,.61-.55c.37-.26.27-.4.64-.66l.75-.55c.37-.26.42-.2.81-.48s.44-.17.8-.43.34-.3.74-.58l.72-.53.76-.55c.37-.26.27-.4.67-.68l.72-.53c.33-.24.38-.17.74-.44s.38-.32.74-.58.43-.16.83-.45.32-.33.68-.59.37-.33.73-.59.44-.16.8-.42.42-.26.79-.52.29-.37.69-.65.43-.17.79-.43.3-.36.69-.65.34-.3.7-.56.5-.15.86-.42l.76-.55c.36-.26.24-.43.61-.69s.45-.13.85-.42.27-.39.63-.66.45-.07.85-.36.24-.43.6-.69.42-.26.79-.52.43-.16.8-.42.32-.39.68-.65l.76-.56c.37-.26.39-.22.75-.49s.47-.19.84-.45.42-.46.67-.54a2.7,2.7,0,0,1,.83,0c.27,0,.59-.17.84-.1a3.55,3.55,0,0,1,.7.55c.27.16.58.24.74.47.29.39.12.51.39.88s.29.34.56.7l.52.73c.29.39.32.37.59.73l.53.73.54.76c.27.36.2.41.47.77l.52.73c.27.36.33.31.62.71s.33.32.59.68l.53.73a3.85,3.85,0,0,0,.32.92l.4.77c.1.28.42.5.49.81a3.21,3.21,0,0,1,.18.87,3.84,3.84,0,0,1,.38.88c0,.27.06.56.12.93s0,.57,0,.84.19.62.2.91-.12.6-.14.91,0,.58,0,.93,0,.59-.06.9a3.61,3.61,0,0,1-.23.93c-.07.25-.07.6-.12.88s-.37.53-.45.84a4.3,4.3,0,0,1-.31.82,6.19,6.19,0,0,1-.37.88c-.13.24-.21.55-.37.82a5.06,5.06,0,0,1-.47.8c-.15.21-.23.52-.4.84s-.39.43-.55.7l-.56.76a6.55,6.55,0,0,1-.63.66c-.17.17-.34.5-.58.72s-.52.33-.73.53a7.32,7.32,0,0,1-.64.71,3,3,0,0,1-.73.53,3.35,3.35,0,0,1-.6.69c-.23.17-.45.43-.68.6s-.64.3-.87.47a7.12,7.12,0,0,1-.8.49,4,4,0,0,1-.84.5c-.26.14-.5.36-.79.52s-.6.14-.89.3-.6.28-.91.4a8.1,8.1,0,0,1-.89.24,5,5,0,0,1-.88.24,9.23,9.23,0,0,0-.89.44,5.36,5.36,0,0,1-.94.18c-.3.07-.65.07-.92.11s-.67,0-1,0a6,6,0,0,1-.93.11,4,4,0,0,1-.92,0l-.93,0a9.07,9.07,0,0,0-.94-.18c-.28-.05-.52-.23-.8-.27a8.8,8.8,0,0,0-1-.1c-.3-.14-.5-.35-.82-.51l-.8-.34c-.32-.16-.57-.23-.84-.39s-.6-.27-.81-.42-.43-.45-.66-.64a6.33,6.33,0,0,0-.77-.5l-.64-.68c-.24-.18-.3-.54-.5-.75s-.39-.47-.58-.74-.36-.29-.63-.66l-.52-.72-.51-.69c-.28-.4-.15-.5-.41-.86s-.37-.29-.63-.65-.27-.31-.54-.68-.13-.45-.41-.85-.3-.34-.56-.7-.21-.36-.47-.72-.3-.34-.59-.74-.33-.31-.57-.64a6.77,6.77,0,0,1-.47-.72A4.35,4.35,0,0,1,32.48,243.46Zm26.44-13.07a2.67,2.67,0,0,0-1,.05,2.93,2.93,0,0,0-.9.5l-.76.55c-.36.26-.38.23-.78.51s-.47.19-.83.46-.35.35-.71.61-.34.3-.77.61-.32.33-.71.62l-.76.55c-.4.29-.52.12-.88.38s-.32.33-.71.62-.35.35-.71.62-.43.25-.79.52-.34.29-.77.6-.39.23-.75.49-.47.19-.83.46-.33.44-.7.7-.41.2-.77.46-.48.25-.84.51-.3.42-.66.69-.39.22-.82.54-.32.33-.68.59-.47.19-.83.45a2.84,2.84,0,0,0-.71.76,2.51,2.51,0,0,0-.35.91,3.27,3.27,0,0,0,.08,1,2.67,2.67,0,0,0,.37.93c.27.37.37.3.63.66l.57.79.53.73c.29.4.22.44.48.81s.33.31.62.71c.17.23.24.53.43.79l.62.51a3,3,0,0,0,.66.63c.2.21.52.23.76.36a4.06,4.06,0,0,0,.78.39l.76.35a8.37,8.37,0,0,1,.84.25,3.53,3.53,0,0,0,.84.05c.32,0,.61,0,.87,0s.64,0,.91,0a3.8,3.8,0,0,0,.86-.12,3.21,3.21,0,0,0,.93-.12l.87-.18c.29-.16.5-.36.79-.52a3,3,0,0,0,.81-.34,3.08,3.08,0,0,0,.81-.34,3.51,3.51,0,0,0,.85-.36c.28-.1.47-.39.73-.52l.76-.55c.19-.15.46-.34.67-.54a8.15,8.15,0,0,0,.76-.55l.72-.53c.24-.22.3-.56.51-.82s.55-.29.71-.56.36-.47.58-.72a5,5,0,0,0,.44-.78c.19-.23.23-.52.43-.81s.35-.41.49-.71.16-.62.29-.92a7.46,7.46,0,0,0,.28-.8c.07-.31.31-.53.39-.84l.09-.92c0-.29,0-.59,0-.88l-.09-.89a4.63,4.63,0,0,0-.09-.89c-.07-.3,0-.61-.06-.91a5.87,5.87,0,0,0-.46-.78,3,3,0,0,0-.43-.8,6.24,6.24,0,0,0-.36-.84c-.29-.4-.32-.37-.61-.76s-.25-.43-.54-.82-.34-.41-.6-.77-.36-.35-.67-.78-.34-.61-.66-.78A3.65,3.65,0,0,0,58.92,230.39Z"/></svg>