<svg xmlns="http://www.w3.org/2000/svg" viewBox="0 0 346.59 208.64"><defs><style>.cls-1{fill:#fa8778;}</style></defs><title>mdeagua-03</title><g id="_2" data-name="2"><path class="cls-1" d="M45.16,135.27a3.48,3.48,0,0,1-.18.92,2.56,2.56,0,0,1-.26.94c-.18.25-.51.38-.77.61s-.51.39-.87.47-.45.15-.89.25a6.61,6.61,0,0,1-1,.06c-.45.11-.47.19-.91.29s-.45.15-.9.25-.47.06-.91.16-.45.15-.91.29-.49,0-.94.08-.47.22-.91.32l-.89.22-.94.24c-.44.1-.45,0-.9.08a2.24,2.24,0,0,0-.79.36c-.3.18-.34.38,0,.58a5.17,5.17,0,0,0,.82.23c.4.1.39.14.82.24s.5,0,.94.14.39.3.86.41.46,0,.85.12.45.06.93.17.42.15.86.25.45.06.84.15.45.23.89.34.46,0,.94.1.41.22.85.32.43-.07.91,0l.87.21c.48.12.44.27.88.38s.47-.06.87,0l.91.22c.44.1.42.18.86.28s.45.19.85.29.46,0,.9.08a5.87,5.87,0,0,1,.86.25,8,8,0,0,1,.58.59,2.73,2.73,0,0,1,.46.7,2,2,0,0,1,.3.87,5.07,5.07,0,0,1-.12.85,5.87,5.87,0,0,1-.38.75,2.36,2.36,0,0,1-.6.57c-.2.16-.4.45-.62.52a1.79,1.79,0,0,1-.87.13,2.35,2.35,0,0,1-.85,0c-.44-.1-.41-.22-.85-.32s-.46-.15-.9-.26-.45-.06-.92-.17l-.88-.21c-.43-.1-.42-.14-.9-.25s-.45-.06-.88-.17-.39-.13-.87-.24-.46,0-.9-.09-.44-.27-.87-.37-.45-.07-.89-.17-.46-.15-.9-.25-.48.05-1-.06-.41-.22-.85-.32-.46,0-.94-.1-.41-.22-.84-.33-.49-.07-.93-.17-.42-.14-.9-.26-.45-.06-.88-.16-.43-.14-.9-.26-.45-.06-.89-.16l-.91-.22c-.44-.1-.47,0-.94-.09s-.36-.25-.8-.36-.44-.06-.88-.16-.5,0-.93-.14l-.92-.21c-.43-.1-.44-.07-.88-.17s-.47-.15-.9-.25-.42-.18-.86-.29-.46-.15-.9-.25-.43-.15-.91-.26-.44-.06-.88-.16-.5,0-.94-.1a7.09,7.09,0,0,1-.78-.39,2.84,2.84,0,0,1-.6-.69,2.12,2.12,0,0,1-.45-.73,5.55,5.55,0,0,1-.23-.81,3.45,3.45,0,0,1,.21-.91,3.18,3.18,0,0,1,.36-.8,5.39,5.39,0,0,1,.71-.55,1.82,1.82,0,0,1,.78-.27c.44-.11.44-.28.88-.38s.45.06.89,0,.5-.14.94-.24.39-.25.84-.35.48.07.93,0,.46-.18.9-.28l.89-.21.85-.22.88-.21c.45-.11.48-.06.92-.17l.89-.2c.44-.11.43-.07.88-.18s.41-.15.85-.25l.89-.22c.45-.1.49-.09,1-.19s.43,0,.87-.13.43-.06.88-.17.46-.18.89-.25a1.78,1.78,0,0,0,.92-.54.78.78,0,0,0,.26-.9,1.7,1.7,0,0,0-.74-.76,7.41,7.41,0,0,0-.7-.58,6.67,6.67,0,0,1-.69-.63c-.35-.29-.27-.31-.62-.6l-.74-.59c-.35-.3-.34-.34-.69-.63s-.41-.22-.76-.51l-.7-.59c-.35-.29-.34-.33-.69-.62s-.3-.32-.65-.61-.34-.34-.69-.63L27,126a6.26,6.26,0,0,1-.7-.59l-.7-.58c-.35-.29-.44-.27-.79-.56s-.25-.35-.61-.65l-.72-.63c-.36-.29-.36-.25-.72-.54s-.39-.27-.75-.56a7.41,7.41,0,0,1-.6-.64,4.35,4.35,0,0,1-.25-.9c0-.26-.15-.58-.17-.88a3,3,0,0,1,.36-.79,1.9,1.9,0,0,1,.58-.7c.22-.2.37-.5.68-.56a2.39,2.39,0,0,1,.86-.3,3.77,3.77,0,0,1,.9.09c.44.1.42.18.9.29s.43.15.86.25.5,0,.93.14.43.14.91.25.45,0,.89.13.46,0,.93.13.4.26.84.37l.91.21c.44.1.45.06.92.18s.45.06.88.17.46,0,.94.14.41.18.81.26L36,120c.43.1.41.18.85.28s.47.16.9.26.46,0,.9.12.46.16.9.26l.91.21c.44.11.43.15.87.25s.46,0,.94.1.43.14.86.25.46.19.89.29.46,0,.94.13.43.14.86.24.46,0,.93.14l.88.21c.47.11.46.19.89.29s.45.06.85.16.48.07.92.18.42.14.86.25.49.07.92.17.43.14.91.26.44.06.88.15a3,3,0,0,1,.85.29,3.43,3.43,0,0,1,.56.67,2.29,2.29,0,0,1,.48.62,3.34,3.34,0,0,1,.13.87,2.14,2.14,0,0,1,0,.84,2,2,0,0,1-.34.76c-.18.2-.42.36-.6.57a3.7,3.7,0,0,1-.65.47,1.66,1.66,0,0,1-.82.1,1.68,1.68,0,0,1-.83,0c-.44-.1-.43-.14-.87-.24s-.52.09-1,0l-.91-.21c-.44-.1-.43-.15-.87-.25s-.41-.18-.89-.29l-.87-.21c-.4-.09-.39-.13-.87-.24s-.47,0-.91,0-.45-.23-.88-.33-.46,0-.9-.12-.45-.19-.89-.3-.46,0-.94-.09-.39-.3-.83-.41-.52.09-1,0-.4-.26-.83-.37l-.92-.21-.91-.22-.87-.2a2.3,2.3,0,0,0-.82-.07c-.39,0-.62.32-.36.63a2.56,2.56,0,0,0,.57.6c.35.29.34.33.65.61a4.91,4.91,0,0,1,.71.54c.35.3.36.26.71.55s.46.19.81.48.19.42.54.72l.66.57c.36.29.36.29.72.55s.3.32.65.61a6.54,6.54,0,0,0,.71.5,7.62,7.62,0,0,1,.77.48c.35.29.31.32.65.61s.24.43.59.73.59.34.73.63A2.94,2.94,0,0,1,45.16,135.27Z"/><path class="cls-1" d="M50.74,92.29a6.92,6.92,0,0,1-.74-.57c-.27-.26-.49-.44-.73-.67l-.57-.66-.52-.86-.57-.66a6.39,6.39,0,0,1-.62-.74c-.17-.23-.33-.57-.47-.78l-.37-.85a4.21,4.21,0,0,1-.45-.82c-.12-.3-.3-.55-.46-.87s-.07-.58-.14-.89a3.79,3.79,0,0,1-.36-.85,5,5,0,0,1-.29-.9,8,8,0,0,1-.17-.91l-.15-.94c0-.32.1-.59.12-.94s-.22-.59-.2-.88.22-.61.23-1l.12-.89a5.55,5.55,0,0,0,.22-.87c.1-.33.06-.67.14-.92a8.87,8.87,0,0,1,.39-.89,6.28,6.28,0,0,1,.39-.83,6.6,6.6,0,0,1,.45-.78c.2-.26.31-.54.51-.79s.48-.41.65-.64.35-.51.56-.71.53-.35.8-.56a4.92,4.92,0,0,1,.72-.53,3.57,3.57,0,0,1,.81-.45,3.17,3.17,0,0,1,.82-.45l.85-.36a5.57,5.57,0,0,1,.87-.31,7,7,0,0,1,1-.09,7.28,7.28,0,0,1,.88-.14,3.21,3.21,0,0,1,.93-.26,7.17,7.17,0,0,1,.94.11c.29,0,.58,0,.9,0a3.38,3.38,0,0,0,1,0l.92.09a4.26,4.26,0,0,1,.9.23,8.28,8.28,0,0,1,.89.13,6.59,6.59,0,0,1,.88.32c.33.11.65.1.89.18s.6.31.87.42a5.39,5.39,0,0,1,.93.2,3.61,3.61,0,0,1,.84.45c.28.17.51.34.79.51a5.1,5.1,0,0,1,.87.27c.23.18.49.44.75.64a7.67,7.67,0,0,1,.79.45c.3.14.45.41.71.61l.74.58c.2.2.51.34.71.55a6.32,6.32,0,0,1,.61.74c.2.2.54.36.78.6s.24.55.47.78a8.76,8.76,0,0,0,.55.69c.18.3.55.42.7.7a3.22,3.22,0,0,1,.45.81l.44.76c.16.33.45.56.57.8s.22.59.37.86a8.88,8.88,0,0,1,.39.82,2.86,2.86,0,0,1,.34.89c.13.31,0,.67.15.94s.27.52.37.86a8,8,0,0,0,.09.95c0,.28,0,.61,0,.9a8.89,8.89,0,0,0,.26.92l0,.91c0,.32-.13.62-.15.92s0,.67-.06.93a6.34,6.34,0,0,1-.32.89,6.87,6.87,0,0,1-.25.84l-.29.91a7.58,7.58,0,0,0-.43.81c-.14.25-.19.58-.36.86s-.5.38-.68.61-.34.5-.54.76-.41.46-.62.66a4.53,4.53,0,0,1-.69.7,5.19,5.19,0,0,1-.72.52,6.38,6.38,0,0,1-.83.4,8.23,8.23,0,0,0-.78.53,8,8,0,0,0-.9.17,6.49,6.49,0,0,1-.89.34c-.28.09-.6.1-.93.21a4.45,4.45,0,0,1-.89.13c-.29,0-.6.05-.91.12s-.64,0-.94,0-.62.13-.9.17L63.14,98c-.3,0-.61-.16-.9-.18a7.69,7.69,0,0,1-.92-.15,5.34,5.34,0,0,1-.93-.2c-.3-.08-.63,0-.93-.06s-.54-.31-.87-.41-.6-.16-.87-.27a3.32,3.32,0,0,1-.84-.39,3.74,3.74,0,0,1-.91-.3c-.28-.17-.48-.37-.76-.54s-.61-.22-.86-.36a3.82,3.82,0,0,1-.79-.51c-.25-.15-.43-.44-.71-.56s-.46-.46-.69-.64-.58-.24-.84-.44A6.76,6.76,0,0,1,50.74,92.29ZM64.33,74.85c-.31-.14-.5-.49-.72-.61l-.81-.43a8.65,8.65,0,0,1-.91-.35L61,73.25a4.19,4.19,0,0,0-.89-.38c-.3-.08-.65-.1-.9-.18s-.6-.22-.9-.24-.6,0-.9,0-.66-.09-1-.09a7.58,7.58,0,0,0-.91.23c-.28,0-.58,0-.89.08a8.62,8.62,0,0,0-.91.18,2.26,2.26,0,0,0-.77.53,3.94,3.94,0,0,0-.89.34,5,5,0,0,0-.59.63,3.39,3.39,0,0,0-.71.58,8.28,8.28,0,0,0-.52.79,3.45,3.45,0,0,0-.27.88,7,7,0,0,0-.39.83c0,.3,0,.61,0,.93s-.15.6-.17,1a4.08,4.08,0,0,0,.08.89c0,.29.28.58.35.89s.07.57.13.89.14.62.26.92a6.61,6.61,0,0,0,.5.76,6.85,6.85,0,0,0,.4.88c.12.24.32.45.5.75a7.48,7.48,0,0,1,.53.72c.21.26.22.64.46.87s.48.38.68.58a6.22,6.22,0,0,0,.64.71c.2.21.38.5.58.71s.59.25.84.45a8,8,0,0,0,.77.55,6.3,6.3,0,0,0,.68.58c.29.17.59.25.87.42s.48.37.73.51a8.87,8.87,0,0,0,.89.39,7.76,7.76,0,0,0,.85.3l.89.33c.32,0,.64,0,.93,0a3.22,3.22,0,0,0,.89.38c.29,0,.67,0,1,0a4.31,4.31,0,0,0,.88,0,4.24,4.24,0,0,0,.93-.2c.29,0,.57-.07.88-.14s.66,0,.92-.11a2.53,2.53,0,0,0,.78-.48c.33-.15.65-.16.92-.31a7.69,7.69,0,0,0,.62-.66,4.3,4.3,0,0,0,.7-.64,6.17,6.17,0,0,0,.52-.74,6.29,6.29,0,0,0,.4-.83c.07-.3.19-.58.26-.93s0-.61,0-.9a2.79,2.79,0,0,0,.09-.91V85a5.4,5.4,0,0,0-.2-.93,3.87,3.87,0,0,0-.2-.88c-.06-.31-.35-.53-.48-.84s-.13-.56-.25-.87a7.22,7.22,0,0,0-.51-.81c-.12-.24-.21-.52-.39-.82a5.62,5.62,0,0,1-.58-.71,6.87,6.87,0,0,1-.51-.81c-.18-.24-.51-.35-.71-.55a3.64,3.64,0,0,0-.64-.71c-.2-.21-.38-.5-.58-.71s-.49-.43-.72-.61-.51-.34-.77-.54S64.58,75,64.33,74.85Z"/><path class="cls-1" d="M108.42,44.82c-.24-.42-.2-.44-.42-.84l-.46-.82c-.2-.35-.27-.31-.48-.71s-.19-.41-.43-.84-.07-.47-.27-.82-.25-.38-.47-.77-.21-.44-.42-.84-.24-.33-.45-.73-.35-.37-.57-.76-.11-.45-.31-.81-.2-.45-.42-.84-.39-.29-.63-.72-.17-.38-.38-.77-.08-.47-.3-.86-.27-.41-.47-.77-.33-.33-.54-.72l-.46-.82c-.2-.36,0-.44-.27-.83a6.11,6.11,0,0,1-.44-.79,3.11,3.11,0,0,1,0-.82l.23-.77a4.2,4.2,0,0,1,.57-.65,2.82,2.82,0,0,1,.65-.5,2,2,0,0,1,.74-.37,3.29,3.29,0,0,1,.85-.14,4.22,4.22,0,0,1,.82.29,2.29,2.29,0,0,1,.64.58,1.63,1.63,0,0,1,.58.61c.22.39.14.43.36.82l.46.82c.22.4.15.44.36.83s.42.33.64.72.15.43.38.86.17.38.38.77.15.43.39.86.29.36.51.74.29.36.52.79.19.41.41.8.27.41.49.8.25.37.49.8,0,.49.26.88.36.32.6.74.18.42.4.81.13.49.35.88.36.31.6.74l.43.78c.22.4.15.44.39.87s.14.43.36.82.42.33.64.72.09.42.31.81.34.37.56.76.11.45.33.84.17.47.38.86.37.32.6.74l.44.79.46.82c.22.39.18.41.4.8l.45.82c.22.4.29.36.53.79s.11.45.33.84l.46.82a3.09,3.09,0,0,1,.34.79,2.55,2.55,0,0,1-.11.81,1.69,1.69,0,0,1-.24.83c-.1.24-.13.59-.36.77a2.85,2.85,0,0,1-.63.39,2.93,2.93,0,0,1-.82.36,2.78,2.78,0,0,1-1-.12,2.36,2.36,0,0,1-.8-.35c-.37-.26-.48-.1-.83-.33l-.86-.45c-.4-.2-.31-.3-.69-.56l-.86-.45c-.35-.22-.41-.15-.82-.39s-.32-.33-.7-.59-.43-.18-.84-.42-.38-.25-.75-.51a4.65,4.65,0,0,1-.86-.37,7,7,0,0,1-.79-.49c-.39-.2-.34-.28-.72-.54s-.5-.14-.89-.34-.29-.35-.74-.57-.46-.07-.83-.33-.35-.37-.76-.6-.42-.1-.84-.33-.38-.35-.76-.61-.4-.15-.79-.35-.39-.35-.76-.6-.46-.07-.88-.31-.36-.32-.71-.54l-.81-.44-.8-.44a5.46,5.46,0,0,1-.84-.42c-.42-.23-.33-.33-.71-.59a2.33,2.33,0,0,0-.83-.24c-.4-.05-.51.1-.4.46a1.53,1.53,0,0,0,.18.83c.22.4.29.36.49.71l.46.82.46.82c.19.36.16.38.38.78s.18.41.4.8.27.41.47.76.11.46.33.85.34.37.56.76.24.33.45.73.1.5.32.9.32.33.52.69.2.44.42.84l.44.78.43.79c.22.39.15.43.37.82s.31.39.51.74.29.36.51.75l.45.82.42.75.45.82c.12.21.06.53.17.8a1.53,1.53,0,0,1,0,.82,1.45,1.45,0,0,1-.07.88c-.1.24-.38.4-.61.57a1.74,1.74,0,0,1-.66.51,2.34,2.34,0,0,1-.71.39,7.27,7.27,0,0,1-.82,0,4,4,0,0,1-.81-.2,3,3,0,0,1-.75-.52,2.49,2.49,0,0,1-.4-.71L99.22,65c-.22-.39-.18-.41-.4-.81s-.34-.36-.56-.76-.26-.37-.49-.8l-.44-.78c-.22-.39-.18-.41-.42-.84s-.15-.44-.37-.83l-.45-.82c-.22-.39-.33-.33-.57-.76s-.18-.41-.4-.8-.11-.45-.35-.88-.32-.33-.54-.73-.27-.31-.51-.74-.07-.47-.29-.87-.31-.38-.53-.78-.11-.45-.33-.84-.38-.35-.6-.74-.07-.47-.31-.9l-.44-.79-.45-.82c-.22-.39-.33-.33-.55-.72l-.45-.82c-.22-.39-.15-.43-.39-.86s-.29-.35-.51-.75l-.45-.81c-.22-.4-.15-.44-.37-.83s-.31-.39-.52-.78-.12-.45-.36-.88-.23-.34-.45-.73l-.45-.82c-.22-.39-.33-.33-.55-.72s-.11-.46-.35-.89-.29-.35-.5-.74a5.69,5.69,0,0,1-.33-.85,2.77,2.77,0,0,1,0-.86,3,3,0,0,1,.29-.81,2.21,2.21,0,0,1,.5-.7,5.38,5.38,0,0,1,.64-.54,2.93,2.93,0,0,1,.85-.24,5.08,5.08,0,0,1,.87,0,5.05,5.05,0,0,1,.77.46l.81.44.75.51c.39.21.48.11.89.35l.75.51c.38.17.38.26.76.43a8.44,8.44,0,0,0,.8.53,3.9,3.9,0,0,0,.83.47c.37.26.42.1.84.33s.34.28.75.52.43.18.8.44l.81.44c.37.25.39.29.75.51s.36.31.77.55.48.11.9.35l.73.48a7.27,7.27,0,0,1,.78.55c.39.2.44.12.89.34s.29.35.66.61a4.94,4.94,0,0,1,.81.44c.43.18.46.16.83.33a6.31,6.31,0,0,0,.76.51,4.63,4.63,0,0,1,.8.44,4.7,4.7,0,0,1,.84.42c.42.24.38.26.79.5s.33.33.76.6a5.16,5.16,0,0,0,.78.32c.41,0,.54-.21.49-.55a2.38,2.38,0,0,0-.31-.81c-.22-.39-.29-.36-.51-.75S108.62,45.18,108.42,44.82Z"/><path class="cls-1" d="M141.92,13.83c.45-.05.45,0,.94-.07s.44-.1.88-.15.43-.18.88-.24l.85-.11c.48-.06.5.06.94,0s.44-.14.88-.2.47.07.87,0,.42-.25.91-.32.47.15.91.09.42-.25.83-.31.47.15.95.09.43-.22.87-.27l.89-.12c.41-.05.41,0,.86-.06s.5,0,.94,0l.89-.11.85-.11c.45-.06.45,0,.94-.08l.89-.11c.44-.06.42-.22.87-.28s.42.07.86,0a4.41,4.41,0,0,1,.83,0,2.73,2.73,0,0,1,.85.22,6.74,6.74,0,0,1,.68.49,2.94,2.94,0,0,1,.5.71,2,2,0,0,1,.15.85,5.55,5.55,0,0,1,.06.82,2,2,0,0,1-.3.86c-.14.22-.36.41-.54.64a6.23,6.23,0,0,1-.68.5,6.43,6.43,0,0,1-.88.19c-.44.06-.43.14-.88.19l-.89.11c-.44.06-.46-.06-.94,0s-.47.18-.92.24l-.93.12a2.78,2.78,0,0,0-1,.12,2.56,2.56,0,0,0-.69.75,2.13,2.13,0,0,0-.46.88,2,2,0,0,0-.08,1l.12.93.11.89.12,1c.06.45.18.43.24.92s0,.45,0,.9-.06.5,0,.94.14.44.19.88,0,.5,0,.94.1.44.16.93,0,.45.07.9l.12,1,.12.93c.06.44.18.43.24.87l.11.93c.06.45-.06.47,0,.91s.15.48.2.92,0,.46,0,.94.14.44.19.88,0,.53.09,1,0,.45.07.94.1.43.16.88l.11.93c.06.45.14.44.2.88s0,.5,0,.94.09.44.15.93,0,.45.08.89.14.52.2,1c0,.24-.06.54-.06.83a7,7,0,0,1-.27.81,2,2,0,0,1-.58.57,2.27,2.27,0,0,1-.59.53,3.24,3.24,0,0,1-.8.18,3,3,0,0,1-.86.07,3.26,3.26,0,0,1-.78-.32,1.49,1.49,0,0,1-.57-.62,1.75,1.75,0,0,1-.49-.64,5.74,5.74,0,0,1-.3-.74c-.06-.45-.18-.43-.25-1l-.11-.89c-.06-.49,0-.49,0-.94s-.13-.44-.19-.92l-.12-.89c-.06-.45.07-.46,0-1s0-.45-.08-.89l-.12-.94c-.06-.52-.14-.51-.2-1s-.14-.43-.19-.88.06-.5,0-.94-.09-.44-.16-.93.07-.46,0-.9l-.12-.94c-.05-.44-.13-.43-.19-.88s0-.49-.08-.93-.14-.52-.2-1,0-.45-.07-.9-.19-.47-.24-.91l-.12-.94c-.06-.44.06-.45,0-.9l-.12-.93c-.06-.45-.18-.43-.23-.88s.1-.5,0-.95-.15-.52-.2-1,.06-.46,0-.91l-.12-.93a2.83,2.83,0,0,0-.33-1,2.38,2.38,0,0,0-.74-.65,4.52,4.52,0,0,0-.82-.6,2.87,2.87,0,0,0-1,.13c-.49.06-.5,0-1,.05l-.89.11c-.53.06-.52.14-1,.2s-.47-.07-1,0-.43.18-.88.24a2,2,0,0,1-.84-.18,2,2,0,0,1-.74-.32,2,2,0,0,1-.68-.45,2.53,2.53,0,0,1-.45-.69,3.43,3.43,0,0,1-.35-.77,2.38,2.38,0,0,1,.14-.84,4,4,0,0,1,.23-.81,3,3,0,0,1,.44-.72c.18-.22.51-.22.78-.38a2.77,2.77,0,0,1,.78-.35,3.14,3.14,0,0,1,.86,0Z"/><path class="cls-1" d="M186.15,46a2.88,2.88,0,0,1-.14-.87,3.07,3.07,0,0,1,.11-.86,3.84,3.84,0,0,1,.43-.73c.25-.37.29-.36.54-.72a8.54,8.54,0,0,1,.6-.78c.21-.37.1-.44.4-.83l.47-.77c.27-.44.33-.34.59-.74a7.23,7.23,0,0,0,.44-.82l.51-.77c.27-.44.33-.34.63-.73s.15-.47.4-.83.29-.35.55-.75.3-.39.52-.8.4-.29.66-.69l.47-.77c.27-.44.12-.51.37-.88s.22-.41.51-.76.37-.33.58-.7l.53-.84c.29-.35.18-.42.43-.78a8,8,0,0,0,.59-.74c.26-.41.36-.3.63-.74a5.3,5.3,0,0,0,.51-.76c.29-.35.18-.42.44-.82a5.47,5.47,0,0,1,.59-.74c.26-.4.11-.48.4-.83s.29-.35.52-.8.37-.34.58-.71a7,7,0,0,0,.4-.83c.25-.36.29-.35.56-.79l.58-.7a7.23,7.23,0,0,0,.44-.82c.29-.35.44-.28.69-.64s.12-.51.34-.92.29-.36.54-.72.33-.34.59-.74.15-.47.45-.86a6.29,6.29,0,0,1,.58-.49,1.64,1.64,0,0,1,.78-.33,2.29,2.29,0,0,1,.72-.21c.26,0,.54-.17.78-.11l.09,0a1.74,1.74,0,0,1,.72.33,1.92,1.92,0,0,1,.58.55,1.87,1.87,0,0,1,.38.72,4.11,4.11,0,0,1,.37.76c0,.42,0,.41,0,.92s0,.46,0,.9.15.45.22.88.06.47.16.92,0,.49,0,.93.11.44.17.92a6.78,6.78,0,0,0,0,.89c.06.47.1.48.16.95a3.82,3.82,0,0,0,.13.87c.06.48,0,.47.09.9s.15.45.17.88.19.46.2,1l.13.91c.06.44.06.44.09.86l.13.91.07.94c.06.47.11.44.17.91s0,.46,0,.9.15.45.22.88a6.29,6.29,0,0,1,.11,1,6.73,6.73,0,0,0,0,.89,8.76,8.76,0,0,0,.21.93,7.34,7.34,0,0,0,0,.93,7.09,7.09,0,0,1,.18.87,3.47,3.47,0,0,0,.08.9c.05.52-.07.49,0,1s.2.42.22.85l.13.91c0,.46.11.44.13.9a7.72,7.72,0,0,1,.07.94l.09.9h.17s-.17,0-.18,0a6.45,6.45,0,0,1,.19,1c.09.48.13.49.19,1a9.93,9.93,0,0,1,.14,1l.19,1a2.78,2.78,0,0,1-.11.81,2.64,2.64,0,0,1-.27.82,4.18,4.18,0,0,1-.56.62,5.59,5.59,0,0,1-.63.57,2.11,2.11,0,0,1-.77.24,2.19,2.19,0,0,1-1-.11,2.31,2.31,0,0,1-.69-.29c-.26-.14-.54-.2-.7-.41a2.15,2.15,0,0,1-.46-.73,3.84,3.84,0,0,1-.24-.77c-.09-.52.08-.52,0-1a9.31,9.31,0,0,0-.27-1c-.06-.48,0-.5,0-1s-.22-.47-.31-1a1.28,1.28,0,0,0-.18-.83c-.17-.21-.43-.35-.63-.57a2.09,2.09,0,0,0-.66-.57c-.21-.17-.36-.46-.65-.65l-.8-.31a4.27,4.27,0,0,0-.8-.35c-.23-.1-.51-.16-.81-.31a3,3,0,0,1-.84-.2,7.62,7.62,0,0,1-.8-.31c-.32-.07-.63,0-.87-.07s-.58-.18-.91-.21a7.2,7.2,0,0,0-.86-.08,7,7,0,0,0-.86-.11c-.29,0-.62,0-.88,0s-.62,0-.88,0a5.05,5.05,0,0,0-.86.3l-.86.09-.81.23a2.29,2.29,0,0,0-.75.54c-.3.4-.23.45-.53.84a3.86,3.86,0,0,1-.61.83c-.22.41-.34.38-.61.82s-.18.46-.45.9a1.7,1.7,0,0,1-.61.61,2.51,2.51,0,0,1-.76.41c-.24.12-.54,0-.8,0a4.54,4.54,0,0,1-.83,0,1.85,1.85,0,0,1-.81-.31c-.22-.13-.36-.42-.53-.62A4,4,0,0,1,186.15,46Zm18.31-19.15a2.11,2.11,0,0,0-.75.54c-.27.44-.12.52-.42.91s-.4.29-.62.7-.2.49-.41.86a7.27,7.27,0,0,0-.57.84c-.29.35-.43.23-.66.68s-.22.41-.52.8L200,33a7.79,7.79,0,0,0-.52.8c-.29.36-.18.42-.49.85a1.72,1.72,0,0,0-.39.62,1.1,1.1,0,0,0,.05.86c.07.22.39.3.65.44a4,4,0,0,0,.73.29,8.72,8.72,0,0,1,1,.14c.29,0,.64.15.93.17a4.46,4.46,0,0,1,.95.22c.36.09.71,0,1.07.08s.67.2,1,.32a1,1,0,0,0,1.58-.68,1.87,1.87,0,0,0,.06-1c-.06-.48-.15-.45-.21-.93s0-.42-.12-.91a3.69,3.69,0,0,0,0-.93c0-.46-.15-.45-.21-.88l-.09-.9c-.1-.49-.06-.48-.15-1s.1-.44,0-.87a7.77,7.77,0,0,1-.21-.93c0-.42-.15-.45-.17-.87s0-.77-.2-1S204.75,26.71,204.46,26.89Z"/><path class="cls-1" d="M258,59.88c.28-.4.31-.37.57-.74l.55-.76c.23-.33.17-.38.43-.75s.29-.34.58-.74.39-.26.63-.6.23-.39.49-.76.32-.37.58-.74.2-.36.46-.72.19-.47.45-.84.36-.29.59-.61.32-.38.58-.74.1-.49.38-.88.27-.31.53-.68.39-.27.65-.63.26-.42.49-.76.16-.43.42-.8l.55-.76c.24-.33.37-.24.63-.6a6.41,6.41,0,0,1,.52-.73,3.35,3.35,0,0,1,.73-.39l.79-.13a3.92,3.92,0,0,1,.83.24,2.73,2.73,0,0,1,.74.38c.2.14.51.26.64.5a3.75,3.75,0,0,1,.5.71,4.11,4.11,0,0,1,.08.86,2.28,2.28,0,0,1-.24.83,1.67,1.67,0,0,1-.31.78c-.26.37-.32.32-.59.69l-.54.76c-.26.37-.33.32-.59.68s-.12.52-.38.89-.32.31-.61.71-.27.31-.53.66-.33.32-.61.72-.19.41-.46.79-.19.41-.47.8-.3.34-.56.71-.25.42-.51.79-.23.39-.51.79-.43.25-.69.61-.13.46-.41.86-.3.34-.56.71-.38.32-.64.69-.13.46-.42.86l-.52.73c-.26.36-.32.31-.61.71s-.33.32-.59.68-.12.52-.38.89-.33.26-.59.62-.19.47-.45.83-.36.3-.62.67-.35.35-.61.71-.13.46-.41.86l-.53.73-.54.76c-.26.37-.29.35-.56.71l-.54.76c-.26.37-.19.42-.48.81s-.36.3-.62.66l-.54.77a3.5,3.5,0,0,1-.57.65,2.53,2.53,0,0,1-.78.24,1.71,1.71,0,0,1-.85.15,1.75,1.75,0,0,1-.85,0,2.37,2.37,0,0,1-.62-.39,3.28,3.28,0,0,1-.68-.59,2.62,2.62,0,0,1-.3-.92,2.11,2.11,0,0,1,0-.87c.07-.45-.11-.48-.06-.89l0-1c0-.45.14-.41.21-.86l0-1c.05-.42,0-.43,0-.91s.16-.43.23-.88,0-.47,0-.94.07-.45.14-.9a5.79,5.79,0,0,1,0-.93,8.78,8.78,0,0,1,.11-.93,5.61,5.61,0,0,1,.18-.87c0-.48-.09-.51-.07-1s.19-.41.2-.91-.14-.44-.07-.89.19-.47.23-1a8.3,8.3,0,0,1-.06-.89,6.94,6.94,0,0,1,.22-.95,8.05,8.05,0,0,1,0-.87c.07-.45.15-.49.22-.94a5.12,5.12,0,0,1-.09-.92c.07-.45.12-.46.17-.88l.05-.91.06-.92a5.69,5.69,0,0,1,0-.94c0-.47.16-.43.23-.88a2,2,0,0,0-.15-.86c-.12-.39-.3-.41-.58-.16a1.41,1.41,0,0,0-.67.52c-.26.36-.2.41-.43.74l-.55.77-.54.76c-.24.33-.27.31-.53.67s-.3.34-.56.7-.25.43-.49.76-.36.29-.62.66-.18.47-.44.84-.21.35-.47.72-.42.3-.68.67-.16.43-.39.76-.32.38-.58.74l-.52.73-.53.73c-.26.37-.32.32-.58.68s-.22.45-.46.78-.19.42-.45.78l-.55.76-.5.7-.54.77c-.14.19-.45.28-.65.48a6.6,6.6,0,0,1-1.55.7,1.57,1.57,0,0,1-.78-.31,1.72,1.72,0,0,1-.74-.37,2.6,2.6,0,0,1-.66-.48,5.46,5.46,0,0,1-.38-.72,3.87,3.87,0,0,1-.17-.82,3,3,0,0,1,.14-.9,2.88,2.88,0,0,1,.47-.67l.55-.76c.26-.36.29-.34.56-.7s.18-.47.44-.84.23-.39.51-.79l.52-.73c.26-.36.3-.34.58-.74s.33-.31.59-.68l.54-.76c.26-.37.17-.44.45-.84s.29-.34.56-.71.35-.29.64-.69.16-.44.42-.8.17-.38.46-.77.39-.27.65-.64.22-.45.48-.81.36-.3.62-.67.15-.49.41-.86.4-.27.68-.66l.52-.73L246,46c.26-.36.16-.44.42-.8l.55-.77c.26-.37.32-.32.61-.72s.19-.41.45-.77l.55-.77c.26-.37.32-.32.58-.69s.22-.44.48-.8.36-.29.65-.69.2-.35.46-.72l.55-.77c.26-.37.16-.44.42-.8s.36-.3.64-.68.2-.42.46-.78a5.65,5.65,0,0,1,.62-.66,2.78,2.78,0,0,1,.79-.34,3,3,0,0,1,.86-.08,2.15,2.15,0,0,1,.85.15,6.51,6.51,0,0,1,.76.34,2.74,2.74,0,0,1,.57.66,4.51,4.51,0,0,1,.4.79,4.63,4.63,0,0,1-.09.89l-.05.91-.14.9c0,.44.11.48.07,1l-.14.9c0,.4-.07.45-.06.85s-.12.52-.14,1a4.12,4.12,0,0,0-.07,1c-.07.45.1.42.06.9s-.1.42-.14.9,0,.46-.05.91l-.06.92c-.07.45-.09.48-.14.9s-.13.46-.17.93.12.48.08,1l-.12.87a8.73,8.73,0,0,1-.17.94c0,.44.08.45.07.95s-.19.41-.26.86a5.74,5.74,0,0,1-.05.92c0,.46.05.49.06.89a7.13,7.13,0,0,0-.14.9,3.88,3.88,0,0,1-.06.92,3.65,3.65,0,0,1,0,.94c0,.47-.07.45-.11.92s-.16.44-.22,1a5.25,5.25,0,0,0,.06.83c.12.39.41.4.7.21a2.29,2.29,0,0,0,.6-.63c.26-.36.19-.41.45-.77S257.74,60.21,258,59.88Zm8.38-25.08L265,33.63l-.85-.36-.87-.32-1.48-1.16-.37-1.87.25-.77.5-.7.65-.48,1.64-.34.82,0,.82.19.75.28.76.49.63.45.7.55.54.59,1.09,1.28,1,1.23,1.18,1.09.81.33.83.39,1.36,1.12.32,1.79-.18.82-.5.69-.72.44-1.6.36h-.85l-.77-.26-.79-.3-1.39-1-.67-.68-1.16-1.33Z"/><path class="cls-1" d="M270.34,93.18a2.71,2.71,0,0,1,.52-.7,2.77,2.77,0,0,1,.69-.52,3.57,3.57,0,0,1,.83-.22c.43-.07.45,0,.88-.11s.49-.06,1-.12.39-.23.88-.29L276,91c.5-.11.47,0,.94-.09a7.71,7.71,0,0,0,.89-.26l.91-.17c.5-.12.47,0,1-.06s.44-.22.87-.3.46,0,.93-.13.49-.06.93-.19.49.09.95,0l.88-.2c.51-.12.46-.28.89-.35s.45-.13.9-.17.5,0,.91-.08l1-.21c.46,0,.43-.16.86-.23s.48,0,.95-.1.46.05,1-.07a6.1,6.1,0,0,0,.9-.16c.46,0,.43-.17.89-.26a5.2,5.2,0,0,1,.95-.1c.47-.1.42-.26.87-.3a6.8,6.8,0,0,0,.94-.19,6.71,6.71,0,0,0,.91-.07A8.1,8.1,0,0,0,297,87c.43-.07.45,0,1-.15l.91-.08a6.52,6.52,0,0,0,.89-.26c.45,0,.51.13.94,0s.45-.28.9-.41.45,0,.89-.11.47,0,.94-.1.44-.22.93-.28c.27,0,.52.07.75.07a1.56,1.56,0,0,1,.79.34,2.08,2.08,0,0,1,.65.36c.19.17.5.27.62.48l.08,0a1.83,1.83,0,0,1,.27.74,2,2,0,0,1,0,.81,1.84,1.84,0,0,1-.25.77,3.24,3.24,0,0,1-.28.79c-.28.32-.3.29-.64.68s-.34.3-.6.66-.22.42-.48.77-.3.37-.54.76-.38.32-.64.68-.24.38-.54.76a5.31,5.31,0,0,0-.6.65c-.3.38-.28.41-.58.78a4,4,0,0,0-.53.71c-.29.37-.31.34-.58.69s-.22.42-.5.74-.2.45-.56.81l-.56.73a7.18,7.18,0,0,1-.54.67l-.57.72-.61.72c-.3.37-.25.38-.54.76s-.34.3-.61.65-.22.42-.48.77a6.36,6.36,0,0,1-.6.75,6.37,6.37,0,0,0-.6.66,7.71,7.71,0,0,0-.52.79,6.93,6.93,0,0,0-.64.68c-.24.38-.24.38-.5.74a3,3,0,0,0-.58.69c-.34.39-.4.29-.68.7s-.16.43-.45.75l-.56.72c-.32.34-.24.39-.56.73s-.35.36-.62.71l-.58.69.12.12s-.12-.12-.15-.1a6.41,6.41,0,0,1-.59.84c-.28.41-.26.44-.55.82a10.16,10.16,0,0,1-.65.82l-.59.84a2.62,2.62,0,0,1-.65.5,2.78,2.78,0,0,1-.78.37,3.87,3.87,0,0,1-.83,0,4,4,0,0,1-.85,0,2.13,2.13,0,0,1-.71-.38,2.18,2.18,0,0,1-.64-.81,2.13,2.13,0,0,1-.28-.69,2.45,2.45,0,0,1-.19-.79,2.25,2.25,0,0,1,.2-.84,4,4,0,0,1,.38-.71c.31-.43.43-.31.73-.68s.27-.5.55-.91.37-.33.7-.72.18-.49.49-.92a1.29,1.29,0,0,0,.48-.72c0-.26-.05-.55,0-.84a1.89,1.89,0,0,0-.06-.87,6.83,6.83,0,0,0,0-.92l-.34-.8a5.27,5.27,0,0,0-.31-.81c-.09-.23-.24-.48-.34-.8a2.91,2.91,0,0,1-.45-.73,5.35,5.35,0,0,1-.34-.79c-.17-.28-.43-.46-.55-.67s-.29-.54-.49-.8a6.41,6.41,0,0,0-.56-.67,5.36,5.36,0,0,0-.51-.69c-.22-.2-.42-.46-.62-.62s-.43-.46-.62-.63a6.75,6.75,0,0,0-.82-.4l-.67-.55-.74-.42a2.43,2.43,0,0,0-.91-.16c-.48.06-.48.16-1,.21a3.86,3.86,0,0,1-1,.15c-.45.12-.51,0-1,.14s-.45.18-1,.3a1.67,1.67,0,0,1-.86,0,3.45,3.45,0,0,1-.83-.26c-.24-.09-.38-.39-.57-.56a4.68,4.68,0,0,1-.57-.61,1.9,1.9,0,0,1-.34-.79,2.31,2.31,0,0,1,.08-.82A3.85,3.85,0,0,1,270.34,93.18Zm26.49-.31a2.06,2.06,0,0,0-.91-.16c-.5.12-.45.28-.94.34s-.49-.09-.93,0-.5.21-.91.32a7.08,7.08,0,0,0-1,.17c-.46,0-.47-.14-.95,0s-.45.13-.94.19l-.91.22a9.19,9.19,0,0,0-.94.19c-.46,0-.43.17-1,.25a1.83,1.83,0,0,0-.72.15,1.11,1.11,0,0,0-.57.64c-.11.21.06.48.14.77a3.77,3.77,0,0,0,.3.73,7.35,7.35,0,0,1,.58.79c.18.22.34.56.52.78a4,4,0,0,1,.51.83c.2.32.5.51.7.82s.32.62.48,1a1.1,1.1,0,0,0,.62.77,1,1,0,0,0,1-.12,1.62,1.62,0,0,0,.75-.65c.3-.37.23-.42.52-.79a9,9,0,0,0,.56-.72c.29-.32.4-.29.64-.68s.22-.42.49-.78l.58-.69c.27-.4.3-.37.61-.8s.38-.23.64-.58.23-.43.52-.8.22-.42.51-.74.52-.56.55-.81S297.17,93,296.83,92.87Z"/><path class="cls-1" d="M313.13,149.57l-.2.85c-.08.3-.17.56-.24.9a2.9,2.9,0,0,0-.12.89,6,6,0,0,0-.41.84c-.05.25-.13.55-.21.81a5.31,5.31,0,0,1-.46.81,8,8,0,0,1-.47.77c-.17.23-.3.5-.47.73a7.1,7.1,0,0,1-.5.81c-.17.24-.53.33-.74.53a5,5,0,0,1-.71.55,5.57,5.57,0,0,1-.75.48,7.67,7.67,0,0,0-.86.34l-.87.25a3.18,3.18,0,0,1-.82.28,8.06,8.06,0,0,1-.91.3c-.28,0-.61,0-.89.09s-.64-.12-1-.15a3.61,3.61,0,0,1-.92-.07l-.93-.15-.86-.25a5.27,5.27,0,0,1-.88-.37,8.41,8.41,0,0,1-.87-.32,5.43,5.43,0,0,0-.81-.46c-.23-.17-.47-.43-.7-.6s-.48-.43-.67-.64-.4-.44-.6-.66a6.2,6.2,0,0,1-.53-.83,4.86,4.86,0,0,1-.55-.7c-.17-.26-.25-.54-.42-.85s-.27-.49-.36-.81-.29-.57-.37-.85-.09-.61-.17-.88-.21-.59-.26-.91,0-.63,0-.91a6.64,6.64,0,0,0-.22-1c0-.29.12-.55.16-.88a7.37,7.37,0,0,1,.11-.93,6.27,6.27,0,0,1,.11-1,6.05,6.05,0,0,0,.28-.91l.24-.86c.12-.3.16-.64.28-.91s.33-.54.46-.8a7.17,7.17,0,0,1,.33-.88,5.08,5.08,0,0,1,.55-.74,3.72,3.72,0,0,1,.58-.82,9.07,9.07,0,0,1,.6-.71l.7-.56a5.34,5.34,0,0,1,.79-.52,3.76,3.76,0,0,1,.77-.61,2.74,2.74,0,0,1,.81-.45,6.48,6.48,0,0,1,.87-.21,5,5,0,0,1,.94-.3c.33,0,.6.12.85.12a5.22,5.22,0,0,1,.82.25,5.59,5.59,0,0,1,.62.57,6,6,0,0,1,.5.63c.08.28.32.49.36.77a2.83,2.83,0,0,1,0,.83,2.76,2.76,0,0,1-.3.83,2.57,2.57,0,0,1-.51.69,1.52,1.52,0,0,1-.73.36,2.65,2.65,0,0,1-.78.32,3.41,3.41,0,0,0-.81.36,2.67,2.67,0,0,0-.79.53,3.72,3.72,0,0,0-.65.67l-.5.78a5.43,5.43,0,0,0-.41.88,6.05,6.05,0,0,0-.28.91c0,.25-.2.56-.28.86s-.16.6-.2.9a3.66,3.66,0,0,0,0,1,6.54,6.54,0,0,0,.09.89,7.25,7.25,0,0,0,.17.93c.08.27.29.53.41.84s.25.55.41.81a4.65,4.65,0,0,0,.56.74c.2.22.43.39.67.61s.5.34.77.5.58.25.87.33a3.13,3.13,0,0,0,.92,0,2.22,2.22,0,0,0,.89-.09,7.12,7.12,0,0,0,.92-.18,3,3,0,0,0,.88-.21c.3-.17.6-.37.83-.53a4,4,0,0,0,.54-.82,7.56,7.56,0,0,0,.24-.9,3,3,0,0,0,.34-.79,4,4,0,0,0,.1-1,5.14,5.14,0,0,0,.32-.91c.05-.25,0-.62.07-.92s0-.62.07-1l.16-.85a3.1,3.1,0,0,0,.08-.92,3.87,3.87,0,0,0,.28-.87c0-.24.05-.54.08-.87s.29-.54.41-.85a5.1,5.1,0,0,1,.29-.82,4.41,4.41,0,0,1,.17-.85,5.28,5.28,0,0,1,.5-.82c.13-.22.25-.53.38-.75s.43-.44.61-.67.24-.57.46-.77a8,8,0,0,1,.69-.63c.23-.16.59-.21.85-.37s.49-.32.8-.49.52-.08.84-.17a7.11,7.11,0,0,1,.87-.25,3.38,3.38,0,0,1,.87-.25c.28,0,.62,0,.91,0s.61,0,.94-.05a5,5,0,0,1,1,0,3.16,3.16,0,0,1,.91.31,4.12,4.12,0,0,1,.88.12c.31.12.55.34.81.46a4,4,0,0,0,.84.37,5,5,0,0,1,.74.56c.27.16.61.24.85.41l.66.64c.25.26.36.49.56.71a3.78,3.78,0,0,1,.56.74,3.45,3.45,0,0,1,.52.74,3.82,3.82,0,0,1,.57.75c.16.26.25.58.41.84l.29.87a5.93,5.93,0,0,1,.05.94,3.15,3.15,0,0,1,.3.86c0,.33.08.61.1,1a3.86,3.86,0,0,1,0,.9,4.48,4.48,0,0,1-.07,1c0,.29-.13.56-.16.89a5.17,5.17,0,0,0-.24.9c-.13.27,0,.62-.11.92s-.34.51-.46.81-.25.57-.41.85-.39.46-.55.78-.29.53-.46.81l-.6.66c-.25.24-.57.33-.83.58a2.24,2.24,0,0,1-.72.39,2.54,2.54,0,0,1-.78.32,7.47,7.47,0,0,1-.82,0,3.1,3.1,0,0,1-.7-.52,3,3,0,0,1-.72-.43,3.4,3.4,0,0,1-.51-.67,4.63,4.63,0,0,1-.08-.85,4.13,4.13,0,0,1,.08-.84,3.62,3.62,0,0,1,.25-.86,1.74,1.74,0,0,1,.66-.55c.22-.2.38-.47.6-.7s.46-.48.63-.76a7.15,7.15,0,0,0,.27-1,3.68,3.68,0,0,0,.32-.87,7.35,7.35,0,0,0,0-.94,8.44,8.44,0,0,0-.06-1,3.36,3.36,0,0,0-.09-.9,2.76,2.76,0,0,0-.33-.82,5.57,5.57,0,0,0-.52-.78c-.21-.26-.25-.59-.5-.84a3.31,3.31,0,0,0-.7-.56,4.88,4.88,0,0,0-.73-.51c-.27-.16-.64-.15-.91-.28s-.6-.16-.93-.19a3.14,3.14,0,0,0-.89.13,7.12,7.12,0,0,0-.92.18,2.87,2.87,0,0,0-.76.48,1.67,1.67,0,0,0-.69.59,4.9,4.9,0,0,0-.38.84,8.17,8.17,0,0,0-.4.88l-.16.89a5.45,5.45,0,0,0-.07.92l-.2.9c-.05.25.05.61,0,1l-.21.81C313.17,149,313.13,149.24,313.13,149.57Z"/><path class="cls-1" d="M313.17,188.37l.83-.26,1.65.29.69.54.46.67.27.79-.3,1.65-.54.69-.66.46-.84.26-1.64-.3-.69-.53-.46-.67-.27-.83.3-1.65.53-.65Z"/><path class="cls-1" d="M32.09,193.13l-.68.55-1.65.32-.83-.25-.68-.45-.54-.64L27.39,191l.25-.84.45-.67.68-.55,1.64-.33.84.25.67.45.55.68.33,1.65-.26.79Z"/><path class="cls-1" d="M143.31,126.19a7.64,7.64,0,0,1-.5-.66,2.88,2.88,0,0,1-.45-.75,4.79,4.79,0,0,1-.09-.83c0-.46-.16-.46-.16-.91v-1c0-.46.08-.46.08-1s.13-.46.13-.92,0-.46,0-.95v-1.87c0-.46-.16-.46-.16-1v-.91c0-.42.08-.42.08-.88s0-.49,0-1,.12-.46.12-1-.08-.45-.08-.91,0-.5,0-1,.12-.45.12-.91,0-.5,0-1-.13-.45-.13-.95.13-.46.13-.92-.13-.45-.13-1,0-.46,0-.91.17-.5.17-1v-1c0-.45-.21-.45-.21-.91s.16-.46.16-1-.16-.46-.16-.92.21-.41.21-.91-.21-.46-.21-.92,0-.5,0-1,.12-.46.12-.92-.12-.5-.12-1V95c0-.45,0-.45,0-.91s.13-.5.13-1a3.27,3.27,0,0,1,0-.87c.09-.25.34-.42.54-.66s.21-.59.42-.75a3.17,3.17,0,0,1,.87-.25,2.22,2.22,0,0,1,.83-.33c.5,0,.5.2,1,.2s.46,0,.91,0h.92c.49,0,.49,0,.95,0h1.87c.46,0,.46.08.92.08h.91c.46,0,.46-.08.95-.08s.46-.08.92-.08h.91a4.56,4.56,0,0,0,1,.29l.87.12c.29.09.67,0,1,.09a2.81,2.81,0,0,1,.83.37,3.61,3.61,0,0,1,.95.21c.25.12.5.29.83.45s.46.38.71.5.62.21.87.38.42.45.67.66.45.38.74.58.5.34.71.59a3.25,3.25,0,0,1,.62.74c.17.21.46.42.67.63s.21.62.41.87a4.26,4.26,0,0,1,.5.75,5.68,5.68,0,0,1,.5.83c.13.25.33.5.46.79a5.69,5.69,0,0,1,.37.87c.09.25.29.5.46.83a7.37,7.37,0,0,0,.25.87l.29.92c.08.29.12.62.17.91s.2.58.25.91,0,.63,0,.92a8,8,0,0,1,.2,1,3.15,3.15,0,0,1,0,.92,3.33,3.33,0,0,1,.21.91c0,.29.08.62.08.92s-.12.7-.12,1a7.77,7.77,0,0,1-.08,1,3.69,3.69,0,0,1-.09,1c0,.3,0,.63,0,1s-.25.58-.29.92-.12.66-.21,1a8.85,8.85,0,0,1-.33.87,5.36,5.36,0,0,1-.33.88,7.91,7.91,0,0,0-.17,1,5.48,5.48,0,0,1-.41.88c-.13.29-.34.58-.46.83s-.42.54-.58.79a5.53,5.53,0,0,1-.46.83,3.73,3.73,0,0,1-.58.75l-.58.74c-.25.25-.5.42-.71.67s-.5.29-.71.5-.41.54-.66.74-.58.21-.91.38l-.75.45c-.33.17-.54.34-.83.46s-.58.33-.83.42a7.38,7.38,0,0,1-.92.16,5.62,5.62,0,0,0-.87.34l-1,.12c-.3.08-.63-.08-.92,0s-.62,0-1,0-.45.13-.91.13h-1.78c-.5,0-.5-.17-1-.17s-.46.12-.92.12-.41,0-.87,0-.45-.17-.95-.17-.46,0-.92,0-.41,0-.87,0-.46,0-1,0-.45.08-.87.08a6.05,6.05,0,0,1-.87,0A4.26,4.26,0,0,1,143.31,126.19Zm5-29.62a2.77,2.77,0,0,0-.54.83,3.12,3.12,0,0,0-.12,1v1c0,.46-.05.46-.05.95s-.12.5-.12,1,.08.5.08,1,0,.46,0,1,.09.46.09,1v1c0,.5-.21.5-.21,1s.08.45.08,1,.09.5.09,1-.05.5-.05.95.05.46.05,1-.05.46-.05.92-.12.49-.12,1,.17.54.17,1-.09.45-.09.91-.08.54-.08,1,.17.5.17,1-.05.46-.05,1,.09.46.09.92-.13.49-.13,1a3,3,0,0,0,.21,1,2.34,2.34,0,0,0,.54.83,3.18,3.18,0,0,0,.87.54,2.63,2.63,0,0,0,1,.25c.46,0,.46-.12.91-.12H153c.5,0,.5.08,1,.08s.46-.08.95-.08c.3,0,.59.12.92.12l.79-.21a3.33,3.33,0,0,0,.91-.16c.29,0,.5-.29.75-.42a3.73,3.73,0,0,0,.79-.41l.75-.42c.21-.21.5-.37.7-.54a3.83,3.83,0,0,0,.54-.66c.21-.25.38-.5.54-.71s.42-.5.54-.75a52.88,52.88,0,0,1,.88-1.62l.37-.83c0-.33,0-.62,0-1a2.77,2.77,0,0,0,.21-.87,3.45,3.45,0,0,0,.21-.87,4.22,4.22,0,0,0,.21-.91c.08-.3-.05-.63,0-.92V109a5.44,5.44,0,0,0-.05-.88,6,6,0,0,0,0-1v-.92c0-.33-.29-.58-.37-.91s.08-.62,0-.91-.17-.59-.25-.92a4.84,4.84,0,0,0-.37-.83c-.09-.29-.3-.5-.42-.83a7.57,7.57,0,0,0-.29-.83c-.17-.29-.42-.5-.58-.79a7.69,7.69,0,0,0-.5-.71c-.21-.25-.25-.58-.46-.83l-.7-.62c-.21-.21-.5-.33-.71-.54l-.79-.46a5.06,5.06,0,0,0-.79-.45c-.29-.13-.5-.38-.79-.5a6.37,6.37,0,0,0-.91-.09,3.36,3.36,0,0,0-.92-.12,7.47,7.47,0,0,0-.91-.21c-.5,0-.5,0-1,0s-.5,0-1,0-.55,0-1,0-.5.09-1,.09a2.13,2.13,0,0,0-1,.08A3.44,3.44,0,0,0,148.34,96.57Z"/><path class="cls-1" d="M199,126.78h-1c-.46,0-.46-.09-.92-.09h-.91c-.46,0-.46-.12-1-.12s-.46.16-.91.16-.46-.12-1-.12h-.95c-.46,0-.46,0-1,0s-.46,0-.91,0-.46.12-1,.12-.46,0-.91,0-.46-.21-.92-.21-.46,0-1,0a7.54,7.54,0,0,1-.84-.08,6.49,6.49,0,0,1-.74-.38,3.59,3.59,0,0,1-.59-.58,2.14,2.14,0,0,1-.41-.79,1.82,1.82,0,0,1-.21-.83c0-.46.21-.46.21-.91s-.17-.5-.17-1,0-.46,0-.91,0-.5,0-1,.13-.46.13-.95-.17-.46-.17-.92,0-.5,0-1v-1.87c0-.46.17-.46.17-1s-.13-.46-.13-.91-.08-.46-.08-1,0-.45,0-.91,0-.5,0-1,.17-.46.17-.95v-1.79c0-.5-.17-.5-.17-1s.08-.45.08-1v-.91c0-.5.09-.5.09-1s0-.46,0-.91,0-.5,0-1-.13-.46-.13-1v-.92c0-.5,0-.5,0-1V96.78c0-.46-.08-.46-.08-.91s0-.46,0-1V94c0-.46.13-.46.13-1a1.94,1.94,0,0,1,0-.87,1.73,1.73,0,0,1,.5-.66,1.57,1.57,0,0,1,.58-.59,2,2,0,0,1,.71-.41,6.47,6.47,0,0,1,.79-.13c.53,0,.53-.08,1-.08h.92c.45,0,.45,0,1,0s.46-.16.92-.16.45.08.91.08.54,0,1,0h.91c.5,0,.5,0,1,0h.91c.5,0,.5-.08,1-.08s.5.2,1,.2.5-.2,1-.2.46.12,1,.12.49,0,.95,0h.91a6.42,6.42,0,0,1,.88,0c.25.13.45.38.74.54a1.74,1.74,0,0,1,.54.54,4.17,4.17,0,0,1,.42.75,2.14,2.14,0,0,1,.21.87,3.28,3.28,0,0,1-.25.83,1.6,1.6,0,0,1-.33.75,1.67,1.67,0,0,1-.59.62,2.2,2.2,0,0,1-.79.34,2.51,2.51,0,0,1-.83.12c-.41,0-.41.17-.87.17h-.87c-.46,0-.46-.17-1-.17h-1.74c-.46,0-.46.08-.92.08s-.41.09-.87.09-.45-.17-.87-.17-.5.08-.95.08-.42-.12-.88-.12a4.51,4.51,0,0,0-1,.25c-.29.17-.54.37-.83.58a4.08,4.08,0,0,0-.62.83,4.53,4.53,0,0,0,0,1c0,.5-.17.5-.17.91s.21.46.21.88-.21.45-.21.87.13.5.13.91,0,.46,0,.88-.08.45-.08.87a2.16,2.16,0,0,0,.33,1,3,3,0,0,0,.46,1,5.72,5.72,0,0,0,.87.58,4,4,0,0,0,1,0c.46,0,.46.13.88.13s.45-.09.87-.09.5.09.95.09.42-.13.87-.13.46.09.88.09.45,0,.91,0,.42.17.87.17h.92c.29,0,.62-.12.87,0s.46.29.67.5a7.23,7.23,0,0,1,.62.54,6.12,6.12,0,0,1,.33.75,3.05,3.05,0,0,1,.17.87,1.77,1.77,0,0,1-.21.75c-.08.33,0,.62-.25.83a2.44,2.44,0,0,1-.62.66,6.77,6.77,0,0,1-.79.25c-.25,0-.5.29-.79.29h-.92c-.45,0-.45,0-.87,0h-.91c-.42,0-.42-.17-.88-.17h-.87c-.45,0-.45.09-.95.09h-.87c-.42,0-.42.12-.88.12a1.74,1.74,0,0,0-1,.17,1.53,1.53,0,0,0-.83.54,1.66,1.66,0,0,0-.5.87c-.13.29-.42.58-.42,1s.13.49.13,1-.13.49-.13,1,.21.5.21,1-.21.5-.21,1a2.88,2.88,0,0,0,.29,1,4.35,4.35,0,0,0,.54.87,4.58,4.58,0,0,0,.87.54,2.58,2.58,0,0,0,1,.13h.88c.45,0,.45.12.87.12s.5,0,.95,0,.42-.21.87-.21.46.17.88.17.45,0,.87,0,.46-.16.91-.16.42.16.92.16.45-.16.87-.16.46.08.87.08a5.93,5.93,0,0,1,.83.12,2.28,2.28,0,0,1,.75.42,2.76,2.76,0,0,1,.58.66c.17.21.46.34.5.67s0,.58,0,.87a2.71,2.71,0,0,1-.12.79,2.93,2.93,0,0,1-.34.79,3.69,3.69,0,0,1-.62.58c-.25.13-.46.29-.75.42a5.83,5.83,0,0,1-.83.08h-.95A3.72,3.72,0,0,1,199,126.78Z"/><path class="cls-1" d="M95,196a3.24,3.24,0,0,1-.35-.86,3.14,3.14,0,0,1-.08-.9,3.61,3.61,0,0,1,.26-.86c.17-.43.21-.43.38-.86a9.8,9.8,0,0,1,.43-.94c.13-.43,0-.47.22-1l.3-.9c.17-.51.25-.43.42-.9a6.59,6.59,0,0,0,.26-.94l.35-.9c.17-.52.25-.43.47-.9s0-.52.21-1,.22-.43.39-.9.21-.47.34-.94.34-.39.52-.86l.3-.9c.17-.51,0-.56.17-1s.13-.47.34-.9.3-.43.43-.85l.34-1c.22-.43.09-.47.26-.9a9.19,9.19,0,0,0,.43-.9c.17-.48.3-.39.47-.9a5.08,5.08,0,0,0,.34-.9c.22-.43.09-.48.26-1a6.23,6.23,0,0,1,.43-.9c.17-.47,0-.51.21-.94s.22-.43.35-.95.3-.43.43-.85a8.56,8.56,0,0,0,.21-1c.17-.43.22-.43.39-.94l.43-.86a6.54,6.54,0,0,0,.25-.94c.22-.43.39-.39.56-.82s0-.56.13-1,.21-.43.39-.86.25-.42.43-.9,0-.51.25-1c.13-.26.35-.43.47-.65a1.86,1.86,0,0,1,.73-.51,2.36,2.36,0,0,1,.69-.39c.26-.08.52-.3.77-.3l.09,0a1.79,1.79,0,0,1,.81.17,2.11,2.11,0,0,1,.73.43,2,2,0,0,1,.56.64,4.69,4.69,0,0,1,.56.69c.13.43.08.43.25.94s.09.48.26.9.26.43.43.86.17.47.39.9.08.52.26,1,.21.42.38.9a7.62,7.62,0,0,0,.26.9c.17.47.21.47.38.94a3.46,3.46,0,0,0,.35.86c.17.47.13.47.3.9s.26.43.38.86.3.43.43.94l.35.9a7.33,7.33,0,0,1,.3.86l.34.9.3.94c.17.48.21.43.39.91s.08.47.25.9.26.43.43.86a8.19,8.19,0,0,1,.35.94,6,6,0,0,0,.25.9,9.19,9.19,0,0,0,.43.9,8.23,8.23,0,0,0,.26.94c.21.43.21.43.39.86a3.18,3.18,0,0,0,.3.9c.17.52,0,.52.25,1s.3.39.43.81l.34.9c.13.48.22.43.35.91a8.52,8.52,0,0,1,.3.94l.3.9.17,0s-.17,0-.17.08a7.39,7.39,0,0,1,.43,1c.21.47.25.47.43.94s.21.52.38,1l.43,1a2.8,2.8,0,0,1,.09.86,2.93,2.93,0,0,1-.09.9,4.12,4.12,0,0,1-.43.77,4.31,4.31,0,0,1-.51.73,2.11,2.11,0,0,1-.73.43,4.37,4.37,0,0,1-2.66-.26,2.17,2.17,0,0,1-.64-.64,3.79,3.79,0,0,1-.43-.73c-.22-.52,0-.56-.22-1a10,10,0,0,0-.51-1c-.17-.47-.09-.51-.26-1s-.34-.43-.56-.94a1.3,1.3,0,0,0-.38-.82c-.22-.17-.52-.25-.78-.42a1.9,1.9,0,0,0-.81-.43,6.51,6.51,0,0,0-.82-.52l-.9-.13a4.82,4.82,0,0,0-.9-.17,7.21,7.21,0,0,1-.9-.13,3,3,0,0,1-.9,0,6.3,6.3,0,0,1-.9-.13c-.34,0-.64.13-.9.13a6.54,6.54,0,0,1-1,0,8.13,8.13,0,0,0-.9.13,5.08,5.08,0,0,0-.9.09c-.3.08-.64.13-.9.21s-.64.13-.9.22a6.12,6.12,0,0,0-.82.51l-.85.3-.78.43a2.28,2.28,0,0,0-.64.73c-.21.47-.13.51-.34,1a4.29,4.29,0,0,1-.43,1c-.13.47-.26.47-.43,1s-.09.51-.26,1a1.66,1.66,0,0,1-.47.77,2.9,2.9,0,0,1-.69.6c-.21.17-.55.13-.81.22a6.54,6.54,0,0,1-.86.17,2.08,2.08,0,0,1-.9-.13,2.61,2.61,0,0,1-.69-.52A4.54,4.54,0,0,1,95,196Zm14.24-23.94a2.22,2.22,0,0,0-.64.73c-.18.51,0,.56-.22,1s-.34.39-.47.86-.09.55-.22,1a7.8,7.8,0,0,0-.38,1c-.22.43-.39.34-.52.86a10,10,0,0,1-.34.94l-.3,1a8.86,8.86,0,0,0-.34.94c-.22.43-.09.47-.3,1a1.79,1.79,0,0,0-.26.73,1.1,1.1,0,0,0,.26.85c.13.22.47.22.77.3a3.52,3.52,0,0,0,.81.13,8.28,8.28,0,0,1,1-.08c.3,0,.69,0,1,0a4.43,4.43,0,0,1,1,0c.39,0,.73-.17,1.12-.17a10.59,10.59,0,0,1,1.11.09,1.23,1.23,0,0,0,1-.13,1.17,1.17,0,0,0,.43-.94,1.9,1.9,0,0,0-.17-1c-.17-.48-.26-.43-.43-.91s-.13-.42-.34-.9a4.27,4.27,0,0,0-.26-.94c-.13-.47-.26-.43-.43-.86l-.3-.9c-.22-.47-.17-.47-.39-1s0-.47-.17-.9a8.22,8.22,0,0,1-.43-.9c-.13-.43-.26-.43-.38-.85s-.22-.78-.43-.95S109.47,171.8,109.21,172.06Z"/><path class="cls-1" d="M161.54,193c-.21.22-.3.56-.55.78a6.58,6.58,0,0,1-.78.55,3,3,0,0,1-.85.43c-.26.17-.47.39-.73.56s-.52.39-.82.56a7.55,7.55,0,0,0-.9.25c-.3.09-.56.31-.86.43s-.6.22-.9.26-.64,0-.94.05-.64.3-.94.34-.6-.17-1-.17a6.31,6.31,0,0,1-1-.05,4.11,4.11,0,0,1-1-.12c-.3-.05-.6-.05-.95-.13s-.64-.13-.94-.22-.6-.21-.9-.39a4.9,4.9,0,0,1-.86-.42,8.34,8.34,0,0,1-.9-.35,6.36,6.36,0,0,1-.81-.64,4.76,4.76,0,0,1-.73-.6,6.35,6.35,0,0,1-.86-.56c-.21-.21-.34-.6-.56-.81s-.51-.39-.73-.65-.34-.6-.55-.86-.48-.42-.69-.72l-.52-.82c-.17-.26-.21-.64-.38-.9a5.78,5.78,0,0,1-.56-.86,6.87,6.87,0,0,1-.43-.86c-.13-.34-.17-.64-.3-1s-.26-.56-.34-.9-.22-.65-.3-.9a7.84,7.84,0,0,1-.09-1c0-.35-.21-.65-.26-1s0-.64-.08-.94-.13-.65-.17-1-.13-.64-.13-.94v-1c0-.35.13-.65.13-1a9.17,9.17,0,0,1,.08-1,6.44,6.44,0,0,1,0-1c0-.35.21-.6.25-.95a6.07,6.07,0,0,0,.13-.94l.26-1a7.93,7.93,0,0,1,.21-.94,9.78,9.78,0,0,0,.26-1c.13-.26.17-.6.34-.9a9.35,9.35,0,0,1,.39-.94c.13-.26.39-.52.56-.82a8,8,0,0,0,.47-.86l.51-.85a4.81,4.81,0,0,0,.61-.73c.21-.22.38-.56.6-.82l.68-.64a16.16,16.16,0,0,1,1.46-1.37A4.74,4.74,0,0,0,145,162l.81-.51a9.46,9.46,0,0,1,.78-.56l.94-.43a6.35,6.35,0,0,0,.94-.21,6.1,6.1,0,0,1,.9-.26,3.9,3.9,0,0,1,.95-.17c.34,0,.64-.17,1-.22s.65-.08,1-.08h1.07c.48-.09.48.13,1,.13s.52-.13,1.08-.13.51,0,1.07,0l0,0a1.76,1.76,0,0,1,.77.17,1.56,1.56,0,0,1,.78.39,1.72,1.72,0,0,1,.6.6,3,3,0,0,1,.51.73,6.16,6.16,0,0,1,0,.86,1.9,1.9,0,0,1-.13.86,2.62,2.62,0,0,1-.25.85,2.2,2.2,0,0,1-.69.56,2.84,2.84,0,0,1-.69.52,3.43,3.43,0,0,1-.9.08c-.56,0-.56.05-1.07.05s-.52-.18-1.07-.18-.52.13-1.08.13h-1.07a8.79,8.79,0,0,0-.94.13,7,7,0,0,1-.95.13,6.23,6.23,0,0,0-.9.43,6.59,6.59,0,0,0-.94.38c-.26.18-.56.31-.81.52s-.43.52-.65.73a3.68,3.68,0,0,0-.77.69,5.7,5.7,0,0,0-.56.77c-.17.26-.43.51-.6.77s-.26.6-.43.94a6.11,6.11,0,0,1-.38.9l-.35.86-.34,1a6.33,6.33,0,0,0-.3.9,3.74,3.74,0,0,0-.17,1c0,.3-.22.64-.26.94s0,.73,0,1a8.17,8.17,0,0,0,0,1c0,.3,0,.68,0,1a3.56,3.56,0,0,0,.22.94,3.65,3.65,0,0,0,0,1l.12,1a4.75,4.75,0,0,1,.3.9,4.38,4.38,0,0,0,.48.9,3.26,3.26,0,0,0,.25.94,6.23,6.23,0,0,0,.43.9,9.19,9.19,0,0,0,.43.9c.17.26.47.43.64.73s.26.65.48.9.47.43.68.69l.82.6a9.34,9.34,0,0,0,.77.56,5.73,5.73,0,0,0,.86.43c.34.12.6.34.9.42a6.49,6.49,0,0,0,1,.09,7.87,7.87,0,0,0,1,0c.3,0,.56.09.82.09l.81-.17a6.35,6.35,0,0,1,.77-.26,3.2,3.2,0,0,0,.78-.56,2.93,2.93,0,0,0,.55-.68c.17-.3.22-.6.35-.86s.3-.6.38-.94a4.85,4.85,0,0,0,.22-.91c0-.47-.13-.47-.13-1s0-.47,0-.94.09-.56.09-1-.17-.51-.17-1-.05-.47-.05-1,.13-.47.13-1,.09-.52.09-1v-1c0-.51-.09-.51-.09-1s.09-.51.09-1-.13-.51-.13-1a6.39,6.39,0,0,1,.17-.85,2.77,2.77,0,0,1,.3-.86,7.41,7.41,0,0,1,.64-.6,6.14,6.14,0,0,1,.82-.47,4.72,4.72,0,0,1,.9-.09c.26,0,.51.21.81.26a3.34,3.34,0,0,1,.91.25c.21.18.25.56.43.78a2.86,2.86,0,0,1,.42.73c0,.34.3.55.3.85,0,.52-.21.52-.21,1s.17.43.17.9-.17.52-.17,1v1.84c0,.47.13.47.13.95s.08.51.08.94v.94c0,.48-.08.48-.08,1v1.84c0,.52-.09.52-.09,1s.09.43.09.9-.13.51-.13,1,.17.42.17.9-.13.51-.13,1a2.3,2.3,0,0,1-.08,1.08A2.05,2.05,0,0,1,161.54,193Z"/><path class="cls-1" d="M200.24,160.05a2.16,2.16,0,0,1,.56.77,2.43,2.43,0,0,1,.42.73,2,2,0,0,1,.13.86c0,.56,0,.56,0,1s0,.47,0,1,0,.52,0,1,0,.52,0,1,.05.56.05,1v3c0,.55-.09.55-.09,1s.13.47.13.94-.09.56-.09,1-.13.52-.13,1,.22.51.22,1v.94c0,.56-.09.56-.09,1s0,.47,0,1c0,.3-.09.64-.09,1v.94c0,.34.09.64.09,1a3.33,3.33,0,0,1-.09.94c0,.34,0,.64,0,1s0,.64,0,1a7.93,7.93,0,0,1-.21.94,8.17,8.17,0,0,1,0,1l-.17,1c-.05.3-.26.6-.3.9s-.09.64-.18,1-.42.6-.51.86a8.23,8.23,0,0,0-.26.94l-.51.86-.39.9-.64.73a7.2,7.2,0,0,1-.6.82l-.69.68c-.26.18-.6.3-.9.52l-.82.47c-.3.17-.6.3-.85.47a9.11,9.11,0,0,1-1,.35c-.25.08-.64,0-1,.13s-.6,0-.95.08-.64.17-.94.17a7.07,7.07,0,0,1-1,0c-.3,0-.64.09-.94.09a6.73,6.73,0,0,1-1-.22c-.3,0-.69.05-1,0s-.6-.25-.9-.38a4.32,4.32,0,0,1-1-.22c-.3-.08-.52-.43-.78-.51a54.24,54.24,0,0,1-1.67-1c-.26-.22-.47-.52-.69-.73s-.51-.34-.73-.64a9.29,9.29,0,0,1-.55-.78,6.51,6.51,0,0,1-.52-.85,3.7,3.7,0,0,1-.38-1,3.29,3.29,0,0,1-.43-.86,8,8,0,0,0-.22-.94,9.25,9.25,0,0,0-.38-.94l-.13-1a6.7,6.7,0,0,1-.17-1c0-.35-.22-.65-.26-1a3.33,3.33,0,0,1-.09-.94,8.28,8.28,0,0,1,0-1c0-.39-.17-.69-.17-1s0-.64,0-.94.12-.65.12-1-.12-.69-.12-.94v-1c0-.52.12-.52.12-1s-.17-.51-.17-1,.17-.47.17-.94v-1c0-.47-.08-.47-.08-1s0-.51,0-1v-.94c0-.56,0-.56,0-1s0-.47,0-1,.12-.47.12-1-.17-.51-.17-1,.09-.47.09-1,.08-.47.08-1-.12-.47-.12-1v-1c0-.47-.05-.47-.05-1a2.55,2.55,0,0,1,.17-.9,2,2,0,0,1,.43-.77c.13-.26.43-.43.65-.65a4.38,4.38,0,0,1,.77-.43,3.14,3.14,0,0,1,.86-.08,2.12,2.12,0,0,1,.9.21,2.66,2.66,0,0,1,.77.34c.26.18.34.48.51.73a2.45,2.45,0,0,1,.48.69,2.2,2.2,0,0,1,.17.86c0,.56-.13.56-.13,1s.17.47.17,1,0,.52,0,1-.08.52-.08,1,0,.56,0,1,0,.47,0,1,.08.52.08,1-.08.52-.08,1,0,.55,0,1v.94c0,.56-.09.56-.09,1v2c0,.47.13.47.13.94s-.13.56-.13,1,.09.47.09,1v1c0,.3,0,.64,0,.94s0,.64,0,1a7.73,7.73,0,0,0,.17.94c0,.39-.17.73-.17,1l.17,1a7.73,7.73,0,0,0,.17.94,9.3,9.3,0,0,0,.22,1c0,.34,0,.68.08,1a8.58,8.58,0,0,1,.26,1c.17.34.52.55.6.81a6.16,6.16,0,0,0,.39.9,2.81,2.81,0,0,0,.73.73,3.84,3.84,0,0,0,.86.47l.94.3a3.51,3.51,0,0,0,1,.09,7.45,7.45,0,0,0,.94.08,7.07,7.07,0,0,0,1,0,2.46,2.46,0,0,0,.94-.21,2.36,2.36,0,0,0,.95-.26,5.76,5.76,0,0,0,.81-.55,3.44,3.44,0,0,0,.73-.65,7.24,7.24,0,0,0,.51-.86,19.48,19.48,0,0,0,.65-1.8c.08-.34.26-.6.34-1s0-.65,0-1,.17-.64.22-.94,0-.65,0-1a5.89,5.89,0,0,0,.13-1,7.39,7.39,0,0,1,0-.94V179.4c0-.35,0-.65,0-1v-1c0-.51.13-.51.13-1s-.13-.47-.13-.94-.08-.56-.08-1,.08-.47.08-1v-3c0-.47.09-.47.09-1s-.13-.47-.13-1,0-.51,0-1,0-.47,0-1,.13-.47.13-1,0-.47,0-1v-1c0-.47,0-.47,0-1a2.79,2.79,0,0,1,.13-.82,7.53,7.53,0,0,1,.34-.85,4.32,4.32,0,0,1,.6-.61,2.25,2.25,0,0,1,.77-.34,2.33,2.33,0,0,1,.86-.17,9,9,0,0,1,1.72.43Z"/><path class="cls-1" d="M216.5,196a3.24,3.24,0,0,1-.35-.86,3.14,3.14,0,0,1-.08-.9,3.61,3.61,0,0,1,.26-.86c.17-.43.21-.43.38-.86a9.8,9.8,0,0,1,.43-.94c.13-.43,0-.47.21-1l.3-.9c.18-.51.26-.43.43-.9a6.59,6.59,0,0,0,.26-.94l.34-.9c.18-.52.26-.43.48-.9s0-.52.21-1,.21-.43.39-.9.21-.47.34-.94.34-.39.52-.86l.3-.9c.17-.51,0-.56.17-1s.13-.47.34-.9.3-.43.43-.85l.34-1c.22-.43.09-.47.26-.9a9.19,9.19,0,0,0,.43-.9c.17-.48.3-.39.47-.9a6,6,0,0,0,.34-.9c.22-.43.09-.48.26-1a5.33,5.33,0,0,1,.43-.9c.17-.47,0-.51.21-.94s.22-.43.35-.95.3-.43.43-.85a8.56,8.56,0,0,0,.21-1c.17-.43.22-.43.39-.94l.43-.86a8.16,8.16,0,0,0,.25-.94c.22-.43.39-.39.56-.82s0-.56.13-1,.21-.43.39-.86.25-.42.42-.9.05-.51.26-1c.13-.26.34-.43.47-.65a1.86,1.86,0,0,1,.73-.51,2.36,2.36,0,0,1,.69-.39c.26-.08.51-.3.77-.3l.09,0a1.82,1.82,0,0,1,.81.17,2.11,2.11,0,0,1,.73.43,2,2,0,0,1,.56.64,4.69,4.69,0,0,1,.56.69c.13.43.08.43.25.94s.09.48.26.9.26.43.43.86.17.47.39.9.08.52.25,1,.22.42.39.9a6.1,6.1,0,0,0,.26.9c.17.47.21.47.38.94a3.46,3.46,0,0,0,.35.86c.17.47.13.47.3.9s.25.43.38.86.3.43.43.94l.34.9a5.93,5.93,0,0,1,.31.86l.34.9.3.94c.17.48.21.43.38.91s.09.47.26.9.26.43.43.86a6.62,6.62,0,0,1,.34.94,7.62,7.62,0,0,0,.26.9,9.19,9.19,0,0,0,.43.9,8.23,8.23,0,0,0,.26.94,8.06,8.06,0,0,1,.38.86,4,4,0,0,0,.3.9c.18.52.05.52.26,1s.3.39.43.81l.34.9c.13.48.22.43.35.91a8.52,8.52,0,0,1,.3.94l.3.9.17,0s-.17,0-.17.08a8.94,8.94,0,0,1,.43,1c.21.47.25.47.43.94s.21.52.38,1l.43,1a2.8,2.8,0,0,1,.09.86,2.93,2.93,0,0,1-.09.9,4.77,4.77,0,0,1-.43.77,4.31,4.31,0,0,1-.51.73,2.31,2.31,0,0,1-.73.43,4.37,4.37,0,0,1-2.66-.26,2.17,2.17,0,0,1-.64-.64,3.34,3.34,0,0,1-.43-.73c-.22-.52,0-.56-.22-1a10,10,0,0,0-.51-1c-.18-.47-.09-.51-.26-1s-.34-.43-.56-.94a1.3,1.3,0,0,0-.38-.82c-.22-.17-.52-.25-.78-.42a1.9,1.9,0,0,0-.81-.43,6.51,6.51,0,0,0-.82-.52l-.9-.13a5.16,5.16,0,0,0-.9-.17,7.21,7.21,0,0,1-.9-.13,3,3,0,0,1-.9,0,6.3,6.3,0,0,1-.9-.13c-.34,0-.64.13-.9.13a6.54,6.54,0,0,1-1,0,8.13,8.13,0,0,0-.9.13,5.08,5.08,0,0,0-.9.09c-.3.08-.64.13-.9.21s-.64.13-.9.22a6.12,6.12,0,0,0-.82.51l-.86.3-.77.43a2.28,2.28,0,0,0-.64.73c-.21.47-.13.51-.34,1a4.29,4.29,0,0,1-.43,1c-.13.47-.26.47-.43,1s-.09.51-.26,1a1.75,1.75,0,0,1-.47.77,2.9,2.9,0,0,1-.69.6c-.21.17-.56.13-.81.22a6.54,6.54,0,0,1-.86.17,2.08,2.08,0,0,1-.9-.13,2.61,2.61,0,0,1-.69-.52A4.54,4.54,0,0,1,216.5,196Zm14.24-23.94a2.24,2.24,0,0,0-.65.73c-.17.51,0,.56-.21,1s-.34.39-.47.86-.09.55-.22,1a7.8,7.8,0,0,0-.38,1c-.22.43-.39.34-.52.86s-.13.47-.34.94l-.3,1a8.86,8.86,0,0,0-.34.94c-.22.43-.09.47-.3,1a1.79,1.79,0,0,0-.26.73,1.1,1.1,0,0,0,.26.85c.13.22.47.22.77.3a3.52,3.52,0,0,0,.81.13,8.28,8.28,0,0,1,1-.08c.3,0,.69,0,1,0a4.43,4.43,0,0,1,1,0c.39,0,.73-.17,1.11-.17a10.56,10.56,0,0,1,1.12.09,1.23,1.23,0,0,0,1-.13,1.17,1.17,0,0,0,.43-.94,1.9,1.9,0,0,0-.17-1c-.18-.48-.26-.43-.43-.91s-.13-.42-.35-.9a3.75,3.75,0,0,0-.25-.94c-.13-.47-.26-.43-.43-.86l-.3-.9c-.22-.47-.17-.47-.39-1s0-.47-.17-.9a8.22,8.22,0,0,1-.43-.9c-.13-.43-.26-.43-.38-.85s-.22-.78-.43-.95S231,171.8,230.74,172.06Z"/></g></svg>